<svg width="23" height="23" viewBox="0 0 23 23" fill="none" xmlns="http://www.w3.org/2000/svg">
    <path d="M14.8327 4.83492C14.6852 4.68828 14.4857 4.60596 14.2777 4.60596C14.0697 4.60596 13.8702 4.68828 13.7227 4.83492L2.30366 16.2521C1.95538 16.6289 1.68872 17.0735 1.52041 17.5582L0.0340587 22.4435C-0.069001 22.7809 0.0691758 23 0.349346 23C0.419617 22.9987 0.489321 22.9872 0.556228 22.9656L5.44202 21.4794C5.92673 21.3111 6.37142 21.0445 6.74821 20.6963L18.1642 9.27601C18.3108 9.12854 18.3932 8.92903 18.3932 8.72106C18.3932 8.51309 18.3108 8.31358 18.1642 8.16612L14.8327 4.83492ZM5.08704 20.652C4.97864 20.6993 4.07324 21.0039 3.82055 21.081L1.967 21.6451C1.93968 21.6544 1.91111 21.6595 1.88226 21.6603C1.73569 21.6603 1.79142 21.468 1.65935 21.3359C1.51125 21.1878 1.27307 21.281 1.35399 21.0306L1.91814 19.1772C1.99448 18.9246 2.29985 18.02 2.34718 17.9108C2.37619 17.8452 2.50673 17.7773 2.6472 17.7773C2.69429 17.7761 2.74114 17.7844 2.78495 17.8017C2.82876 17.819 2.86863 17.845 2.90217 17.878L5.12368 20.0993C5.30919 20.2841 5.19773 20.6039 5.08704 20.652ZM15.8327 3.39146C15.7892 3.34679 15.7373 3.31121 15.6799 3.28677C15.6226 3.26233 15.5609 3.24953 15.4985 3.2491C15.4362 3.24867 15.3744 3.26062 15.3167 3.28427C15.259 3.30791 15.2066 3.34278 15.1624 3.38684C15.1183 3.4309 15.0834 3.48329 15.0597 3.54095C15.036 3.59862 15.0239 3.66042 15.0243 3.72277C15.0246 3.78512 15.0374 3.84677 15.0618 3.90416C15.0861 3.96155 15.1217 4.01353 15.1663 4.05709L18.9421 7.83483C18.9856 7.87945 19.0376 7.91497 19.095 7.93934C19.1524 7.96372 19.2141 7.97645 19.2764 7.97681C19.3388 7.97717 19.4006 7.96514 19.4583 7.94143C19.5159 7.91772 19.5683 7.88279 19.6124 7.83868C19.6565 7.79457 19.6913 7.74214 19.715 7.68445C19.7386 7.62676 19.7506 7.56494 19.7502 7.50259C19.7497 7.44025 19.7369 7.3786 19.7125 7.32124C19.688 7.26388 19.6524 7.21194 19.6078 7.16844L15.8327 3.39146ZM22.7706 3.56016L19.4391 0.228963C19.2916 0.0823166 19.0921 0 18.8841 0C18.6761 0 18.4765 0.0823166 18.3291 0.228963L16.6106 1.94723C16.4639 2.09482 16.3816 2.29446 16.3816 2.50256C16.3816 2.71065 16.4639 2.91029 16.6106 3.05788L19.9421 6.38907C20.0898 6.53577 20.2894 6.6181 20.4975 6.6181C20.7056 6.6181 20.9053 6.53577 21.0529 6.38907L22.7713 4.67081C22.9179 4.52311 23.0001 4.32342 23 4.11532C22.9999 3.90723 22.9174 3.70765 22.7706 3.56016Z" fill="#334D5E"/>
</svg>
