<?xml version="1.0" encoding="utf-8"?>
<!-- Generator: Adobe Illustrator 18.1.1, SVG Export Plug-In . SVG Version: 6.00 Build 0)  -->
<svg version="1.1" id="Слой_1" xmlns="http://www.w3.org/2000/svg" xmlns:xlink="http://www.w3.org/1999/xlink" x="0px" y="0px"
	 viewBox="0 0 100 100" enable-background="new 0 0 100 100" xml:space="preserve">
	<style>
		 svg path, svg rect, svg polygon, svg ellipse {
          transition: all 1s ease;
          }

		  svg #wall  {
		  fill: url(#testbed4);
		  opacity: 0;
		  }

		  svg:hover #wall {
		  opacity: 1;
		  }
		svg:hover #w1, svg:hover #w2 {
		  fill: #d4be9e;
		  }

		svg #w3 {
		opacity: 0;
		fill: url(#wall);
		}
		 svg:hover #w3 {
		  opacity: 1;
		}
		svg:hover #sof1, svg:hover .sofa {
		fill: purple;
		}
		svg:hover #pillow {
		fill: #b873f8;
		}
		svg:hover #pillow2 {
		fill: #71b444;
		}
		svg:hover .l1 {
		fill: #806666;
		}

		svg:hover .shelf {
		fill: #68410e;
		stroke: none;
		}
				svg:hover #floor {
		fill: #4d3415;
		}
		svg:hover .sofa1 {
		fill: #5e0f6a;
		stroke: none;
		}

		svg:hover .books1 {
		fill: #5e0f6a;
		}
		svg:hover .books2 {
		fill: orange;
		}
		svg:hover .books3 {
		fill: green;
		}
		svg:hover .books4 {
		fill: #031341;
		}
		svg:hover .books5 {
		fill: #6f6f6f;
		}
		svg:hover .table {
		fill: #5a2f14;
		}
		svg:hover .lamp {
		fill: #ffef66;
		stroke: none;
		}
		svg:hover #rend {
		fill: url(#grad);
		}







	</style>
	 <radialGradient id="grad"
            cx="50%" y="50%">
        <stop offset="0%" stop-color="#ffef66"
              stop-opacity="1"/>
        <stop offset="100%" stop-color="#ffef66"
              stop-opacity="0"/>
      </radialGradient>
	<linearGradient id="wall">
	<stop stop-color="#d4be9e" offset="0.0" />
 <stop stop-color="#d4be9e" offset="0.5" />
 <stop stop-color="#b49191" offset="0.5" />
 <stop stop-color="#b49191" offset="1" />

</linearGradient>
	<linearGradient id="testbed4">
 <stop stop-color="#b49191" offset="0.0" />
 <stop stop-color="#b49191" offset="0.1" />
 <stop stop-color="#d4be9e" offset="0.1" />
 <stop stop-color="#d4be9e" offset="0.2" />
 <stop stop-color="#b49191" offset="0.2" />
 <stop stop-color="#b49191" offset="0.3" />
 <stop stop-color="#d4be9e" offset="0.3" />
 <stop stop-color="#d4be9e" offset="0.4" />
 <stop stop-color="#b49191" offset="0.4" />
	 <stop stop-color="#b49191" offset="0.5" />
 <stop stop-color="#d4be9e" offset="0.5" />
	 <stop stop-color="#d4be9e" offset="0.6" />
 <stop stop-color="#b49191" offset="0.6" />
	 <stop stop-color="#b49191" offset="0.7" />
 <stop stop-color="#d4be9e" offset="0.7" />
	 <stop stop-color="#d4be9e" offset="0.8" />
 <stop stop-color="#b49191" offset="0.8" />
	 <stop stop-color="#b49191" offset="0.9" />
 <stop stop-color="#d4be9e" offset="0.9" />
	 <stop stop-color="#d4be9e" offset="1" />
</linearGradient>
<path id="w2" fill="#FFFFFF" stroke="#88CCCD" stroke-miterlimit="10" d="M83.5,82.5H34.9v2.7h-1.2v-2.7h-1.3l0.2,3.2h49.7
	c0.4-0.4,0.8-0.7,1.1-1.1V82.5z"/>
<path id="w3" fill="#FFFFFF" stroke="#88CCCD" stroke-miterlimit="10" d="M28.7,76.1H13.2l-0.9,4.5c1.5,1.8,3.1,3.5,4.9,5.1H29L28.7,76.1z"
	/>
<polygon class="sofa" fill="#FFFFFF" stroke="#88CCCD" stroke-miterlimit="10" points="81.5,75.5 36.8,75.5 36.8,76.1 81.4,76.1 "/>
<polygon class="sofa" fill="#FFFFFF" stroke="#88CCCD" stroke-miterlimit="10" points="40.8,70.8 35.9,71.1 40.9,71.1 "/>
<polygon class="sofa" fill="#FFFFFF" stroke="#88CCCD" stroke-miterlimit="10" points="82.1,71.1 77.2,70.8 79.9,57.8 76.9,71.1 "/>
<polygon class="sofa" fill="#FFFFFF" stroke="#88CCCD" stroke-miterlimit="10" points="36.3,73.4 35.9,71.1 33.8,59.7 36.3,73.4 "/>
<path fill="#FFFFFF" stroke="#88CCCD" stroke-miterlimit="10" d="M84.7,83.3c0.3-0.3,0.5-0.6,0.8-0.8h-0.8V83.3z"/>
<path id="wall" fill="#FFFFFF" stroke="#88CCCD" stroke-miterlimit="10" d="M13.2,76.1H9.3v-2.7h21V59.7h3.5l-0.5-1.9h4.8h41.8h4.8l-0.5,1.9
	l-2.1,11.4h0.3l2.3-11.4h2.6v20.7c6.8-8.4,10.9-19,10.9-30.7c0-10.5-3.3-20.2-9-28.1v1.3H42.9V21h13.4v-9h2.2v-1.8h2.9v2.8h2.1v8
	h12.1v-2.4h0.7V17h8.4v1.6h1V21h3.1c-1.2-1.6-2.4-3.1-3.8-4.5h-8.7v-1.9h6.8C74.4,6.3,62.7,1.3,49.8,1.3C23,1.3,1.3,23,1.3,49.8
	c0,11.7,4.1,22.4,11,30.8L13.2,76.1z M64.4,9.3l5.8,10.4l-1.8,1l-5.8-10.4L64.4,9.3z M54,25.8l2.2,9l-2,0.5l-2.2-9L54,25.8z
	 M42.9,35.9v-7.4h2.4v-1.8h2.2v1.8h2.2v-1.8h1.7v9.3h24.1V30h4.1v-4.2h8.5v10.1h1v1.9H42.9V35.9z M11.2,53.2h5.4H22v8.1h-5.4V63
	c0,0,3.5-0.4,3.5,2.8c0,2.8-2.2,2.4-2.2,2.4L17.8,70h2.7v3.3h-7.3V70h1.6v-1.8c0,0-1.7,0-1.6-2.4c0.1-3.1,3.4-2.8,3.4-2.8v-1.7h-5.4
	V53.2z"/>
	<path id="wall1" fill="none" stroke="#88CCCD" stroke-miterlimit="10" d="M13.2,76.1H9.3v-2.7h21V59.7h3.5l-0.5-1.9h4.8h41.8h4.8l-0.5,1.9
	l-2.1,11.4h0.3l2.3-11.4h2.6v20.7c6.8-8.4,10.9-19,10.9-30.7c0-10.5-3.3-20.2-9-28.1v1.3H42.9V21h13.4v-9h2.2v-1.8h2.9v2.8h2.1v8
	h12.1v-2.4h0.7V17h8.4v1.6h1V21h3.1c-1.2-1.6-2.4-3.1-3.8-4.5h-8.7v-1.9h6.8C74.4,6.3,62.7,1.3,49.8,1.3C23,1.3,1.3,23,1.3,49.8
	c0,11.7,4.1,22.4,11,30.8L13.2,76.1z M64.4,9.3l5.8,10.4l-1.8,1l-5.8-10.4L64.4,9.3z M54,25.8l2.2,9l-2,0.5l-2.2-9L54,25.8z
	 M42.9,35.9v-7.4h2.4v-1.8h2.2v1.8h2.2v-1.8h1.7v9.3h24.1V30h4.1v-4.2h8.5v10.1h1v1.9H42.9V35.9z M11.2,53.2h5.4H22v8.1h-5.4V63
	c0,0,3.5-0.4,3.5,2.8c0,2.8-2.2,2.4-2.2,2.4L17.8,70h2.7v3.3h-7.3V70h1.6v-1.8c0,0-1.7,0-1.6-2.4c0.1-3.1,3.4-2.8,3.4-2.8v-1.7h-5.4
	V53.2z"/>
<polygon id="w1" fill="#FFFFFF" stroke="#88CCCD" stroke-miterlimit="10" points="30.3,80.9 30.3,76.1 28.7,76.1 29,85.6 32.7,85.6
	32.4,82.5 31.9,82.5 "/>
<path id="floor" fill="#FFFFFF" stroke="#88CCCD" stroke-miterlimit="10" d="M29,85.6H17.1c8.6,7.8,20.1,12.6,32.6,12.6s24-4.8,32.6-12.6H32.7
	H29z"/>
<path class="shelf" fill="#FFFFFF" stroke="#88CCCD" stroke-miterlimit="10" d="M85.7,21H75.6H63.5h-2.1h-2.9h-2.2H42.9v1.9h46.3v-1.3
	c-0.1-0.2-0.3-0.4-0.4-0.6H85.7z"/>
<rect class="books1" x="56.3" y="12" fill="#FFFFFF" stroke="#88CCCD" stroke-miterlimit="10" width="2.2" height="9"/>
<polygon class="books2" fill="#FFFFFF" stroke="#88CCCD" stroke-miterlimit="10" points="61.4,21 61.4,12.9 61.4,10.1 58.5,10.1 58.5,12 58.5,21
	"/>
<rect class="books3" x="61.4" y="12.9" fill="#FFFFFF" stroke="#88CCCD" stroke-miterlimit="10" width="2.1" height="8"/>
<polygon class="books4" fill="#FFFFFF" stroke="#88CCCD" stroke-miterlimit="10" points="85.7,18.6 84.7,18.6 76.3,18.6 75.6,18.6 75.6,21 85.7,21
	"/>
<rect class="books2" x="76.3" y="17" fill="#FFFFFF" stroke="#88CCCD" stroke-miterlimit="10" width="8.4" height="1.6"/>
<path class="books5" fill="#FFFFFF" stroke="#88CCCD" stroke-miterlimit="10" d="M83.1,14.5h-6.8v1.9H85C84.4,15.8,83.7,15.2,83.1,14.5z"/>
<rect class="books1" x="60.4" y="14" transform="matrix(0.4848 0.8746 -0.8746 0.4848 47.3373 -50.3225)" fill="#FFFFFF" stroke="#88CCCD" stroke-miterlimit="10" width="11.9" height="2.1"/>
<polygon class="shelf" fill="#FFFFFF" stroke="#88CCCD" stroke-miterlimit="10" points="89.2,35.9 88.3,35.9 82,35.9 79.7,35.9 75.6,35.9
	51.5,35.9 49.8,35.9 47.6,35.9 45.4,35.9 42.9,35.9 42.9,37.8 89.2,37.8 "/>
<rect class="books3" x="42.9" y="28.4" fill="#FFFFFF" stroke="#88CCCD" stroke-miterlimit="10" width="2.4" height="7.4"/>
<polygon class="books2" fill="#FFFFFF" stroke="#88CCCD" stroke-miterlimit="10" points="47.6,35.9 47.6,28.4 47.6,26.6 45.4,26.6 45.4,28.4
	45.4,35.9 "/>
<rect class="books5" x="47.6" y="28.4" fill="#FFFFFF" stroke="#88CCCD" stroke-miterlimit="10" width="2.2" height="7.4"/>
<polygon class="books1" fill="#FFFFFF" stroke="#88CCCD" stroke-miterlimit="10" points="51.5,35.9 51.5,26.6 49.8,26.6 49.8,28.4 49.8,35.9 "/>
<rect class="books3" x="49.4" y="29.5" transform="matrix(0.2419 0.9703 -0.9703 0.2419 70.6053 -29.3348)" fill="#FFFFFF" stroke="#88CCCD" stroke-miterlimit="10" width="9.3" height="2.1"/>
<rect class="books4" x="75.6" y="30" fill="#FFFFFF" stroke="#88CCCD" stroke-miterlimit="10" width="4.1" height="5.8"/>
<polygon class="books2" fill="#FFFFFF" stroke="#88CCCD" stroke-miterlimit="10" points="82,35.9 88.3,35.9 88.3,25.8 79.7,25.8 79.7,30 82,30 "/>
<rect class="books4" x="79.7" y="30" fill="#FFFFFF" stroke="#88CCCD" stroke-miterlimit="10" width="2.3" height="5.8"/>
<path class="sofa" fill="#FFFFFF" stroke="#88CCCD" stroke-miterlimit="10" d="M84.7,59.7l-2.3,11.4l-0.9,4.4l-0.1,0.5H36.8H32h-1.7v4.8l1.6,1.6
	h0.6h1.3h1.2h48.6h1.2h0.8c0.6-0.7,1.2-1.4,1.8-2.1V59.7H84.7z"/>
<polygon class="sofa" fill="#FFFFFF" stroke="#88CCCD" stroke-miterlimit="10" points="33.8,59.7 30.3,59.7 30.3,73.4 36.3,73.4 "/>
<rect class="sofa" x="33.7" y="82.5" fill="#FFFFFF" stroke="#88CCCD" stroke-miterlimit="10" width="1.2" height="2.7"/>
<path class="sofa" fill="#FFFFFF" stroke="#88CCCD" stroke-miterlimit="10" d="M83.5,82.5v2.1c0.4-0.4,0.8-0.8,1.2-1.2v-0.8H83.5z"/>
<polygon class="sofa" fill="#FFFFFF" stroke="#88CCCD" stroke-miterlimit="10" points="35.9,71.1 35.9,71.1 40.8,70.8 38.1,57.8 33.3,57.8
	33.8,59.7 35.9,71.1 "/>
<polygon class="sofa" fill="#FFFFFF" stroke="#88CCCD" stroke-miterlimit="10" points="82.1,71.1 82.1,71.1 84.2,59.7 84.7,57.8 79.9,57.8
	77.2,70.8 "/>
<path id="sof1" fill="#FFFFFF" stroke="#88CCCD" stroke-miterlimit="10" d="M40.8,70.8l0.1,0.3h36l3-13.3H38.1L40.8,70.8L40.8,70.8z
	 M75.3,60.4c0.4,0,0.8,0.4,0.8,0.9c0,0.5-0.3,0.9-0.8,0.9c-0.4,0-0.8-0.4-0.8-0.9C74.6,60.8,74.9,60.4,75.3,60.4z M75.1,65.4
	c0.4,0,0.8,0.4,0.8,0.9c0,0.5-0.3,0.9-0.8,0.9s-0.8-0.4-0.8-0.9C74.4,65.8,74.7,65.4,75.1,65.4z M69.8,60.4c0.4,0,0.8,0.4,0.8,0.9
	c0,0.5-0.3,0.9-0.8,0.9c-0.4,0-0.8-0.4-0.8-0.9C69.1,60.8,69.4,60.4,69.8,60.4z M69.8,65.4c0.4,0,0.8,0.4,0.8,0.9
	c0,0.5-0.3,0.9-0.8,0.9c-0.4,0-0.8-0.4-0.8-0.9C69.1,65.8,69.4,65.4,69.8,65.4z M65.7,59.7V70V59.7z M61.9,60.4
	c0.4,0,0.8,0.4,0.8,0.9c0,0.5-0.3,0.9-0.8,0.9s-0.8-0.4-0.8-0.9C61.1,60.8,61.5,60.4,61.9,60.4z M61.9,65.4c0.4,0,0.8,0.4,0.8,0.9
	c0,0.5-0.3,0.9-0.8,0.9s-0.8-0.4-0.8-0.9C61.1,65.8,61.5,65.4,61.9,65.4z M56.1,60.8c0.4,0,0.8,0.4,0.8,0.9c0,0.5-0.3,0.9-0.8,0.9
	c-0.4,0-0.8-0.4-0.8-0.9C55.3,61.2,55.6,60.8,56.1,60.8z M56.1,65c0.4,0,0.8,0.4,0.8,0.9c0,0.5-0.3,0.9-0.8,0.9
	c-0.4,0-0.8-0.4-0.8-0.9C55.3,65.4,55.6,65,56.1,65z M41.2,63.3c0-1.6,1.3-2.9,2.9-2.9h2.7c1.6,0,2.9,1.3,2.9,2.9v2.5h2.4v-6.1v6.1
	h1.5c1.3,0,2.4,1.1,2.4,2.4c0,1.3-1.1,2.4-2.4,2.4h-5.3c-0.4,0-0.8-0.1-1.1-0.3c-0.1,0-0.3,0-0.4,0h-2.7c-1.6,0-2.9-1.3-2.9-2.9
	V63.3z"/>
<polygon class="sofa" fill="#FFFFFF" stroke="#88CCCD" stroke-miterlimit="10" points="40.9,70.8 38.1,57.8 40.8,70.8 "/>
<ellipse class="sofa" fill="#FFFFFF" stroke="#88CCCD" stroke-miterlimit="10" cx="56.1" cy="61.7" rx="0.8" ry="0.9"/>
<ellipse class="sofa" fill="#FFFFFF" stroke="#88CCCD" stroke-miterlimit="10" cx="56.1" cy="65.8" rx="0.8" ry="0.9"/>
<ellipse class="sofa" fill="#FFFFFF" stroke="#88CCCD" stroke-miterlimit="10" cx="61.9" cy="61.3" rx="0.8" ry="0.9"/>
<ellipse class="sofa" fill="#FFFFFF" stroke="#88CCCD" stroke-miterlimit="10" cx="61.9" cy="66.3" rx="0.8" ry="0.9"/>
<ellipse class="sofa" fill="#FFFFFF" stroke="#88CCCD" stroke-miterlimit="10" cx="69.8" cy="61.3" rx="0.8" ry="0.9"/>
<ellipse class="sofa" fill="#FFFFFF" stroke="#88CCCD" stroke-miterlimit="10" cx="69.8" cy="66.3" rx="0.8" ry="0.9"/>
<ellipse class="sofa" fill="#FFFFFF" stroke="#88CCCD" stroke-miterlimit="10" cx="75.3" cy="61.3" rx="0.8" ry="0.9"/>
<ellipse class="sofa" fill="#FFFFFF" stroke="#88CCCD" stroke-miterlimit="10" cx="75.1" cy="66.3" rx="0.8" ry="0.9"/>
<path id="pillow2" fill="#FFFFFF" stroke="#88CCCD" stroke-miterlimit="10" d="M44.1,70.4h2.7c0.1,0,0.3,0,0.4,0c-0.8-0.4-1.3-1.2-1.3-2.1
	c0-1.3,1.1-2.4,2.4-2.4h1.4v-2.5c0-1.6-1.3-2.9-2.9-2.9h-2.7c-1.6,0-2.9,1.3-2.9,2.9v4.1C41.2,69.1,42.5,70.4,44.1,70.4z"/>
<path id="pillow" fill="#FFFFFF" stroke="#88CCCD" stroke-miterlimit="10" d="M53.6,65.8h-1.5h-2.4h-1.4c-1.3,0-2.4,1.1-2.4,2.4
	c0,0.9,0.5,1.7,1.3,2.1c0.3,0.2,0.7,0.3,1.1,0.3h5.3c1.3,0,2.4-1.1,2.4-2.4C56.1,66.9,55,65.8,53.6,65.8z"/>
<polygon class="sofa1" fill="#FFFFFF" stroke="#88CCCD" stroke-miterlimit="10" points="82.1,71.1 76.9,71.1 40.9,71.1 40.9,71.1 35.9,71.1
	35.9,71.1 36.3,73.4 36.8,73.4 36.8,75.5 81.5,75.5 82.4,71.1 82.1,71.1 82.1,71.1 "/>
<rect class="sofa" x="79.7" y="73.3" transform="matrix(-0.1975 0.9803 -0.9803 -0.1975 170.0568 7.4279)" fill="#FFFFFF" stroke="#88CCCD" stroke-miterlimit="10" width="4.5" height="0"/>
<polygon class="sofa" fill="#FFFFFF" stroke="#88CCCD" stroke-miterlimit="10" points="35.9,71.1 35.9,71.1 35.9,71.1 "/>
<polygon class="sofa" fill="#FFFFFF" stroke="#88CCCD" stroke-miterlimit="10" points="82.1,71.1 82.1,71.1 82.1,71.1 "/>
<polygon class="sofa" fill="#FFFFFF" stroke="#88CCCD" stroke-miterlimit="10" points="76.9,71.1 40.9,71.1 40.9,71.1 "/>
<polygon class="sofa" fill="#FFFFFF" stroke="#88CCCD" stroke-miterlimit="10" points="36.7,75.5 36.3,73.4 36.3,73.4 36.8,76.1 36.8,75.5 "/>
<g>
	<polygon class="table" fill="#FFFFFF" stroke="#88CCCD" stroke-miterlimit="10" points="9.3,73.4 9.3,76.1 13.2,76.1 28.7,76.1 30.3,76.1
		32,76.1 36.8,76.1 36.3,73.4 30.3,73.4 	"/>
	<polygon fill="#FFFFFF" stroke="#88CCCD" stroke-miterlimit="10" points="36.8,75.5 36.8,73.4 36.3,73.4 36.7,75.5 	"/>
</g>
<circle id="rend" fill="none" cx="15.8" cy="57.4" r="11.4"/>
<rect class="lamp" x="11.2" y="53.2" fill="#FFFFFF" stroke="#88CCCD" stroke-miterlimit="10" width="5.4" height="8.1"/>
<rect class="lamp" x="16.6" y="53.2" fill="#FFFFFF" stroke="#88CCCD" stroke-miterlimit="10" width="5.4" height="8.1"/>
<polygon class="l1" fill="#FFFFFF" stroke="#88CCCD" stroke-miterlimit="10" points="13.2,70 13.2,73.3 20.5,73.3 20.5,70 17.8,70 14.8,70 "/>
<path class="l1" fill="#FFFFFF" stroke="#88CCCD" stroke-miterlimit="10" d="M13.2,65.8c-0.1,2.4,1.6,2.4,1.6,2.4V70h3l0.1-1.8
	c0,0,2.2,0.4,2.2-2.4c0-3.3-3.5-2.8-3.5-2.8S13.3,62.8,13.2,65.8z"/>
</svg>
