<?xml version="1.0" encoding="utf-8"?>
<!-- Generator: Adobe Illustrator 18.1.1, SVG Export Plug-In . SVG Version: 6.00 Build 0)  -->
<svg xmlns="http://www.w3.org/2000/svg" xmlns:xlink="http://www.w3.org/1999/xlink" x="0px" y="0px"
	 viewBox="0 0 100 100" enable-background="new 0 0 100 100" xml:space="preserve">
      <style type="text/css">

          svg path, svg rect, svg polygon, svg ellipse {
          transition: all 1s ease;
          }

		  svg #wall  {
		  fill: url(#testbed4);
		  opacity: 0;
		  }

		  svg:hover #wall {
		  opacity: 1;
		  }

		  svg:hover #a1, svg:hover #a3  {
		  fill: #d4be9e;
		  }

		  svg:hover #a2 {
		  fill: yellow;
		  }
		  svg:hover #a4 {
		  fill: orange;
		  }
		  svg:hover #pict1, svg:hover #pict2 {
		  fill: #88CCCD;
		  }
		   svg:hover #min {
		  fill: yellow;
		  }

		  <!--svg:hover #shelf1 path, svg:hover #shelf1 rect, svg:hover #shelf1 polygon {-->

		  <!--}-->

  </style>
	<linearGradient id="pict">
 <stop stop-color="#795a92" offset="0.0" />
 <stop stop-color="#b1d49e" offset="1" />
</linearGradient>
<linearGradient id="testbed4">
 <stop stop-color="#b49191" offset="0.0" />
 <stop stop-color="#b49191" offset="0.1" />
 <stop stop-color="#d4be9e" offset="0.1" />
 <stop stop-color="#d4be9e" offset="0.2" />
 <stop stop-color="#b49191" offset="0.2" />
 <stop stop-color="#b49191" offset="0.3" />
 <stop stop-color="#d4be9e" offset="0.3" />
 <stop stop-color="#d4be9e" offset="0.4" />
 <stop stop-color="#b49191" offset="0.4" />
	 <stop stop-color="#b49191" offset="0.5" />
 <stop stop-color="#d4be9e" offset="0.5" />
	 <stop stop-color="#d4be9e" offset="0.6" />
 <stop stop-color="#b49191" offset="0.6" />
	 <stop stop-color="#b49191" offset="0.7" />
 <stop stop-color="#d4be9e" offset="0.7" />
	 <stop stop-color="#d4be9e" offset="0.8" />
 <stop stop-color="#b49191" offset="0.8" />
	 <stop stop-color="#b49191" offset="0.9" />
 <stop stop-color="#d4be9e" offset="0.9" />
	 <stop stop-color="#d4be9e" offset="1" />
</linearGradient>
<g id="all">
	<path id="a1" fill="#FFF" stroke="#88CCCD" stroke-miterlimit="10" d="M28.7,76.6H13.1l-0.9,4.5c1.5,1.8,3.1,3.6,4.9,5.2h12L28.7,76.6z"/>
	<path id="wall" fill="#FFF" stroke="#88CCCD" stroke-miterlimit="10" d="M13.1,76.6H9.1v-2.7h21.2V60.1h3.6l-0.5-2h4.9h42.2h4.9l-0.5,2
		l-2.1,11.5H83l2.3-11.5h2.6V81C94.9,72.6,99,61.8,99,50c0-10.6-3.4-20.4-9.1-28.4v1.4H43.1v-2h13.5v-9.1h2.2V10h3v2.8h2.1v8.1h12.2
		v-2.5h0.7v-1.6h8.5v1.6h1v2.5h3.1c-1.2-1.6-2.5-3.1-3.8-4.6h-8.8v-2h6.8C74.9,6.1,63,1,50,1C22.9,1,1,22.9,1,50
		c0,11.8,4.2,22.6,11.1,31.1L13.1,76.6z M64.8,9.1l5.8,10.6l-1.8,1L63,10.1L64.8,9.1z M54.3,25.8l2.3,9.1l-2,0.5l-2.3-9.1L54.3,25.8
		z M43.1,36v-7.5h2.5v-1.8h2.2v1.8H50v-1.8h1.7V36h24.4v-5.9h4.2v-4.3h8.6V36h1v2H43.1V36z M15.3,16.3h15v20.7h-15V16.3z M11.1,53.4
		h5.4h5.4v8.2h-5.4v1.7c0,0,3.5-0.5,3.5,2.9c0,2.8-2.2,2.4-2.2,2.4l-0.1,1.8h2.7v3.3h-7.4v-3.3h1.6v-1.8c0,0-1.7,0-1.6-2.4
		c0.1-3.1,3.4-2.9,3.4-2.9v-1.7h-5.4V53.4z"/>
	<polygon id="a2" fill="#FFF" stroke="#88CCCD" stroke-miterlimit="10" points="40.9,71.2 36,71.6 41,71.6 	"/>
	<path id="a3" fill="#FFF" stroke="#88CCCD" stroke-miterlimit="10" d="M84.1,83.1H35v2.8h-1.2v-2.8h-1.3l0.2,3.2H83
		c0.4-0.4,0.8-0.7,1.1-1.1V83.1z"/>
	<polygon id="a4" fill="#FFF" stroke="#88CCCD" stroke-miterlimit="10" points="82.7,71.6 77.7,71.2 80.5,58.1 77.4,71.6 	"/>
	<polygon fill="#FFF" stroke="#88CCCD" stroke-miterlimit="10" points="36.4,73.9 36,71.6 33.9,60.1 36.4,73.9 	"/>
	<path fill="#FFF" stroke="#88CCCD" stroke-miterlimit="10" d="M85.3,83.9c0.3-0.3,0.5-0.6,0.8-0.9h-0.8V83.9z"/>
	<polygon fill="#FFF" stroke="#88CCCD" stroke-miterlimit="10" points="82.1,76 36.9,76 36.9,76.6 82,76.6 	"/>
	<path id="floor" fill="#FFF" stroke="#88CCCD" stroke-miterlimit="10" d="M29.1,86.3H17C25.7,94.2,37.3,99,50,99s24.3-4.8,33-12.7
		H32.8H29.1z"/>
	<path fill="none" stroke="#88CCCD" stroke-miterlimit="10" d="M17.6,37.5c0,0-2.7-12.9-1-16.8c0.5-1.1,2.6-2.6,3.7-3
	c1.4-0.5,4.6-0.5,6,0c1,0.3,2.8,1.6,3.3,2.5c1.8,3.8,0,16.8,0,16.8L17.6,37.5z"/>
<line fill="none" stroke="#88CCCD" stroke-miterlimit="10" x1="20.8" y1="19.8" x2="20.3" y2="18.9"/>
<line fill="none" stroke="#88CCCD" stroke-miterlimit="10" x1="22.6" y1="19.3" x2="23.1" y2="18.1"/>
<line fill="none" stroke="#88CCCD" stroke-miterlimit="10" x1="25.6" y1="19.3" x2="26.8" y2="18.7"/>
<circle fill="#FFFFFF" stroke="#88CCCD" stroke-miterlimit="10" cx="19.9" cy="28" r="3.3"/>
<circle fill="#FFFFFF" stroke="#88CCCD" stroke-miterlimit="10" cx="26.4" cy="27.7" r="3.3"/>
<circle fill="#88CCCD" cx="19.6" cy="28" r="0.7"/>
<circle fill="#88CCCD" cx="26.4" cy="27.7" r="0.7"/>
<path fill="#FFFFFF" stroke="#88CCCD" stroke-miterlimit="10" d="M20.9,34.8c0.8,0,3.3-0.3,3.6-0.1c0,0.3,0.1,1.8-1.6,1.8
	C21.3,36.6,20.5,34.8,20.9,34.8z"/>

	<g id="shelf1">
		<path fill="#FFF" stroke="#88CCCD" stroke-miterlimit="10" d="M86.3,20.9H76.1H63.9h-2.1h-3h-2.2H43.1v2h46.8v-1.4
			c-0.1-0.2-0.3-0.4-0.4-0.6H86.3z"/>
		<rect id="sh1" x="56.6" y="11.8" fill="none" stroke="#88CCCD" stroke-miterlimit="10" width="2.2" height="9.1"/>
		<polygon fill="#FFF" stroke="#88CCCD" stroke-miterlimit="10" points="61.8,20.9 61.8,12.8 61.8,10 58.9,10 58.9,11.8 58.9,20.9
					"/>
		<rect id="sh2" x="61.8" y="12.8" fill="#FFF" stroke="#88CCCD" stroke-miterlimit="10" width="2.1" height="8.1">

</rect>
		<polygon fill="none" stroke="#88CCCD" stroke-miterlimit="10" points="86.3,18.5 85.3,18.5 76.8,18.5 76.1,18.5 76.1,20.9
			86.3,20.9 		"/>
		<rect x="76.8" y="16.9" fill="none" stroke="#88CCCD" stroke-miterlimit="10" width="8.5" height="1.6"/>
		<path fill="none" stroke="#88CCCD" stroke-miterlimit="10" d="M83.7,14.4h-6.8v2h8.8C85,15.7,84.3,15.1,83.7,14.4z"/>

			<rect x="60.8" y="13.9" transform="matrix(0.4848 0.8746 -0.8746 0.4848 47.4599 -50.7468)" fill="none" stroke="#88CCCD" stroke-miterlimit="10" width="12.1" height="2.1"/>
	</g>
	<g id="shelf2">
		<polygon fill="none" stroke="#88CCCD" stroke-miterlimit="10" points="89.9,36 88.9,36 82.6,36 80.3,36 76.1,36 51.7,36 50,36
			47.8,36 45.6,36 43.1,36 43.1,37.9 89.9,37.9 		"/>
		<rect x="43.1" y="28.5" fill="none" stroke="#88CCCD" stroke-miterlimit="10" width="2.5" height="7.5"/>
		<polygon fill="none" stroke="#88CCCD" stroke-miterlimit="10" points="47.8,36 47.8,28.5 47.8,26.6 45.6,26.6 45.6,28.5 45.6,36
					"/>
		<rect x="47.8" y="28.5" fill="none" stroke="#88CCCD" stroke-miterlimit="10" width="2.2" height="7.5"/>
		<polygon fill="none" stroke="#88CCCD" stroke-miterlimit="10" points="51.7,36 51.7,26.6 50,26.6 50,28.5 50,36 		"/>

			<rect x="49.7" y="29.5" transform="matrix(0.2419 0.9703 -0.9703 0.2419 70.8789 -29.5814)" fill="none" stroke="#88CCCD" stroke-miterlimit="10" width="9.4" height="2.1"/>
		<polygon fill="none" stroke="#88CCCD" stroke-miterlimit="10" points="82.6,36 88.9,36 88.9,25.8 80.3,25.8 80.3,30.1 82.6,30.1
					"/>
		<polygon fill="none" stroke="#88CCCD" stroke-miterlimit="10" points="80.3,30.1 76.1,30.1 76.1,36 80.3,36 82.6,36 82.6,30.1
			"/>
	</g>
	<polygon fill="none" stroke="#88CCCD" stroke-miterlimit="10" points="41,71.2 38.2,58.1 40.9,71.2 	"/>
	<ellipse fill="none" stroke="#88CCCD" stroke-miterlimit="10" cx="56.4" cy="62.1" rx="0.8" ry="0.9"/>
	<ellipse fill="none" stroke="#88CCCD" stroke-miterlimit="10" cx="56.4" cy="66.3" rx="0.8" ry="0.9"/>
	<ellipse fill="none" stroke="#88CCCD" stroke-miterlimit="10" cx="62.3" cy="61.6" rx="0.8" ry="0.9"/>
	<ellipse fill="none" stroke="#88CCCD" stroke-miterlimit="10" cx="62.3" cy="66.7" rx="0.8" ry="0.9"/>
	<ellipse fill="none" stroke="#88CCCD" stroke-miterlimit="10" cx="70.3" cy="61.6" rx="0.8" ry="0.9"/>
	<ellipse fill="none" stroke="#88CCCD" stroke-miterlimit="10" cx="70.3" cy="66.7" rx="0.8" ry="0.9"/>
	<ellipse fill="none" stroke="#88CCCD" stroke-miterlimit="10" cx="75.9" cy="61.6" rx="0.8" ry="0.9"/>
	<ellipse fill="none" stroke="#88CCCD" stroke-miterlimit="10" cx="75.6" cy="66.7" rx="0.8" ry="0.9"/>
	<polygon fill="none" stroke="#88CCCD" stroke-miterlimit="10" points="82.7,71.6 77.4,71.6 41,71.6 41,71.6 36,71.6 36,71.6
		36.4,73.9 36.9,73.9 36.9,76 82.1,76 83,71.6 82.7,71.6 82.7,71.6 	"/>

		<rect x="80.3" y="73.8" transform="matrix(-0.1975 0.9803 -0.9803 -0.1975 171.2374 7.4474)" fill="none" stroke="#88CCCD" stroke-miterlimit="10" width="4.5" height="0"/>
	<polygon fill="none" stroke="#88CCCD" stroke-miterlimit="10" points="36,71.6 36,71.6 36,71.6 	"/>
	<polygon fill="none" stroke="#88CCCD" stroke-miterlimit="10" points="82.7,71.6 82.7,71.6 82.7,71.6 	"/>
	<g>
		<path fill="none" stroke="#88CCCD" stroke-miterlimit="10" d="M85.3,60.1L83,71.6L82.1,76L82,76.6H36.9H32h-1.7v4.8l1.6,1.6h0.6
			h1.3H35h49.1h1.2h0.8c0.6-0.7,1.2-1.4,1.8-2.1V60.1H85.3z"/>
		<polygon fill="none" stroke="#88CCCD" stroke-miterlimit="10" points="33.9,60.1 30.3,60.1 30.3,73.9 36.4,73.9 		"/>
		<rect x="33.8" y="83.1" fill="none" stroke="#88CCCD" stroke-miterlimit="10" width="1.2" height="2.8"/>
		<path fill="none" stroke="#88CCCD" stroke-miterlimit="10" d="M84.1,83.1v2.1c0.4-0.4,0.8-0.8,1.2-1.2v-0.9H84.1z"/>
		<polygon fill="none" stroke="#88CCCD" stroke-miterlimit="10" points="36,71.6 36,71.6 40.9,71.2 38.2,58.1 33.4,58.1 33.9,60.1
			36,71.6 		"/>
		<polygon fill="none" stroke="#88CCCD" stroke-miterlimit="10" points="82.7,71.6 82.7,71.6 84.8,60.1 85.3,58.1 80.5,58.1
			77.7,71.2 		"/>
		<path fill="none" stroke="#88CCCD" stroke-miterlimit="10" d="M40.9,71.2l0.1,0.3h36.4l3.1-13.5H38.2L40.9,71.2L40.9,71.2z
			 M75.9,60.8c0.4,0,0.8,0.4,0.8,0.9c0,0.5-0.3,0.9-0.8,0.9c-0.4,0-0.8-0.4-0.8-0.9C75.1,61.2,75.4,60.8,75.9,60.8z M75.6,65.8
			c0.4,0,0.8,0.4,0.8,0.9c0,0.5-0.3,0.9-0.8,0.9c-0.4,0-0.8-0.4-0.8-0.9C74.9,66.2,75.2,65.8,75.6,65.8z M70.3,60.8
			c0.4,0,0.8,0.4,0.8,0.9c0,0.5-0.3,0.9-0.8,0.9c-0.4,0-0.8-0.4-0.8-0.9C69.5,61.2,69.9,60.8,70.3,60.8z M70.3,65.8
			c0.4,0,0.8,0.4,0.8,0.9c0,0.5-0.3,0.9-0.8,0.9c-0.4,0-0.8-0.4-0.8-0.9C69.5,66.2,69.9,65.8,70.3,65.8z M66.1,60.1v10.4V60.1z
			 M62.3,60.8c0.4,0,0.8,0.4,0.8,0.9c0,0.5-0.3,0.9-0.8,0.9c-0.4,0-0.8-0.4-0.8-0.9C61.5,61.2,61.9,60.8,62.3,60.8z M62.3,65.8
			c0.4,0,0.8,0.4,0.8,0.9c0,0.5-0.3,0.9-0.8,0.9c-0.4,0-0.8-0.4-0.8-0.9C61.5,66.2,61.9,65.8,62.3,65.8z M56.4,61.2
			c0.4,0,0.8,0.4,0.8,0.9c0,0.5-0.3,0.9-0.8,0.9s-0.8-0.4-0.8-0.9C55.6,61.6,55.9,61.2,56.4,61.2z M56.4,65.4c0.4,0,0.8,0.4,0.8,0.9
			c0,0.5-0.3,0.9-0.8,0.9s-0.8-0.4-0.8-0.9C55.6,65.8,55.9,65.4,56.4,65.4z M41.3,63.7c0-1.6,1.3-3,3-3H47c1.6,0,3,1.3,3,3v2.5h2.4
			v-6.2v6.2h1.5c1.3,0,2.4,1.1,2.4,2.4c0,1.3-1.1,2.4-2.4,2.4h-5.4c-0.4,0-0.8-0.1-1.1-0.3c-0.1,0-0.3,0-0.4,0h-2.8
			c-1.6,0-3-1.3-3-3V63.7z"/>
		<path fill="#FFFFFF" stroke="#88CCCD" stroke-miterlimit="10" d="M44.3,70.9H47c0.1,0,0.3,0,0.4,0c-0.8-0.4-1.3-1.2-1.3-2.1
			c0-1.3,1.1-2.4,2.4-2.4H50v-2.5c0-1.6-1.3-3-3-3h-2.8c-1.6,0-3,1.3-3,3v4.2C41.3,69.5,42.6,70.9,44.3,70.9z"/>
		<path fill="#FFFFFF" stroke="#88CCCD" stroke-miterlimit="10" d="M53.9,66.3h-1.5H50h-1.4c-1.3,0-2.4,1.1-2.4,2.4
			c0,0.9,0.5,1.7,1.3,2.1c0.3,0.2,0.7,0.3,1.1,0.3h5.4c1.3,0,2.4-1.1,2.4-2.4C56.4,67.3,55.3,66.3,53.9,66.3z"/>
		<polygon fill="none" stroke="#88CCCD" stroke-miterlimit="10" points="77.4,71.6 41,71.6 41,71.6 		"/>
	</g>
	<polygon fill="#FFFFFF" stroke="#88CCCD" stroke-miterlimit="10" points="36.8,76 36.4,73.9 36.4,73.9 36.9,76.6 36.9,76 	"/>
	<polygon id="table" fill="#FFFFFF" stroke="#88CCCD" stroke-miterlimit="10" points="36.4,73.9 30.3,73.9 9.1,73.9 9.1,76.6
		13.1,76.6 28.7,76.6 30.3,76.6 32,76.6 36.9,76.6 	"/>
	<polygon fill="#FFFFFF" stroke="#88CCCD" stroke-miterlimit="10" points="36.9,76 36.9,73.9 36.4,73.9 36.8,76 	"/>
	<g id="lamp">
		<rect x="11.1" y="53.4" fill="#FFFFFF" stroke="#88CCCD" stroke-miterlimit="10" width="5.4" height="8.2"/>
		<rect x="16.5" y="53.4" fill="#FFFFFF" stroke="#88CCCD" stroke-miterlimit="10" width="5.4" height="8.2"/>
		<polygon fill="#FFFFFF" stroke="#88CCCD" stroke-miterlimit="10" points="13.1,70.5 13.1,73.8 20.5,73.8 20.5,70.5 17.7,70.5
			14.7,70.5 		"/>
		<path fill="#FFFFFF" stroke="#88CCCD" stroke-miterlimit="10" d="M13.1,66.3c-0.1,2.4,1.6,2.4,1.6,2.4v1.8h3l0.1-1.8
			c0,0,2.2,0.4,2.2-2.4c0-3.3-3.5-2.9-3.5-2.9S13.2,63.1,13.1,66.3z"/>
	</g>
</g>
    <script>
<![CDATA[
var x = document.querySelector('#all');
x.onmouseover = function() {
var wall = document.querySelector('#wall');




<!--wall.classList.add('animation');-->

}
    ]]>



    </script>
</svg>
