<?xml version="1.0" encoding="utf-8"?>
<!-- Generator: Adobe Illustrator 18.1.1, SVG Export Plug-In . SVG Version: 6.00 Build 0)  -->
<svg version="1.1" id="Слой_1" xmlns="http://www.w3.org/2000/svg" xmlns:xlink="http://www.w3.org/1999/xlink" x="0px" y="0px"
	 viewBox="0 0 100 100" enable-background="new 0 0 100 100" xml:space="preserve">
    <style>
		 svg path, svg rect, svg polygon, svg ellipse {
          transition: all 1s ease;
          }
        svg:hover #wall {
         fill: #cdb079;
        }
         svg:hover #tree path {
         fill: green;
        }
        svg:hover #window path, svg:hover #d1 {
         fill: #f2daad;
        }
        svg:hover #d2, svg:hover #gorshok path {
         fill: #91603c;
        }
        svg:hover .w1 {
         fill: #b0f0fe;
        }
         svg:hover #stair .big {
         fill: #c15871;
        }
         svg:hover #stair .small {
         fill: #7f3345;
        }




    </style>
<path fill="none" stroke="#79CDCB" stroke-miterlimit="10" d="M0.8,50c0,1.3,0.1,2.5,0.2,3.7v-7.4C0.9,47.5,0.8,48.7,0.8,50z"/>
<path fill="none" stroke="#79CDCB" stroke-miterlimit="10" d="M40.1,98c3.2,0.6,6.4,1,9.8,1s6.6-0.3,9.8-1H40.1z"/>
<path id="wall" fill="#FFF" stroke="#79CDCB" stroke-miterlimit="10" d="M15.5,81.7l1.4,0l5.7,0l0,0h54.2l0,0l-55.4-0.4c0,0,0,0,0-0.1l2.3-2.2
	c0,0,0,0,0,0l52.3,0c0,0,0,0,0,0l2,2.4l5.2,0l1.3,0l3,0c7.1-8.5,11.3-19.4,11.3-31.3c0-7.3-1.6-14.3-4.5-20.5v10.2h-16l0.4-21.8
	c0,0,0-3.5,2.3-5.7C72.6,5.2,61.7,1,49.8,1c-11.7,0-22.5,4.1-31,11c2.5,2,3,5.2,3,5.2v22.5h-16L6.1,28C3.3,33.6,1.5,39.7,1,46.3v7.4
	c0.8,10.6,5,20.3,11.5,28l1.7,0l0.6,0L15.5,81.7z M15.5,67.5 M29.9,20.8c0,0,2.4-17.9,20-17.9c17,0,20,17.6,20,17.6V63h-3.6H33.8h-4
	V20.8z M29.7,63.1C29.7,63,29.7,63,29.7,63.1l40.7,0c0,0,0,0,0,0l1.8,2.1c0,0,0,0,0,0l-44.2-0.3c0,0,0,0,0,0L29.7,63.1z M27.8,65.2
	h44.4v4.7H27.8V65.2z M26.8,70.5C26.8,70.5,26.8,70.5,26.8,70.5l46.5,0c0,0,0,0,0,0l2,2.4c0,0,0,0.1,0,0.1l-50.6-0.4c0,0,0,0,0-0.1
	L26.8,70.5z M24.6,72.9h50.7v5.4H24.6V72.9z"/>
<g id="door">
	<path id="d1" fill="#FFF" stroke="#79CDCB" stroke-miterlimit="10" d="M33.8,23.5c0,0,2-14.5,16.2-14.5c13.7,0,16.2,14.2,16.2,14.2V63h3.6
		V20.5c0,0-3-17.6-20-17.6c-17.6,0-20,17.9-20,17.9V63h4V23.5z"/>
	<path id="d2" fill="#FFF" stroke="#79CDCB" stroke-miterlimit="10" d="M50,9.1c-14.2,0-16.2,14.5-16.2,14.5V63h32.3V23.3
		C66.2,23.3,63.7,9.1,50,9.1z M44.1,36.1h4.3H44.1z M50,62.3V9.9V62.3z M51.7,36.1H56H51.7z"/>
</g>
<path fill="none" stroke="#79CDCB" stroke-miterlimit="10" d="M13.9,19.6v-2.9c-0.5,0.5-1,1.1-1.4,1.6L13.9,19.6z"/>
<path class="w1" fill="#FFF" stroke="#79CDCB" stroke-miterlimit="10" d="M20.2,37.5V18c0,0-0.5-3-3-4.6c-1.2,1.1-2.3,2.2-3.4,3.3v2.9l4.3-4.5
	l-4.3,4.5v0.6h5.5h-5.5v5.9h5.5h-5.5v5.6h5.5h-5.5v5.1v-5.1H8.3h5.5v-5.6H8.3h5.5v-5.9h-2.9c-1.2,1.5-2.3,3.1-3.2,4.8L7.5,37.5H20.2
	z"/>
<path class="w1" fill="#FFF" stroke="#79CDCB" stroke-miterlimit="10" d="M10.9,20.2h2.9v-0.6l-1.4-1.2C11.9,19,11.4,19.6,10.9,20.2z"/>
<g id="window">
	<path fill="#FFF" stroke="#79CDCB" stroke-miterlimit="10" d="M20.2,18v19.5H7.5L7.7,25c-0.6,1-1.1,2-1.6,3L5.9,39.7h16V17.2
		c0,0-0.5-3.2-3-5.2c-0.6,0.5-1.1,0.9-1.6,1.4C19.8,15,20.2,18,20.2,18z"/>
	<path fill="#FFF" stroke="#79CDCB" stroke-miterlimit="10" d="M78.4,39.7h16V29.5c-0.5-1.1-1-2.2-1.6-3.2v11.2H80l0.3-18.9
		c0,0,0-3.2,2.4-5c-0.5-0.5-1.1-0.9-1.6-1.4c-2.3,2.3-2.3,5.7-2.3,5.7L78.4,39.7z"/>
</g>
<path fill="#FFF" stroke="#79CDCB" stroke-miterlimit="10" d="M87.4,18.5c-0.3-0.4-0.7-0.8-1.1-1.2v2.3L87.4,18.5z"/>
<path class="w1" fill="#FFF" stroke="#79CDCB" stroke-miterlimit="10" d="M86.3,20.2h2.4c-0.4-0.6-0.9-1.1-1.4-1.7l-1.1,1.1V20.2z"/>
<path class="w1" fill="#FFF" stroke="#79CDCB" stroke-miterlimit="10" d="M86.3,20.2v5.9h5.5h-5.5v5.6h5.5h-5.5v5.1v-5.1h-5.5h5.5v-5.6h-5.5
	h5.5V20.2h-5.5H86.3v-0.6l-4.4-3.9l4.4,3.9v-2.3c-1.2-1.3-2.4-2.6-3.7-3.7c-2.4,1.7-2.4,5-2.4,5L80,37.5h12.7V26.3
	c-1.2-2.1-2.5-4.1-4-6H86.3z"/>
<g id="gorshok">
	<path fill="#FFFFFF" stroke="#79CDCB" stroke-miterlimit="10" d="M12.5,81.7c2.3,2.7,4.8,5.1,7.6,7.2c0.4,0.3,0.7,0.5,1.1,0.8
		l0.3-1.5l0.1-0.5l1-6l0,0L12.5,81.7z"/>
	<path fill="#FFFFFF" stroke="#79CDCB" stroke-miterlimit="10" d="M83.9,81.3l-5.8,0l-1.3,0l0,0.4l0,0l0.7,6l0.1,0.5l0.2,2
		c0.6-0.4,1.1-0.8,1.7-1.2c2.9-2.2,5.6-4.8,8-7.6L83.9,81.3z"/>
</g>
<g id="stair">
	<path class="big" fill="#FFF" stroke="#79CDCB" stroke-miterlimit="10" d="M23.5,91.3c5,3.2,10.5,5.5,16.5,6.7h19.6c6-1.2,11.6-3.5,16.5-6.7
		H23.5z"/>
	<path class="small" fill="#FFFFFF" stroke="#79CDCB" stroke-miterlimit="10" d="M21.2,89.8c0.5,0.4,1.1,0.8,1.6,1.1l53.4,0.4
		c0.5-0.4,1.1-0.7,1.6-1.1l-0.2-2l-56.2,0L21.2,89.8z"/>
	<polygon class="big" fill="#FFFFFF" stroke="#79CDCB" stroke-miterlimit="10" points="77.5,87.7 76.8,81.7 22.6,81.7 21.5,87.7 	"/>
	<path class="small" fill="#FFFFFF" stroke="#79CDCB" stroke-miterlimit="10" d="M78,81.3l-2-2.4c0,0,0,0,0,0l-52.3,0c0,0,0,0,0,0l-2.3,2.2
		c0,0,0,0.1,0,0.1l55.4,0.4l0-0.4L78,81.3z"/>
	<rect class="big" x="24.6" y="72.9" fill="#FFFFFF" stroke="#79CDCB" stroke-miterlimit="10" width="50.7" height="5.4"/>
	<path class="small" fill="#FFFFFF" stroke="#79CDCB" stroke-miterlimit="10" d="M75.3,72.9C75.3,72.9,75.3,72.9,75.3,72.9l-2-2.5c0,0,0,0,0,0
		l-46.5,0c0,0,0,0,0,0l-2.1,2c0,0,0,0.1,0,0.1L75.3,72.9z"/>
	<rect class="big" x="27.8" y="65.2" fill="#FFFFFF" stroke="#79CDCB" stroke-miterlimit="10" width="44.4" height="4.7"/>
	<path class="small" fill="#FFFFFF" stroke="#79CDCB" stroke-miterlimit="10" d="M72.1,65.2C72.2,65.2,72.2,65.2,72.1,65.2L70.4,63c0,0,0,0,0,0
		l-40.7,0c0,0,0,0,0,0l-1.8,1.7c0,0,0,0,0,0L72.1,65.2z"/>
</g>
<g id="tree">
	<path fill="#FFF" stroke="#79CDCB" stroke-miterlimit="10" d="M21.9,67.5c3.7-3.4,1.3-5.9,1.3-5.9s2.1-2.5,0.6-5.3
		c-1.4-2.7-3.6-2.2-3.6-2.2s1.6-2.7-2-4.9c-4.3-2.6-6.3,2.5-6.3,2.5s-1.7-1.7-3.6,0.5c-2.3,2.7,0,5.3,0,5.3s-5.4,4.9-1.7,9.2
		c2.8,3.2,8.8,0.9,8.8,0.9S18.1,70.9,21.9,67.5z"/>
	<path fill="#FFF" stroke="#79CDCB" stroke-miterlimit="10" d="M89.8,65.2c1.7-1.1,1.7-3.9,1.7-3.9s3.7-2.5,2.2-5.3
		c-1.4-2.7-3.8-3.3-3.8-3.3s0.5-4.4-3.7-5.3c-4.5-1.1-6,4-6,4s-1.7-1.7-3.6,0.5c-2.3,2.7,0,5.3,0,5.3s-2.9,1.7,0.8,5.9
		c2.8,3.2,6.3,2.2,6.3,2.2S86.7,67.3,89.8,65.2z"/>
</g>
<g id="tree1">
	<path fill="none" stroke="#79CDCB" stroke-miterlimit="10" d="M83.9,81.3"/>
	<line fill="#FFFFFF" stroke="#79CDCB" stroke-miterlimit="10" x1="15.5" y1="67.5" x2="15.5" y2="81.4"/>
</g>
<g id="tree1_1_">
	<path fill="none" stroke="#79CDCB" stroke-miterlimit="10" d="M152.3,81.3"/>
	<line fill="#FFFFFF" stroke="#79CDCB" stroke-miterlimit="10" x1="83.9" y1="65.2" x2="83.9" y2="81.4"/>
</g>
</svg>
