<?xml version="1.0" encoding="utf-8"?>
<!-- Generator: Adobe Illustrator 22.0.1, SVG Export Plug-In . SVG Version: 6.00 Build 0)  -->
<svg version="1.1" id="Слой_1" xmlns="http://www.w3.org/2000/svg" xmlns:xlink="http://www.w3.org/1999/xlink" x="0px" y="0px"
	 viewBox="0 0 50 50" style="enable-background:new 0 0 50 50;" xml:space="preserve">
<style type="text/css">
	.st0{fill:#6B513C;}
</style>
<path class="st0" d="M21,20l4.2-8.4c0.5-0.9,0.2-2.1-0.6-2.7l-5.9-4.4C18.2,4.2,17.7,4,17.2,4h-1.6c-0.4,0-0.7-0.1-1-0.4l-0.1-0.1
	c-0.3-0.3-0.3-0.7,0-1l0.1-0.1C14.9,2.1,15.2,2,15.5,2h7c1.6,0,3.2,0.5,4.6,1.3L39,11l1,1l1.6,4c0.3,0.7,0.8,1.2,1.4,1.4l4,1.6l-9,9
	l-0.6-2.3c-0.2-0.9-1.2-1.4-2.1-1.1L28,27L21,20z"/>
<path class="st0" d="M5.5,45.6L5.5,45.6c0.9,0.2,1.9,0,2.5-0.7L26,27l-5-5c0,0-20,17-20,19S3.9,45.2,5.5,45.6z"/>
<path class="st0" d="M39,29l1.6,1.6c0.7,0.7,2,0.7,2.7-0.1l6.5-7.2c0.7-0.7-1.1-2.6-1.8-3.3l0,0L39,29z"/>
</svg>
