<?xml version="1.0" encoding="utf-8"?>
<!-- Generator: Adobe Illustrator 22.0.1, SVG Export Plug-In . SVG Version: 6.00 Build 0)  -->
<svg version="1.1" id="Слой_1" xmlns="http://www.w3.org/2000/svg" xmlns:xlink="http://www.w3.org/1999/xlink" x="0px" y="0px"
	 viewBox="0 0 50 50" style="enable-background:new 0 0 50 50;" xml:space="preserve">
<style type="text/css">
	.st0{fill:#6B513C;}
</style>
<path class="st0" d="M38.2,36.6c2.3-1.2,3.5,0,3.5,0l7,7c0,0,3.5-5.8-1.2-10.5s-10.5-2.3-10.5-2.3l-5.7-5.7l-4.6-4.6l-1.9-1.9l0,0
	l-6.1-5.8c0,0,2.2-5.9-2.5-10.5c-4.8-4.6-10.5-1-10.5-1l7.2,8c0,0,1.2,2.3-1.1,3.5C9.5,14.1,8.3,13,8.3,13L1.2,6.1
	c0,0-3.4,5.9,1.4,10.5c4.8,4.6,10.6,2.1,10.6,2.1l7.9,7.6l10.2,10.2c0,0-2.3,5.8,2.3,10.5s10.5,1.2,10.5,1.2l-7-8.2
	C37.1,40.1,35.9,37.7,38.2,36.6z"/>
</svg>
