<?xml version="1.0" encoding="UTF-8" standalone="no"?>
<!-- Created with Inkscape (http://www.inkscape.org/) -->

<svg
   xmlns:dc="http://purl.org/dc/elements/1.1/"
   xmlns:cc="http://creativecommons.org/ns#"
   xmlns:rdf="http://www.w3.org/1999/02/22-rdf-syntax-ns#"
   xmlns:svg="http://www.w3.org/2000/svg"
   xmlns="http://www.w3.org/2000/svg"
   xmlns:xlink="http://www.w3.org/1999/xlink"
   xmlns:sodipodi="http://sodipodi.sourceforge.net/DTD/sodipodi-0.dtd"
   xmlns:inkscape="http://www.inkscape.org/namespaces/inkscape"
   width="500"
   height="300"
   viewBox="0 0 500.00001 300"
   id="svg2"
   version="1.1"
   inkscape:version="0.91 r13725"
   sodipodi:docname="lady.svg">
  <defs
     id="defs4">
    <linearGradient
       inkscape:collect="always"
       id="linearGradient4643">
      <stop
         style="stop-color:#ffffff;stop-opacity:1"
         offset="0"
         id="stop4645" />
      <stop
         style="stop-color:#fff2a5;stop-opacity:0;"
         offset="1"
         id="stop4647" />
    </linearGradient>
    <linearGradient
       inkscape:collect="always"
       id="linearGradient4486">
      <stop
         style="stop-color:#fff5bf;stop-opacity:1"
         offset="0"
         id="stop4488" />
      <stop
         style="stop-color:#ac7d3d;stop-opacity:1"
         offset="1"
         id="stop4490" />
    </linearGradient>
    <linearGradient
       inkscape:collect="always"
       id="linearGradient4302">
      <stop
         style="stop-color:#705a31;stop-opacity:1;"
         offset="0"
         id="stop4304" />
      <stop
         style="stop-color:#d7ad5f;stop-opacity:1"
         offset="1"
         id="stop4306" />
    </linearGradient>
    <linearGradient
       inkscape:collect="always"
       id="linearGradient4294">
      <stop
         style="stop-color:#e9b268;stop-opacity:1;"
         offset="0"
         id="stop4296" />
      <stop
         style="stop-color:#e9b268;stop-opacity:0;"
         offset="1"
         id="stop4298" />
    </linearGradient>
    <linearGradient
       inkscape:collect="always"
       id="linearGradient4239">
      <stop
         style="stop-color:#bbbd2c;stop-opacity:1;"
         offset="0"
         id="stop4241" />
      <stop
         style="stop-color:#486313;stop-opacity:1"
         offset="1"
         id="stop4243" />
    </linearGradient>
    <inkscape:path-effect
       effect="powerstroke"
       id="path-effect4181"
       is_visible="true"
       offset_points="0,0.59203604"
       sort_points="true"
       interpolator_type="Linear"
       interpolator_beta="0.2"
       start_linecap_type="zerowidth"
       linejoin_type="round"
       miter_limit="4"
       end_linecap_type="zerowidth"
       cusp_linecap_type="round" />
    <inkscape:path-effect
       effect="powerstroke"
       id="path-effect4177"
       is_visible="true"
       offset_points="0,0.5"
       sort_points="true"
       interpolator_type="Linear"
       interpolator_beta="0.2"
       start_linecap_type="zerowidth"
       linejoin_type="round"
       miter_limit="4"
       end_linecap_type="zerowidth"
       cusp_linecap_type="round" />
    <inkscape:path-effect
       effect="powerstroke"
       id="path-effect4173"
       is_visible="true"
       offset_points="0,0.70937014"
       sort_points="true"
       interpolator_type="Linear"
       interpolator_beta="0.2"
       start_linecap_type="zerowidth"
       linejoin_type="round"
       miter_limit="4"
       end_linecap_type="zerowidth"
       cusp_linecap_type="round" />
    <inkscape:path-effect
       effect="powerstroke"
       id="path-effect4169"
       is_visible="true"
       offset_points="0,0.70937014"
       sort_points="true"
       interpolator_type="Linear"
       interpolator_beta="0.2"
       start_linecap_type="zerowidth"
       linejoin_type="round"
       miter_limit="4"
       end_linecap_type="zerowidth"
       cusp_linecap_type="round" />
    <inkscape:path-effect
       effect="powerstroke"
       id="path-effect4165"
       is_visible="true"
       offset_points="0,0.70937014"
       sort_points="true"
       interpolator_type="Linear"
       interpolator_beta="0.2"
       start_linecap_type="zerowidth"
       linejoin_type="round"
       miter_limit="4"
       end_linecap_type="zerowidth"
       cusp_linecap_type="round" />
    <inkscape:path-effect
       effect="powerstroke"
       id="path-effect4161"
       is_visible="true"
       offset_points="0,0.59203604"
       sort_points="true"
       interpolator_type="Linear"
       interpolator_beta="0.2"
       start_linecap_type="zerowidth"
       linejoin_type="round"
       miter_limit="4"
       end_linecap_type="zerowidth"
       cusp_linecap_type="round" />
    <inkscape:path-effect
       effect="powerstroke"
       id="path-effect4157"
       is_visible="true"
       offset_points="0,0.70937014"
       sort_points="true"
       interpolator_type="Linear"
       interpolator_beta="0.2"
       start_linecap_type="zerowidth"
       linejoin_type="round"
       miter_limit="4"
       end_linecap_type="zerowidth"
       cusp_linecap_type="round" />
    <inkscape:path-effect
       effect="powerstroke"
       id="path-effect4153"
       is_visible="true"
       offset_points="0,0.70937014"
       sort_points="true"
       interpolator_type="Linear"
       interpolator_beta="0.2"
       start_linecap_type="zerowidth"
       linejoin_type="round"
       miter_limit="4"
       end_linecap_type="zerowidth"
       cusp_linecap_type="round" />
    <inkscape:path-effect
       effect="powerstroke"
       id="path-effect4149"
       is_visible="true"
       offset_points="0,0.70937014"
       sort_points="true"
       interpolator_type="Linear"
       interpolator_beta="0.2"
       start_linecap_type="zerowidth"
       linejoin_type="round"
       miter_limit="4"
       end_linecap_type="zerowidth"
       cusp_linecap_type="round" />
    <linearGradient
       inkscape:collect="always"
       xlink:href="#linearGradient4239"
       id="linearGradient4245"
       x1="42.426407"
       y1="300.80869"
       x2="85.862961"
       y2="498.79858"
       gradientUnits="userSpaceOnUse"
       gradientTransform="matrix(0.71450653,0,0,0.71450653,-13.417108,593.23564)" />
    <linearGradient
       inkscape:collect="always"
       xlink:href="#linearGradient4294"
       id="linearGradient4300"
       x1="87.883278"
       y1="874.44904"
       x2="94.701797"
       y2="905.25867"
       gradientUnits="userSpaceOnUse"
       gradientTransform="translate(-0.50507627,0)" />
    <linearGradient
       inkscape:collect="always"
       xlink:href="#linearGradient4302"
       id="linearGradient4308"
       x1="69.501801"
       y1="841.56586"
       x2="123.72075"
       y2="902.68018"
       gradientUnits="userSpaceOnUse" />
    <linearGradient
       inkscape:collect="always"
       xlink:href="#linearGradient4486"
       id="linearGradient4492"
       x1="194.95944"
       y1="893.26312"
       x2="194.95946"
       y2="924.57788"
       gradientUnits="userSpaceOnUse"
       gradientTransform="scale(1.0081136,1)" />
    <linearGradient
       inkscape:collect="always"
       xlink:href="#linearGradient4643"
       id="linearGradient4649"
       x1="208.09142"
       y1="759.41791"
       x2="208.09145"
       y2="811.94586"
       gradientUnits="userSpaceOnUse" />
    <linearGradient
       gradientTransform="matrix(1,0,0,0.90909089,21.213195,-1736.6812)"
       inkscape:collect="always"
       xlink:href="#linearGradient4643"
       id="linearGradient4649-4"
       x1="208.09142"
       y1="759.41791"
       x2="208.09145"
       y2="811.94586"
       gradientUnits="userSpaceOnUse" />
    <linearGradient
       gradientTransform="matrix(1,0,0,0.90909089,-1201.1328,-1174.6948)"
       inkscape:collect="always"
       xlink:href="#linearGradient4643"
       id="linearGradient4649-4-5"
       x1="208.09142"
       y1="759.41791"
       x2="208.09145"
       y2="811.94586"
       gradientUnits="userSpaceOnUse" />
    <linearGradient
       gradientTransform="matrix(1.0000035,0,0,1.1261756,-1119.0863,-839.98794)"
       inkscape:collect="always"
       xlink:href="#linearGradient4643"
       id="linearGradient4649-4-5-1"
       x1="208.09142"
       y1="759.41791"
       x2="208.09145"
       y2="811.94586"
       gradientUnits="userSpaceOnUse" />
  </defs>
  <sodipodi:namedview
     id="base"
     pagecolor="#ffffff"
     bordercolor="#666666"
     borderopacity="1.0"
     inkscape:pageopacity="0.0"
     inkscape:pageshadow="2"
     inkscape:zoom="0.98994949"
     inkscape:cx="167.90154"
     inkscape:cy="150.07068"
     inkscape:document-units="px"
     inkscape:current-layer="layer1"
     showgrid="false"
     units="px"
     inkscape:window-width="1600"
     inkscape:window-height="837"
     inkscape:window-x="-8"
     inkscape:window-y="-8"
     inkscape:window-maximized="1"
     showguides="false" />
  <metadata
     id="metadata7">
    <rdf:RDF>
      <cc:Work
         rdf:about="">
        <dc:format>image/svg+xml</dc:format>
        <dc:type
           rdf:resource="http://purl.org/dc/dcmitype/StillImage" />
        <dc:title></dc:title>
      </cc:Work>
    </rdf:RDF>
  </metadata>
  <g
     inkscape:label="Layer 1"
     inkscape:groupmode="layer"
     id="layer1"
     transform="translate(0,-752.36216)">
    <rect
       style="opacity:1;fill:#fff5bf;fill-opacity:1;stroke:none;stroke-width:4.5;stroke-linecap:round;stroke-linejoin:round;stroke-miterlimit:4;stroke-dasharray:none;stroke-dashoffset:0;stroke-opacity:1"
       id="rect4343"
       width="509.11688"
       height="304.04175"
       x="-3.0304575"
       y="751.33673" />
    <rect
       style="opacity:1;fill:#fff2a5;fill-opacity:1;stroke:none;stroke-width:4.5;stroke-linecap:round;stroke-linejoin:round;stroke-miterlimit:4;stroke-dasharray:none;stroke-dashoffset:0;stroke-opacity:1"
       id="rect4531-7-3-1-4"
       width="7.0710678"
       height="149.50258"
       x="453.62164"
       y="753.73578" />
    <rect
       style="opacity:1;fill:#7b521a;fill-opacity:1;stroke:none;stroke-width:4.5;stroke-linecap:round;stroke-linejoin:round;stroke-miterlimit:4;stroke-dasharray:none;stroke-dashoffset:0;stroke-opacity:1"
       id="rect4494"
       width="500.02551"
       height="147.48227"
       x="0"
       y="905.89001" />
    <rect
       style="opacity:1;fill:#fff2a5;fill-opacity:1;stroke:none;stroke-width:4.5;stroke-linecap:round;stroke-linejoin:round;stroke-miterlimit:4;stroke-dasharray:none;stroke-dashoffset:0;stroke-opacity:1"
       id="rect4531"
       width="7.0710678"
       height="149.50258"
       x="18.182745"
       y="750.32654" />
    <rect
       style="opacity:1;fill:#fff2a5;fill-opacity:1;stroke:none;stroke-width:4.5;stroke-linecap:round;stroke-linejoin:round;stroke-miterlimit:4;stroke-dasharray:none;stroke-dashoffset:0;stroke-opacity:1"
       id="rect4531-7-3-1-4-8"
       width="7.0710678"
       height="149.50258"
       x="485.3783"
       y="751.33673" />
    <rect
       style="opacity:1;fill:url(#linearGradient4492);fill-opacity:1;stroke:none;stroke-width:4.5;stroke-linecap:round;stroke-linejoin:round;stroke-miterlimit:4;stroke-dasharray:none;stroke-dashoffset:0;stroke-opacity:1"
       id="rect4484"
       width="502.04584"
       height="13.131983"
       x="0"
       y="892.75806" />
    <rect
       style="opacity:1;fill:#fff2a5;fill-opacity:1;stroke:none;stroke-width:4.5;stroke-linecap:round;stroke-linejoin:round;stroke-miterlimit:4;stroke-dasharray:none;stroke-dashoffset:0;stroke-opacity:1"
       id="rect4531-7"
       width="7.0710678"
       height="149.50258"
       x="45.961941"
       y="751.33667" />
    <rect
       style="opacity:1;fill:#fff2a5;fill-opacity:1;stroke:none;stroke-width:4.5;stroke-linecap:round;stroke-linejoin:round;stroke-miterlimit:4;stroke-dasharray:none;stroke-dashoffset:0;stroke-opacity:1"
       id="rect4531-3"
       width="7.0710678"
       height="149.50258"
       x="76.519058"
       y="750.83167" />
    <rect
       style="opacity:1;fill:#fff2a5;fill-opacity:1;stroke:none;stroke-width:4.5;stroke-linecap:round;stroke-linejoin:round;stroke-miterlimit:4;stroke-dasharray:none;stroke-dashoffset:0;stroke-opacity:1"
       id="rect4531-7-3"
       width="7.0710678"
       height="149.50258"
       x="104.29825"
       y="751.8418" />
    <rect
       style="opacity:1;fill:#fff2a5;fill-opacity:1;stroke:none;stroke-width:4.5;stroke-linecap:round;stroke-linejoin:round;stroke-miterlimit:4;stroke-dasharray:none;stroke-dashoffset:0;stroke-opacity:1"
       id="rect4531-5"
       width="7.0710678"
       height="149.50258"
       x="133.21387"
       y="751.58923" />
    <rect
       style="opacity:1;fill:#fff2a5;fill-opacity:1;stroke:none;stroke-width:4.5;stroke-linecap:round;stroke-linejoin:round;stroke-miterlimit:4;stroke-dasharray:none;stroke-dashoffset:0;stroke-opacity:1"
       id="rect4531-7-2"
       width="7.0710678"
       height="149.50258"
       x="160.99307"
       y="752.59937" />
    <rect
       style="opacity:1;fill:#fff2a5;fill-opacity:1;stroke:none;stroke-width:4.5;stroke-linecap:round;stroke-linejoin:round;stroke-miterlimit:4;stroke-dasharray:none;stroke-dashoffset:0;stroke-opacity:1"
       id="rect4531-3-0"
       width="7.0710678"
       height="149.50258"
       x="191.55017"
       y="752.09436" />
    <rect
       style="opacity:1;fill:#fff2a5;fill-opacity:1;stroke:none;stroke-width:4.5;stroke-linecap:round;stroke-linejoin:round;stroke-miterlimit:4;stroke-dasharray:none;stroke-dashoffset:0;stroke-opacity:1"
       id="rect4531-7-3-1"
       width="7.0710678"
       height="149.50258"
       x="219.32938"
       y="753.10449" />
    <rect
       style="opacity:1;fill:#fff2a5;fill-opacity:1;stroke:none;stroke-width:4.5;stroke-linecap:round;stroke-linejoin:round;stroke-miterlimit:4;stroke-dasharray:none;stroke-dashoffset:0;stroke-opacity:1"
       id="rect4531-9"
       width="7.0710678"
       height="149.50258"
       x="252.47499"
       y="750.95782" />
    <rect
       style="opacity:1;fill:#fff2a5;fill-opacity:1;stroke:none;stroke-width:4.5;stroke-linecap:round;stroke-linejoin:round;stroke-miterlimit:4;stroke-dasharray:none;stroke-dashoffset:0;stroke-opacity:1"
       id="rect4531-7-8"
       width="7.0710678"
       height="149.50258"
       x="280.25418"
       y="751.96796" />
    <rect
       style="opacity:1;fill:#fff2a5;fill-opacity:1;stroke:none;stroke-width:4.5;stroke-linecap:round;stroke-linejoin:round;stroke-miterlimit:4;stroke-dasharray:none;stroke-dashoffset:0;stroke-opacity:1"
       id="rect4531-3-3"
       width="7.0710678"
       height="149.50258"
       x="310.81131"
       y="751.46295" />
    <rect
       style="opacity:1;fill:#fff2a5;fill-opacity:1;stroke:none;stroke-width:4.5;stroke-linecap:round;stroke-linejoin:round;stroke-miterlimit:4;stroke-dasharray:none;stroke-dashoffset:0;stroke-opacity:1"
       id="rect4531-7-3-11"
       width="7.0710678"
       height="149.50258"
       x="338.59052"
       y="752.47308" />
    <rect
       style="opacity:1;fill:#fff2a5;fill-opacity:1;stroke:none;stroke-width:4.5;stroke-linecap:round;stroke-linejoin:round;stroke-miterlimit:4;stroke-dasharray:none;stroke-dashoffset:0;stroke-opacity:1"
       id="rect4531-5-7"
       width="7.0710678"
       height="149.50258"
       x="367.50613"
       y="752.22052" />
    <rect
       style="opacity:1;fill:#fff2a5;fill-opacity:1;stroke:none;stroke-width:4.5;stroke-linecap:round;stroke-linejoin:round;stroke-miterlimit:4;stroke-dasharray:none;stroke-dashoffset:0;stroke-opacity:1"
       id="rect4531-7-2-0"
       width="7.0710678"
       height="149.50258"
       x="395.28534"
       y="753.23065" />
    <rect
       style="opacity:1;fill:#fff2a5;fill-opacity:1;stroke:none;stroke-width:4.5;stroke-linecap:round;stroke-linejoin:round;stroke-miterlimit:4;stroke-dasharray:none;stroke-dashoffset:0;stroke-opacity:1"
       id="rect4531-3-0-8"
       width="7.0710678"
       height="149.50258"
       x="425.84244"
       y="752.72565" />
    <rect
       style="opacity:1;fill:url(#linearGradient4649);fill-opacity:1;stroke:none;stroke-width:4.5;stroke-linecap:round;stroke-linejoin:round;stroke-miterlimit:4;stroke-dasharray:none;stroke-dashoffset:0;stroke-opacity:1"
       id="rect4641"
       width="612.15247"
       height="88.893425"
       x="-68.690376"
       y="714.97119" />
    <rect
       style="opacity:1;fill:url(#linearGradient4649-4);fill-opacity:1;stroke:none;stroke-width:4.5;stroke-linecap:round;stroke-linejoin:round;stroke-miterlimit:4;stroke-dasharray:none;stroke-dashoffset:0;stroke-opacity:1"
       id="rect4641-0"
       width="612.15247"
       height="80.812202"
       x="-47.47718"
       y="-1086.7073"
       transform="scale(1,-1)" />
    <rect
       style="opacity:1;fill:url(#linearGradient4649-4-5);fill-opacity:1;stroke:none;stroke-width:4.5;stroke-linecap:round;stroke-linejoin:round;stroke-miterlimit:4;stroke-dasharray:none;stroke-dashoffset:0;stroke-opacity:1"
       id="rect4641-0-6"
       width="612.15247"
       height="80.812202"
       x="-1269.8231"
       y="-524.72083"
       transform="matrix(0.00360983,-0.99999348,-0.99999348,-0.00360983,0,0)" />
    <rect
       style="opacity:1;fill:url(#linearGradient4649-4-5-1);fill-opacity:1;stroke:none;stroke-width:4.5;stroke-linecap:round;stroke-linejoin:round;stroke-miterlimit:4;stroke-dasharray:none;stroke-dashoffset:0;stroke-opacity:1"
       id="rect4641-0-6-7"
       width="612.1546"
       height="100.1096"
       x="-1187.777"
       y="-34.804649"
       transform="matrix(-0.00447183,-0.99999,0.99999575,-0.00291399,0,0)" />
    <g
       id="g4310"
       transform="matrix(0.89806956,0,0,0.89806956,24.260526,129.37353)">
      <path
         inkscape:connector-curvature="0"
         id="path4280"
         d="m 414.34204,927.86891 45.71587,-1.36342 c 0,0 5.54841,-31.32959 9.49232,-62.04484 a 268.85583,147.60004 0 0 1 -6.34403,13.63842 268.85583,147.60004 0 0 1 -9.21463,13.8603 268.85583,147.60004 0 0 1 -11.68887,13.28397 268.85583,147.60004 0 0 1 -14.04731,12.57922 268.85583,147.60004 0 0 1 -13.91335,10.04635 z"
         style="fill:#599a9c;fill-opacity:1;fill-rule:evenodd;stroke:none;stroke-width:1px;stroke-linecap:butt;stroke-linejoin:miter;stroke-opacity:1" />
      <path
         inkscape:connector-curvature="0"
         id="path4275"
         d="m 414.34204,927.86891 a 268.85583,147.60004 0 0 0 13.91335,-10.04635 268.85583,147.60004 0 0 0 14.04731,-12.57922 268.85583,147.60004 0 0 0 11.68887,-13.28397 268.85583,147.60004 0 0 0 9.21463,-13.8603 268.85583,147.60004 0 0 0 6.34403,-13.63842 c 2.23051,-17.37121 3.97833,-34.52271 3.82513,-45.69773 a 268.85583,147.60004 0 0 0 -2.07235,-9.36952 268.85583,147.60004 0 0 0 -0.30702,-0.75079 c -3.95921,-0.66162 -148.3385,-24.73316 -222.41388,-27.93274 -74.32807,-3.2105 -217.317935,-6.85758 -223.023724,8.66061 -9.421273,25.62329 23.095866,149.40443 23.095866,149.40443 l 365.687788,-10.906 z"
         style="fill:#83c4c6;fill-opacity:1;fill-rule:evenodd;stroke:none;stroke-width:1px;stroke-linecap:butt;stroke-linejoin:miter;stroke-opacity:1" />
      <path
         inkscape:connector-curvature="0"
         id="path4185"
         d="m 55.992098,932.78297 17.3523,64.81593 370.522672,0 10.20724,-72.98172 z"
         style="fill:#a8d9de;fill-opacity:1;fill-rule:evenodd;stroke:none;stroke-width:1px;stroke-linecap:butt;stroke-linejoin:miter;stroke-opacity:1" />
      <path
         sodipodi:nodetypes="sccscccss"
         inkscape:connector-curvature="0"
         id="path4229"
         d="M 9.6792309,853.63634 51.541345,839.56202 84.742325,799.5043 c 0,0 13.093647,24.18505 22.013705,36.80979 6.5431,9.26058 22.37458,25.62251 22.37458,25.62251 l -6.49585,68.92813 -60.627887,2.16528 c 0,0 -10.68106,-23.96602 -17.683133,-35.00539 C 34.270487,882.17481 -4.5163166,858.40898 9.6792309,853.63634 Z"
         style="opacity:1;fill:url(#linearGradient4245);fill-opacity:1;fill-rule:evenodd;stroke:none;stroke-width:1px;stroke-linecap:butt;stroke-linejoin:miter;stroke-opacity:1" />
      <path
         inkscape:connector-curvature="0"
         id="path4189"
         d="m 75.385844,919.25838 -9.952055,13.2694 -0.255178,-27.30435 -11.993503,-10.46242 -3.827713,58.69161 8.420969,-0.76554 30.111341,-18.62821 z"
         style="fill:#f8cf99;fill-opacity:1;fill-rule:evenodd;stroke:#f8cf99;stroke-width:0.71450651px;stroke-linecap:butt;stroke-linejoin:miter;stroke-opacity:1" />
      <path
         inkscape:connector-curvature="0"
         id="path4191"
         d="m 139.18108,866.69112 -0.76555,-42.8704 -42.104851,-0.51036 6.889891,12.50386 21.4352,-0.25518 -3.82772,33.17352 z"
         style="fill:#f8cf99;fill-opacity:1;fill-rule:evenodd;stroke:none;stroke-width:1px;stroke-linecap:butt;stroke-linejoin:miter;stroke-opacity:1" />
      <path
         inkscape:connector-curvature="0"
         id="path4225"
         d="M 88.40007,902.67162 51.398842,879.70534 39.40534,855.97352 l 9.186512,-30.8769 18.628204,-17.09711 19.648926,3.82771 18.373028,27.81471 15.31086,25.77328 -7.40025,13.01423 3.82772,14.29013 -10.71761,12.75904 z"
         style="fill:#f8cf99;fill-opacity:1;fill-rule:evenodd;stroke:none;stroke-width:1px;stroke-linecap:butt;stroke-linejoin:miter;stroke-opacity:1" />
      <path
         sodipodi:nodetypes="cscsssssssccccscscscsscsscccccccc"
         inkscape:connector-curvature="0"
         id="path4193"
         d="m 110.34563,883.27787 c 0,0 0.76554,-4.08289 1.78626,-4.84843 1.02073,-0.76555 21.69038,-15.82122 21.69038,-15.82122 0,0 -17.80351,-11.9162 -24.75255,-19.90411 -9.363913,-10.7638 4.44345,-8.77939 -24.218402,-31.94784 -4.172233,-3.37257 -9.580963,-5.17184 -14.945778,-5.14749 -9.358471,0.0425 -16.384858,-1.29792 -22.58959,5.70807 -4.17324,4.71216 -9.359426,12.67573 -11.969354,18.4036 -2.322968,5.09808 -2.117928,11.6687 -2.575963,17.25231 -1.397517,17.0365 7.932538,30.99818 18.11785,44.72608 6.903526,9.30467 27.559528,21.18001 27.559528,21.18001 l 9.952052,-11.9935 -1.020723,-5.86916 -6.6347,-9.95205 c 0,0 -5.803405,-0.80105 -8.165785,-1.53108 -3.934595,-1.21589 -8.931332,-5.61399 -8.931332,-5.61399 0,0 -5.662647,1.32777 -8.165785,0.25518 -1.99333,-0.85414 -4.338076,-4.84843 -4.338076,-4.84843 0,0 -2.498222,-3.77266 -1.531088,-5.3588 0.903186,-1.48126 5.10362,-1.02073 5.10362,-1.02073 0,0 -10.117031,-13.5484 -10.696458,-20.91955 -0.384773,-4.89488 1.153394,-9.25985 3.572533,-13.53251 3.674643,-6.49012 6.113936,-7.64493 12.541936,-11.42719 5.365321,-2.6032 11.141325,-2.84034 15.901536,-1.56542 3.762805,1.00778 6.418004,2.58099 8.824058,4.9425 2.149016,2.10923 4.560994,7.79752 4.560994,7.79752 0,0 6.32601,5.56023 9.34028,8.41986 4.300167,4.62458 6.491787,11.88302 6.480927,17.60859 -0.0851,4.9357 -0.51035,14.8005 -0.51035,14.8005 l -1.41257,2.88172 -2.67033,2.22189 3.06217,4.0829 z"
         style="fill:url(#linearGradient4308);fill-opacity:1;fill-rule:evenodd;stroke:none;stroke-width:1px;stroke-linecap:butt;stroke-linejoin:miter;stroke-opacity:1" />
      <path
         sodipodi:nodetypes="csc"
         inkscape:connector-curvature="0"
         id="path4195"
         d="m 76.661752,826.37253 c 0,0 1.807759,-2.22065 3.062165,-2.80699 1.166096,-0.54506 3.827719,-0.51036 3.827719,-0.51036"
         style="fill:#000000;fill-opacity:1;fill-rule:evenodd;stroke:#342e19;stroke-width:3.21527934;stroke-linecap:round;stroke-linejoin:miter;stroke-miterlimit:4;stroke-dasharray:none;stroke-opacity:1" />
      <path
         inkscape:connector-curvature="0"
         id="path4197"
         d="m 62.116443,840.66266 -4.082898,8.16579"
         style="fill:#000000;fill-opacity:1;fill-rule:evenodd;stroke:#342e19;stroke-width:3.21527934;stroke-linecap:round;stroke-linejoin:round;stroke-miterlimit:4;stroke-dasharray:none;stroke-opacity:1" />
      <path
         sodipodi:nodetypes="cccccccsc"
         inkscape:connector-curvature="0"
         id="path4199"
         d="m 82.216173,866.4476 7.037161,-2.52617 2.165283,-2.7066 1.443518,-0.36088 0.721766,-1.26308 1.263076,-0.36088 3.067483,-3.6088 c 0,0 -0.164072,7.43931 -2.7066,9.56332 -3.339125,2.78949 -12.991687,1.26309 -12.991687,1.26309 z"
         style="fill:#df715c;fill-opacity:1;fill-rule:evenodd;stroke:none;stroke-width:1px;stroke-linecap:butt;stroke-linejoin:miter;stroke-opacity:1" />
      <path
         sodipodi:nodetypes="cccccccsc"
         inkscape:connector-curvature="0"
         id="path4201"
         d="m 70.307124,843.89258 -6.676292,3.78924 -3.969677,5.41321 1.082635,0.72176 4.150125,1.71418 c 0,0 3.518581,-0.36089 4.240339,-0.54133 0.721766,-0.18043 2.887043,-2.52616 2.887043,-2.52616 0,0 0.721766,-3.06747 0.721766,-3.78924 0,-0.72176 -2.435939,-4.78166 -2.435939,-4.78166 z"
         style="fill:#ffffff;fill-opacity:1;fill-rule:evenodd;stroke:none;stroke-width:1px;stroke-linecap:butt;stroke-linejoin:miter;stroke-opacity:1" />
      <path
         sodipodi:nodetypes="ccccsccc"
         inkscape:connector-curvature="0"
         id="path4203"
         d="m 78.426926,836.85541 5.413206,1.26308 2.706601,-0.9022 1.894621,-1.71418 c 0,0 0.198097,-2.03458 0,-3.02237 -0.214709,-1.07058 -1.263083,-3.02237 -1.263083,-3.02237 l -4.511001,1.53373 z"
         style="fill:#ffffff;fill-opacity:1;fill-rule:evenodd;stroke:none;stroke-width:1px;stroke-linecap:butt;stroke-linejoin:miter;stroke-opacity:1" />
      <ellipse
         ry="2.0750618"
         rx="1.8946215"
         cy="849.396"
         cx="66.788536"
         id="path4205"
         style="opacity:1;fill:#000000;fill-opacity:1;stroke:#342e19;stroke-width:3.21527934;stroke-linecap:round;stroke-linejoin:round;stroke-miterlimit:4;stroke-dasharray:none;stroke-dashoffset:0;stroke-opacity:1" />
      <ellipse
         ry="1.3533012"
         rx="1.172861"
         cy="833.69775"
         cx="84.471664"
         id="path4207"
         style="opacity:1;fill:#000000;fill-opacity:1;stroke:#342e19;stroke-width:3.21527934;stroke-linecap:round;stroke-linejoin:round;stroke-miterlimit:4;stroke-dasharray:none;stroke-dashoffset:0;stroke-opacity:1" />
      <path
         inkscape:connector-curvature="0"
         id="path4209"
         d="m 70.126683,843.35126 -5.232768,3.96968 -5.052325,6.13496"
         style="fill:none;fill-rule:evenodd;stroke:#000000;stroke-width:0.71450651px;stroke-linecap:butt;stroke-linejoin:miter;stroke-opacity:1" />
      <path
         inkscape:connector-curvature="0"
         id="path4211"
         d="m 78.607368,836.67497 c 0,0 2.16528,-3.78925 2.887039,-4.33056 0.721759,-0.54132 5.413202,-2.7066 5.413202,-2.7066"
         style="fill:none;fill-rule:evenodd;stroke:#000000;stroke-width:0.71450651px;stroke-linecap:butt;stroke-linejoin:miter;stroke-opacity:1" />
      <path
         sodipodi:nodetypes="cscccsccc"
         inkscape:connector-curvature="0"
         id="path4213"
         d="m 79.329324,843.1523 c 0.631538,0.63155 2.224911,2.88091 3.753194,3.78906 1.114387,0.66219 3.73507,1.08283 3.73507,1.08283 l 1.804401,0.63154 0.541317,1.62396 c 0,0 -0.631538,1.62396 -0.992421,1.89462 -0.360876,0.27066 -1.353297,0.81198 -1.353297,0.81198 l -0.721759,1.17286 -1.714187,1.08265"
         style="fill:none;fill-rule:evenodd;stroke:#af5f08;stroke-width:0.71450651px;stroke-linecap:butt;stroke-linejoin:miter;stroke-opacity:1" />
      <path
         sodipodi:nodetypes="cssc"
         inkscape:connector-curvature="0"
         id="path4215"
         d="m 83.840132,866.4476 c 0,0 5.476443,-0.66444 7.939361,-1.8044 1.364586,-0.63161 2.653377,-1.5455 3.608808,-2.70661 1.230688,-1.49562 2.526159,-5.23276 2.526159,-5.23276"
         style="fill:none;fill-rule:evenodd;stroke:#a16224;stroke-width:0.71450651px;stroke-linecap:butt;stroke-linejoin:miter;stroke-opacity:1" />
      <path
         sodipodi:nodetypes="cccsccccc"
         inkscape:connector-curvature="0"
         id="path4219"
         d="m 223.13559,937.37622 44.1463,-42.61521 12.50386,-15.31085 c 0,0 4.45182,11.16306 7.65543,14.29013 16.96542,16.5601 54.60871,47.97401 54.60871,47.97401 l 5.3588,-2.80699 -62.00895,-84.46488 -7.40026,-1.02072 z"
         style="fill:#55868b;fill-opacity:1;fill-rule:evenodd;stroke:#55868b;stroke-width:0.71450651px;stroke-linecap:butt;stroke-linejoin:miter;stroke-opacity:1" />
      <path
         sodipodi:nodetypes="cssccsccsccc"
         inkscape:connector-curvature="0"
         id="path4217"
         d="m 199.91413,900.88535 c 0,0 5.90406,-0.42235 7.91061,-2.29663 21.69656,-20.26628 61.45601,-69.14503 71.70583,-71.70583 7.56841,-1.89088 87.01669,69.15403 87.01669,69.15403 l -3.31735,4.84843 c 0,0 -49.52834,-25.46136 -69.40921,-34.44942 -5.71929,-2.58566 -12.50386,-17.09712 -12.50386,-17.09712 l -24.75255,51.54654 c 0,0 -16.47586,31.0384 -31.13207,38.7875 -11.54042,6.1017 -39.04268,3.06217 -39.04268,3.06217 l 2.04145,-22.20074 z"
         style="fill:#6595a0;fill-opacity:1;fill-rule:evenodd;stroke:none;stroke-width:1px;stroke-linecap:butt;stroke-linejoin:miter;stroke-opacity:1" />
      <path
         sodipodi:nodetypes="ccccscscscsccccccsc"
         inkscape:connector-curvature="0"
         id="path4187"
         d="m 87.889705,901.6509 -12.75904,16.33157 13.77977,17.35231 12.248675,-9.18652 c 0,0 23.64661,10.62922 36.2357,13.26941 16.01504,3.35869 48.99473,3.06217 48.99473,3.06217 0,0 1.7489,-14.79236 4.08289,-21.94556 2.3532,-7.21191 9.69688,-20.15929 9.69688,-20.15929 0,0 -18.75785,6.37556 -28.0699,4.59326 -7.3071,-1.39856 -19.13857,-11.48314 -19.13857,-11.48314 0,0 -0.79866,-11.35985 -4.33807,-15.31085 -1.96035,-2.18832 -8.16579,-3.31736 -8.16579,-3.31736 l 0,-7.14506 -9.95206,-2.04145 -11.48314,7.65543 -7.14506,5.86916 -2.29663,5.10361 c 0,0 4.35123,9.46537 1.78627,13.01423 -4.66162,6.44977 -23.476655,4.33808 -23.476655,4.33808 z"
         style="opacity:1;fill:#fdc73a;fill-opacity:1;fill-rule:evenodd;stroke:none;stroke-width:1px;stroke-linecap:butt;stroke-linejoin:miter;stroke-opacity:1" />
      <path
         sodipodi:nodetypes="csccc"
         inkscape:connector-curvature="0"
         id="path4221"
         d="m 346.64315,938.90731 c 0,0 11.33535,-4.67385 17.09712,-3.57253 4.69729,0.89785 10.97278,7.40024 10.97278,7.40024 l -33.17351,-0.25518 z"
         style="fill:#f8cf99;fill-opacity:1;fill-rule:evenodd;stroke:none;stroke-width:1px;stroke-linecap:butt;stroke-linejoin:miter;stroke-opacity:1" />
      <path
         sodipodi:nodetypes="cscssc"
         inkscape:connector-curvature="0"
         id="path4223"
         d="m 363.48509,901.39572 c 0,0 19.98915,-4.40538 27.55954,-10.71761 0.99721,-0.83148 2.04144,-3.31734 2.04144,-3.31734 0,0 -3.0244,-3.7921 -6.37951,-3.82772 -4.87421,-0.0517 -9.42038,4.1071 -13.01424,7.40025 -3.56584,3.26747 -10.20723,10.46242 -10.20723,10.46242 z"
         style="fill:#f8cf99;fill-opacity:1;fill-rule:evenodd;stroke:none;stroke-width:1px;stroke-linecap:butt;stroke-linejoin:miter;stroke-opacity:1" />
      <path
         inkscape:connector-curvature="0"
         id="path4227"
         d="m 139.52946,873.17673 c -2.47523,0.62042 -10.61884,2.55637 -10.61884,2.55637 l 10.80561,-0.76165 z"
         style="fill:#d9ad3a;fill-opacity:1;fill-rule:evenodd;stroke:none;stroke-width:1px;stroke-linecap:butt;stroke-linejoin:miter;stroke-opacity:1" />
      <rect
         y="997.25232"
         x="73.915916"
         height="33.200989"
         width="363.04556"
         id="rect4247"
         style="opacity:1;fill:#83c4c6;fill-opacity:1;stroke:none;stroke-width:4.5;stroke-linecap:round;stroke-linejoin:round;stroke-miterlimit:4;stroke-dasharray:none;stroke-dashoffset:0;stroke-opacity:1" />
      <path
         inkscape:connector-curvature="0"
         id="path4255"
         d="m 449.46869,913.17827 c -11.36482,47.69642 -19.0028,117.28943 -19.0028,117.28943 l 31.03498,0.7214 c 0,0 2.49862,-7.1043 6.05656,-17.5877 a 30.674826,90.580958 10.071371 0 1 -2.75894,0.4703 30.674826,90.580958 10.071371 0 1 -2.17562,-0.1564 30.674826,90.580958 10.071371 0 1 -2.93618,-0.981 30.674826,90.580958 10.071371 0 1 -2.74917,-1.863 30.674826,90.580958 10.071371 0 1 -2.53287,-2.7255 30.674826,90.580958 10.071371 0 1 -2.29284,-3.5599 30.674826,90.580958 10.071371 0 1 -2.03048,-4.361 30.674826,90.580958 10.071371 0 1 -1.7458,-5.11604 30.674826,90.580958 10.071371 0 1 -1.44436,-5.8221 30.674826,90.580958 10.071371 0 1 -1.13037,-6.4697 30.674826,90.580958 10.071371 0 1 -0.80243,-7.05153 30.674826,90.580958 10.071371 0 1 -0.4689,-7.56232 30.674826,90.580958 10.071371 0 1 -0.12838,-8.00053 30.674826,90.580958 10.071371 0 1 0.21212,-8.35498 30.674826,90.580958 10.071371 0 1 0.55123,-8.62989 30.674826,90.580958 10.071371 0 1 0.88336,-8.81551 30.674826,90.580958 10.071371 0 1 1.20852,-8.91459 30.674826,90.580958 10.071371 0 1 1.04385,-6.3217 30.674826,90.580958 10.071371 0 1 1.20852,-6.18774 z"
         style="fill:#83c4c6;fill-opacity:1;fill-rule:evenodd;stroke:none;stroke-width:1px;stroke-linecap:butt;stroke-linejoin:miter;stroke-opacity:1" />
      <path
         inkscape:connector-curvature="0"
         id="path4249"
         d="m 449.46869,913.17827 a 30.674826,90.580958 10.071371 0 0 -1.20852,6.18774 30.674826,90.580958 10.071371 0 0 -1.04385,6.3217 30.674826,90.580958 10.071371 0 0 -1.20852,8.91459 30.674826,90.580958 10.071371 0 0 -0.88336,8.81551 30.674826,90.580958 10.071371 0 0 -0.55123,8.62989 30.674826,90.580958 10.071371 0 0 -0.21212,8.35498 30.674826,90.580958 10.071371 0 0 0.12838,8.00053 30.674826,90.580958 10.071371 0 0 0.4689,7.56232 30.674826,90.580958 10.071371 0 0 0.80243,7.05153 30.674826,90.580958 10.071371 0 0 1.13037,6.4697 30.674826,90.580958 10.071371 0 0 1.44436,5.8221 30.674826,90.580958 10.071371 0 0 1.7458,5.11604 30.674826,90.580958 10.071371 0 0 2.03048,4.361 30.674826,90.580958 10.071371 0 0 2.29284,3.5599 30.674826,90.580958 10.071371 0 0 2.53287,2.7255 30.674826,90.580958 10.071371 0 0 2.74917,1.863 30.674826,90.580958 10.071371 0 0 2.93618,0.981 30.674826,90.580958 10.071371 0 0 2.17562,0.1564 30.674826,90.580958 10.071371 0 0 2.75894,-0.4703 c 9.8989,-29.16684 28.84258,-87.4576 31.47596,-114.49417 0.78757,-8.08577 -9.28872,-12.14528 -17.32259,-13.35234 -8.70349,-1.30766 -23.16217,-3.64507 -25.9832,4.69175 -2.20132,6.50541 -4.26813,14.37664 -6.25891,22.73163 z"
         style="fill:#a8d9de;fill-opacity:1;fill-rule:evenodd;stroke:none;stroke-width:1px;stroke-linecap:butt;stroke-linejoin:miter;stroke-opacity:1" />
      <path
         id="path4255-0"
         d="m 57.807808,912.94001 c 12.426315,47.69642 20.77771,117.28939 20.77771,117.28939 l -33.933731,0.7215 c 0,0 -2.731994,-7.1044 -6.622255,-17.5878 a 90.858115,33.43762 78.733488 0 0 3.016638,0.4703 90.858115,33.43762 78.733488 0 0 2.378823,-0.1563 90.858115,33.43762 78.733488 0 0 3.210429,-0.9811 90.858115,33.43762 78.733488 0 0 3.005948,-1.863 90.858115,33.43762 78.733488 0 0 2.769443,-2.7254 90.858115,33.43762 78.733488 0 0 2.507006,-3.56 90.858115,33.43762 78.733488 0 0 2.220125,-4.361 90.858115,33.43762 78.733488 0 0 1.908864,-5.11594 90.858115,33.43762 78.733488 0 0 1.579274,-5.8222 90.858115,33.43762 78.733488 0 0 1.235946,-6.4696 90.858115,33.43762 78.733488 0 0 0.877372,-7.05159 90.858115,33.43762 78.733488 0 0 0.512694,-7.56232 90.858115,33.43762 78.733488 0 0 0.140372,-8.00053 90.858115,33.43762 78.733488 0 0 -0.231922,-8.35498 90.858115,33.43762 78.733488 0 0 -0.602729,-8.62989 90.858115,33.43762 78.733488 0 0 -0.965863,-8.81551 90.858115,33.43762 78.733488 0 0 -1.321401,-8.91459 90.858115,33.43762 78.733488 0 0 -1.141353,-6.3217 90.858115,33.43762 78.733488 0 0 -1.32139,-6.18774 z"
         style="fill:#83c4c6;fill-opacity:1;fill-rule:evenodd;stroke:none;stroke-width:1px;stroke-linecap:butt;stroke-linejoin:miter;stroke-opacity:1"
         inkscape:connector-curvature="0" />
      <path
         id="path4249-4"
         d="m 57.807808,912.94001 a 90.858115,33.43762 78.733488 0 1 1.32139,6.18774 90.858115,33.43762 78.733488 0 1 1.141353,6.3217 90.858115,33.43762 78.733488 0 1 1.321401,8.91459 90.858115,33.43762 78.733488 0 1 0.965863,8.81551 90.858115,33.43762 78.733488 0 1 0.602729,8.62989 90.858115,33.43762 78.733488 0 1 0.231922,8.35498 90.858115,33.43762 78.733488 0 1 -0.140372,8.00053 90.858115,33.43762 78.733488 0 1 -0.512694,7.56232 90.858115,33.43762 78.733488 0 1 -0.877372,7.05159 90.858115,33.43762 78.733488 0 1 -1.235946,6.4696 90.858115,33.43762 78.733488 0 1 -1.579274,5.8222 90.858115,33.43762 78.733488 0 1 -1.908864,5.11594 90.858115,33.43762 78.733488 0 1 -2.220125,4.361 90.858115,33.43762 78.733488 0 1 -2.507006,3.56 90.858115,33.43762 78.733488 0 1 -2.769443,2.7254 90.858115,33.43762 78.733488 0 1 -3.005948,1.863 90.858115,33.43762 78.733488 0 1 -3.210429,0.9811 90.858115,33.43762 78.733488 0 1 -2.378823,0.1563 90.858115,33.43762 78.733488 0 1 -3.016638,-0.4703 C 27.206055,984.19626 6.4929819,925.90554 3.6136349,898.86897 2.7525102,890.7832 13.769952,886.72369 22.55421,885.51663 c 9.516416,-1.30766 25.325564,-3.64507 28.410087,4.69175 2.406928,6.50541 4.666787,14.37664 6.843511,22.73163 z"
         style="fill:#a8d9de;fill-opacity:1;fill-rule:evenodd;stroke:none;stroke-width:1px;stroke-linecap:butt;stroke-linejoin:miter;stroke-opacity:1"
         inkscape:connector-curvature="0" />
      <path
         inkscape:connector-curvature="0"
         id="path4284"
         d="m 80.812204,885.18191 15.909903,-5.55584 -9.343911,15.90991 z"
         style="fill:url(#linearGradient4300);fill-opacity:1;fill-rule:evenodd;stroke:none;stroke-width:1px;stroke-linecap:butt;stroke-linejoin:miter;stroke-opacity:1" />
    </g>
  </g>
</svg>
