<?xml version="1.0" encoding="utf-8"?>
<!-- Generator: Adobe Illustrator 22.1.0, SVG Export Plug-In . SVG Version: 6.00 Build 0)  -->
<svg version="1.1" id="Слой_1" xmlns="http://www.w3.org/2000/svg" xmlns:xlink="http://www.w3.org/1999/xlink" x="0px" y="0px"
	 viewBox="0 0 149.6 5.1" style="enable-background:new 0 0 149.6 5.1;" xml:space="preserve">
<style type="text/css">
	.st0{fill:#B3B3B3;}
	.st1{fill:#999999;}
</style>
<g>
	<rect x="2.3" y="1.9" class="st0" width="0.4" height="1.3"/>
	<rect x="4" y="1.9" class="st0" width="0.4" height="1.3"/>
	<rect x="5.7" y="1.9" class="st0" width="0.4" height="1.3"/>
	<rect x="7.3" y="1.9" class="st0" width="0.4" height="1.3"/>
	<rect x="9" y="1.9" class="st0" width="0.4" height="1.3"/>
	<rect x="10.7" y="1.9" class="st0" width="0.4" height="1.3"/>
	<rect x="12.4" y="1.9" class="st0" width="0.4" height="1.3"/>
	<rect x="14" y="1.9" class="st0" width="0.4" height="1.3"/>
</g>
<g>
	<rect x="18.9" y="1.9" class="st0" width="0.4" height="1.3"/>
	<rect x="20.6" y="1.9" class="st0" width="0.4" height="1.3"/>
	<rect x="22.3" y="1.9" class="st0" width="0.4" height="1.3"/>
	<rect x="23.9" y="1.9" class="st0" width="0.4" height="1.3"/>
	<rect x="25.6" y="1.9" class="st0" width="0.4" height="1.3"/>
	<rect x="27.3" y="1.9" class="st0" width="0.4" height="1.3"/>
	<rect x="28.9" y="1.9" class="st0" width="0.4" height="1.3"/>
	<rect x="30.6" y="1.9" class="st0" width="0.4" height="1.3"/>
</g>
<g>
	<rect x="35.5" y="1.9" class="st0" width="0.4" height="1.3"/>
	<rect x="37.2" y="1.9" class="st0" width="0.4" height="1.3"/>
	<rect x="38.9" y="1.9" class="st0" width="0.4" height="1.3"/>
	<rect x="40.5" y="1.9" class="st0" width="0.4" height="1.3"/>
	<rect x="42.2" y="1.9" class="st0" width="0.4" height="1.3"/>
	<rect x="43.9" y="1.9" class="st0" width="0.4" height="1.3"/>
	<rect x="45.5" y="1.9" class="st0" width="0.4" height="1.3"/>
	<rect x="47.2" y="1.9" class="st0" width="0.4" height="1.3"/>
</g>
<g>
	<rect x="52.1" y="1.9" class="st0" width="0.4" height="1.3"/>
	<rect x="53.8" y="1.9" class="st0" width="0.4" height="1.3"/>
	<rect x="55.5" y="1.9" class="st0" width="0.4" height="1.3"/>
	<rect x="57.1" y="1.9" class="st0" width="0.4" height="1.3"/>
	<rect x="58.8" y="1.9" class="st0" width="0.4" height="1.3"/>
	<rect x="60.5" y="1.9" class="st0" width="0.4" height="1.3"/>
	<rect x="62.1" y="1.9" class="st0" width="0.4" height="1.3"/>
	<rect x="63.8" y="1.9" class="st0" width="0.4" height="1.3"/>
</g>
<g>
	<rect x="68.7" y="1.9" class="st0" width="0.4" height="1.3"/>
	<rect x="70.4" y="1.9" class="st0" width="0.4" height="1.3"/>
	<rect x="72" y="1.9" class="st0" width="0.4" height="1.3"/>
	<rect x="73.7" y="1.9" class="st0" width="0.4" height="1.3"/>
	<rect x="75.4" y="1.9" class="st0" width="0.4" height="1.3"/>
	<rect x="77.1" y="1.9" class="st0" width="0.4" height="1.3"/>
	<rect x="78.7" y="1.9" class="st0" width="0.4" height="1.3"/>
	<rect x="80.4" y="1.9" class="st0" width="0.4" height="1.3"/>
</g>
<g>
	<rect x="85.3" y="1.9" class="st0" width="0.4" height="1.3"/>
	<rect x="87" y="1.9" class="st0" width="0.4" height="1.3"/>
	<rect x="88.6" y="1.9" class="st0" width="0.4" height="1.3"/>
	<rect x="90.3" y="1.9" class="st0" width="0.4" height="1.3"/>
	<rect x="92" y="1.9" class="st0" width="0.4" height="1.3"/>
	<rect x="93.6" y="1.9" class="st0" width="0.4" height="1.3"/>
	<rect x="95.3" y="1.9" class="st0" width="0.4" height="1.3"/>
	<rect x="97" y="1.9" class="st0" width="0.4" height="1.3"/>
</g>
<g>
	<rect x="101.9" y="1.9" class="st0" width="0.4" height="1.3"/>
	<rect x="103.6" y="1.9" class="st0" width="0.4" height="1.3"/>
	<rect x="105.3" y="1.9" class="st0" width="0.4" height="1.3"/>
	<rect x="106.9" y="1.9" class="st0" width="0.4" height="1.3"/>
	<rect x="108.6" y="1.9" class="st0" width="0.4" height="1.3"/>
	<rect x="110.3" y="1.9" class="st0" width="0.4" height="1.3"/>
	<rect x="112" y="1.9" class="st0" width="0.4" height="1.3"/>
	<rect x="113.6" y="1.9" class="st0" width="0.4" height="1.3"/>
</g>
<g>
	<rect x="118.5" y="1.9" class="st0" width="0.4" height="1.3"/>
	<rect x="120.2" y="1.9" class="st0" width="0.4" height="1.3"/>
	<rect x="121.8" y="1.9" class="st0" width="0.4" height="1.3"/>
	<rect x="123.5" y="1.9" class="st0" width="0.4" height="1.3"/>
	<rect x="125.2" y="1.9" class="st0" width="0.4" height="1.3"/>
	<rect x="126.8" y="1.9" class="st0" width="0.4" height="1.3"/>
	<rect x="128.5" y="1.9" class="st0" width="0.4" height="1.3"/>
	<rect x="130.2" y="1.9" class="st0" width="0.4" height="1.3"/>
</g>
<g>
	<rect x="135.1" y="1.9" class="st0" width="0.4" height="1.3"/>
	<rect x="136.8" y="1.9" class="st0" width="0.4" height="1.3"/>
	<rect x="138.4" y="1.9" class="st0" width="0.4" height="1.3"/>
	<rect x="140.1" y="1.9" class="st0" width="0.4" height="1.3"/>
	<rect x="141.8" y="1.9" class="st0" width="0.4" height="1.3"/>
	<rect x="143.4" y="1.9" class="st0" width="0.4" height="1.3"/>
	<rect x="145.1" y="1.9" class="st0" width="0.4" height="1.3"/>
	<rect x="146.8" y="1.9" class="st0" width="0.4" height="1.3"/>
</g>
<rect y="1.2" class="st1" width="0.6" height="2.7"/>
<rect x="33.1" y="1.2" class="st1" width="0.6" height="2.7"/>
<rect x="16.5" y="1.2" class="st1" width="0.6" height="2.7"/>
<rect x="49.7" y="1.2" class="st1" width="0.6" height="2.7"/>
<rect x="66.2" y="1.2" class="st1" width="0.6" height="2.7"/>
<rect x="82.8" y="1.2" class="st1" width="0.6" height="2.7"/>
<rect x="99.5" y="1.2" class="st1" width="0.6" height="2.7"/>
<rect x="116" y="1.2" class="st1" width="0.6" height="2.7"/>
<rect x="132.6" y="1.2" class="st1" width="0.6" height="2.7"/>
<rect x="149.8" y="1.2" class="st1" width="0.6" height="2.7"/>
</svg>
