<?xml version="1.0" encoding="UTF-8" standalone="no"?>
<!-- Generator: Adobe Illustrator 18.1.1, SVG Export Plug-In . SVG Version: 6.00 Build 0)  -->

<svg
   xmlns:dc="http://purl.org/dc/elements/1.1/"
   xmlns:cc="http://creativecommons.org/ns#"
   xmlns:rdf="http://www.w3.org/1999/02/22-rdf-syntax-ns#"
   xmlns:svg="http://www.w3.org/2000/svg"
   xmlns="http://www.w3.org/2000/svg"
   xmlns:sodipodi="http://sodipodi.sourceforge.net/DTD/sodipodi-0.dtd"
   xmlns:inkscape="http://www.inkscape.org/namespaces/inkscape"
   version="1.1"
   id="Слой_1"
   x="0px"
   y="0px"
   viewBox="192.9 25.1 50 50"
   enable-background="new 192.9 25.1 50 50"
   xml:space="preserve"
   inkscape:version="0.91 r13725"
   sodipodi:docname="phone.svg"><metadata
     id="metadata14"><rdf:RDF><cc:Work
         rdf:about=""><dc:format>image/svg+xml</dc:format><dc:type
           rdf:resource="http://purl.org/dc/dcmitype/StillImage" /></cc:Work></rdf:RDF></metadata><defs
     id="defs12" /><sodipodi:namedview
     pagecolor="#ffffff"
     bordercolor="#666666"
     borderopacity="1"
     objecttolerance="10"
     gridtolerance="10"
     guidetolerance="10"
     inkscape:pageopacity="0"
     inkscape:pageshadow="2"
     inkscape:window-width="1600"
     inkscape:window-height="837"
     id="namedview10"
     showgrid="false"
     inkscape:zoom="4.72"
     inkscape:cx="-23.834746"
     inkscape:cy="25"
     inkscape:window-x="-8"
     inkscape:window-y="-8"
     inkscape:window-maximized="1"
     inkscape:current-layer="Слой_1" /><g
     id="Layer_x0020_1"
     style="fill:#426565;fill-opacity:1"><g
       id="_152222920"
       style="fill:#426565;fill-opacity:1"><path
         id="_152222248"
         fill="#87CECE"
         d="M213.6,44.4c-4.7,2.7,2.5,16.1,7.6,13.1c0.9,1.6,3.8,6.6,4.7,8.2c-2.2,1.2-4,2-6.5,0.6    c-6.9-4-14.6-17.2-14.4-25.1c0.1-2.7,1.7-3.8,3.8-5C209.8,37.8,212.7,42.8,213.6,44.4L213.6,44.4z"
         style="fill:#426565;fill-opacity:1" /><path
         id="_150519168"
         fill="#87CECE"
         d="M215.6,44.2c-0.5,0.3-1.2,0.1-1.4-0.4l-4.5-7.7c-0.3-0.5-0.1-1.2,0.4-1.4l2.3-1.4    c0.5-0.3,1.2-0.1,1.4,0.4l4.5,7.7c0.3,0.5,0.1,1.2-0.4,1.4L215.6,44.2L215.6,44.2z"
         style="fill:#426565;fill-opacity:1" /><path
         id="_226148072"
         fill="#87CECE"
         d="M227.8,65.3c-0.5,0.3-1.2,0.1-1.4-0.4l-4.5-7.7c-0.3-0.5-0.1-1.2,0.4-1.4l2.3-1.4    c0.5-0.3,1.2-0.1,1.4,0.4l4.5,7.7c0.3,0.5,0.1,1.2-0.4,1.4L227.8,65.3L227.8,65.3z"
         style="fill:#426565;fill-opacity:1" /></g><path
       fill="#87CECE"
       d="M217.9,25.1L217.9,25.1L217.9,25.1c6.9,0,13.2,2.8,17.7,7.3c4.5,4.5,7.3,10.8,7.3,17.7h0v0v0h0   c0,6.9-2.8,13.2-7.3,17.7c-4.5,4.5-10.8,7.3-17.7,7.3v0h0h0v0c-6.9,0-13.2-2.8-17.7-7.3c-4.5-4.5-7.3-10.8-7.3-17.7h0v0v0h0   c0-6.9,2.8-13.2,7.3-17.7C204.7,27.9,211,25.1,217.9,25.1L217.9,25.1L217.9,25.1L217.9,25.1z M217.9,28.1L217.9,28.1L217.9,28.1   L217.9,28.1L217.9,28.1c-6.1,0-11.6,2.5-15.6,6.5c-4,4-6.5,9.5-6.5,15.6h0v0v0h0c0,6.1,2.5,11.6,6.5,15.6c4,4,9.5,6.5,15.6,6.5v0h0   h0v0c6.1,0,11.6-2.5,15.6-6.5c4-4,6.5-9.5,6.5-15.6h0v0v0h0c0-6.1-2.5-11.6-6.5-15.6C229.5,30.6,224,28.1,217.9,28.1L217.9,28.1z"
       id="path8"
       style="fill:#426565;fill-opacity:1" /></g></svg>