<?xml version="1.0" encoding="UTF-8" standalone="no"?>
<!-- Generator: Adobe Illustrator 22.0.1, SVG Export Plug-In . SVG Version: 6.00 Build 0)  -->

<svg
   xmlns:dc="http://purl.org/dc/elements/1.1/"
   xmlns:cc="http://creativecommons.org/ns#"
   xmlns:rdf="http://www.w3.org/1999/02/22-rdf-syntax-ns#"
   xmlns:svg="http://www.w3.org/2000/svg"
   xmlns="http://www.w3.org/2000/svg"
   xmlns:sodipodi="http://sodipodi.sourceforge.net/DTD/sodipodi-0.dtd"
   xmlns:inkscape="http://www.inkscape.org/namespaces/inkscape"
   version="1.1"
   id="Слой_1"
   x="0px"
   y="0px"
   viewBox="0 0 50 50"
   style="enable-background:new 0 0 50 50;"
   xml:space="preserve"
   inkscape:version="0.91 r13725"
   sodipodi:docname="saw.svg"><metadata
     id="metadata15"><rdf:RDF><cc:Work
         rdf:about=""><dc:format>image/svg+xml</dc:format><dc:type
           rdf:resource="http://purl.org/dc/dcmitype/StillImage" /><dc:title></dc:title></cc:Work></rdf:RDF></metadata><defs
     id="defs13" /><sodipodi:namedview
     pagecolor="#ffffff"
     bordercolor="#666666"
     borderopacity="1"
     objecttolerance="10"
     gridtolerance="10"
     guidetolerance="10"
     inkscape:pageopacity="0"
     inkscape:pageshadow="2"
     inkscape:window-width="1600"
     inkscape:window-height="837"
     id="namedview11"
     showgrid="false"
     inkscape:zoom="4.72"
     inkscape:cx="-23.834746"
     inkscape:cy="25"
     inkscape:window-x="-8"
     inkscape:window-y="-8"
     inkscape:window-maximized="1"
     inkscape:current-layer="g4138" /><style
     type="text/css"
     id="style3">
	.st0{fill:#6B513C;}
</style><g
     id="g4138"
     transform="matrix(0.9837876,0.82991662,-0.82991662,0.9837876,909.13155,-950.17177)"><g
       id="g4142"
       transform="matrix(0.57436537,0.69329431,-0.69329431,0.57436537,723.51873,498.48173)"><path
         sodipodi:nodetypes="cssssssssssssscssccccccc"
         style="opacity:1;fill:#4f3c2c;fill-opacity:1;fill-rule:evenodd;stroke:none;stroke-width:0.06215215px;stroke-linecap:butt;stroke-linejoin:miter;stroke-opacity:1"
         d="m -100.58791,1001.9719 c 0,0 8.482958,8.0643 12.700699,11.6181 0.361444,0.3045 0.54204,0.9294 0.385627,1.3779 -0.663981,1.9039 -2.127791,3.4341 -3.439566,5.4448 -0.268269,0.4113 0.598912,0.8011 0.992549,1.0933 0.721426,0.5355 1.656646,0.6889 2.426741,1.148 0.918641,0.5477 1.834627,1.1388 2.592014,1.9018 0.832464,0.8386 14.889602,12.7524 15.364887,13.8421 0.290101,0.6652 0.581571,1.4299 0.426705,2.138 -0.07039,0.3219 -0.319213,0.5967 -0.579539,0.7913 -0.295317,0.2208 -0.671915,0.3422 -1.037884,0.3699 -0.616133,0.047 -1.250941,-0.1124 -1.823775,-0.3527 -1.440107,-0.604 -15.542225,-12.3454 -16.635164,-13.4788 -1.269776,-1.3168 -2.290704,-2.511 -3.480814,-4.7921 -0.114318,-0.2191 -0.705176,0.1943 -0.705176,0.1943 0,0 -2.588594,2.4365 -4.326596,3.4254 -0.433596,0.2467 -1.129295,0.5117 -1.515327,0.1716 -4.617381,-4.0675 -12.897091,-11.7987 -12.897091,-11.7987 z m 8.486232,8.4646 -10.492712,12.2132 3.489185,3.3186 10.492718,-12.2131 z"
         id="path4160"
         inkscape:connector-curvature="0" /><path
         style="opacity:1;fill:#79b8b8;fill-opacity:1;fill-rule:evenodd;stroke:#000000;stroke-width:0.062;stroke-linecap:butt;stroke-linejoin:miter;stroke-miterlimit:4;stroke-dasharray:none;stroke-opacity:1"
         d="m -100.24165,1003.4791 c 0,0 1.162245,0.7042 1.530339,1.2566 1.318636,1.9791 3.600928,5.0442 2.08155,6.8499 -1.290605,1.5337 -4.401439,-1.7645 -6.073029,-0.6785 -1.25691,0.8167 -0.14811,3.681 -1.30505,4.6387 -0.84666,0.7009 -1.94819,-0.5377 -3.32727,-0.6407 -1.37909,-0.103 -3.03574,0.9296 -3.03574,0.9296 l -0.40661,-0.6147 z"
         id="path4165"
         inkscape:connector-curvature="0"
         sodipodi:nodetypes="csssssccc" /></g></g></svg>