<?xml version="1.0" encoding="UTF-8" standalone="no"?>
<!DOCTYPE svg  PUBLIC '-//W3C//DTD SVG 1.1//EN'  'http://www.w3.org/Graphics/SVG/1.1/DTD/svg11.dtd'>
<svg xmlns="http://www.w3.org/2000/svg">
<defs>
<font id="Geometria-BoldItalic" horiz-adv-x="770">
<font-face slope="-9" underline-position="-50" font-weight="700" descent="-200" panose-1="2 11 7 3 2 2 4 9 2 4" units-per-em="1000" unicode-range="U+0020-0491" bbox="-104 -206 1165 943" x-height="499" underline-thickness="50" font-family="Geometria" ascent="800" font-style="italic" cap-height="700"/>
<missing-glyph horiz-adv-x="1000"/>
<glyph glyph-name=".notdef" horiz-adv-x="1000"/>
<glyph glyph-name=".null" horiz-adv-x="0"/>
<glyph glyph-name="nonmarkingreturn" horiz-adv-x="333"/>
<glyph glyph-name="space" horiz-adv-x="256" unicode=" "/>
<glyph glyph-name="exclam" horiz-adv-x="334" unicode="!" d="M139 233l42 467h192l-105 -467h-129zM92 76q0 37 25.5 62.5t61.5 25.5t61.5 -25.5t25.5 -62.5q0 -36 -25.5 -61.5t-61.5 -25.5t-61.5 25.5t-25.5 61.5z"/>
<glyph glyph-name="quotedbl" horiz-adv-x="391" unicode='&quot;' d="M421 403h-122l47 297h122zM220 403h-122l47 297h121z"/>
<glyph glyph-name="numbersign" horiz-adv-x="750" unicode="#" d="M362 424l-24 -148h150l24 148h-150zM295 0h-110l26 167h-138l17 109h138l24 148h-138l16 109h139l27 167h110l-27 -167h150l27 167h109l-26 -167h139l-18 -109h-138l-24 -148h139l-17 -109h-139l-27 -167h-109l27 167h-151z"/>
<glyph glyph-name="dollar" horiz-adv-x="629" unicode="$" d="M642 656l-23 -140q-38 26 -104 47q-60 19 -123 19q-59 0 -92.5 -19t-33.5 -55q0 -27 34 -44l34 -14l47 -14l50 -15q86 -29 134 -67q60 -45 60 -128q0 -100 -72 -163q-73 -64 -181 -74l-15 -98h-130l15 101q-122 16 -189 69l23 147q39 -39 108 -64q72 -26 144 -26 q34 0 64 6q33 8 58 30t25 53q0 34 -34 52q-20 12 -38 17l-22 8q-6 2 -26.5 8t-25.5 8q-57 18 -81 28q-31 13 -63 34q-67 41 -67 130q0 98 66 153q68 56 172 66l16 98h130l-16 -102q92 -13 156 -51z"/>
<glyph glyph-name="percent" horiz-adv-x="818" unicode="%" d="M648 84q33 0 57.5 26.5t24.5 63.5q0 32 -20.5 52t-51.5 20q-34 0 -58.5 -26.5t-24.5 -63.5q0 -32 21 -52t52 -20zM658 336q76 0 123 -46q48 -46 48 -117q0 -74 -52 -126q-53 -53 -129 -53t-123 46q-48 46 -48 117q0 74 52 126q53 53 129 53zM270 454q33 0 57.5 26.5 t24.5 63.5q0 32 -20.5 52t-51.5 20q-34 0 -58.5 -26.5t-24.5 -63.5q0 -32 21 -52t52 -20zM280 706q76 0 123 -46q48 -46 48 -117q0 -74 -52 -126q-53 -53 -129 -53t-123 46q-48 46 -48 117q0 74 52 126q53 53 129 53zM253 0h-106l529 700h105z"/>
<glyph glyph-name="ampersand" horiz-adv-x="733" unicode="&amp;" d="M442 140l-156 192q-35 -13 -57.5 -43t-22.5 -70v-5q0 -47 38.5 -76t93.5 -29t104 31zM596 382h135q-29 -148 -116 -251l107 -131h-165l-37 45q-92 -59 -194 -59q-116 0 -187 61q-71 62 -71 168q0 75 45 134q47 59 105 81q-21 40 -21 93q0 86 61 138q62 53 158 53 q55 0 108 -19q56 -19 87 -48l-19 -125q-74 69 -167 69q-43 0 -66 -20t-23 -55q0 -42 55 -109l144 -177q45 70 61 152z"/>
<glyph glyph-name="quotesingle" horiz-adv-x="189" unicode="&apos;" d="M220 403h-122l47 297h121z"/>
<glyph glyph-name="parenleft" horiz-adv-x="359" unicode="(" d="M296 706h145q-102 -114 -157 -252t-55 -285q0 -206 112 -375h-145q-97 146 -97 370q0 319 197 542z"/>
<glyph glyph-name="parenright" horiz-adv-x="358" unicode=")" d="M143 -206h-145q102 114 157 252t55 285q0 206 -112 375h145q97 -146 97 -370q0 -319 -197 -542z"/>
<glyph glyph-name="asterisk" horiz-adv-x="421" unicode="*" d="M304 329h-86l22 117l-109 -61l-32 74l115 58l-96 55l54 73l90 -63l15 118h86l-22 -117l110 62l31 -74l-115 -58l96 -56l-54 -72l-89 62z"/>
<glyph glyph-name="plus" horiz-adv-x="609" unicode="+" d="M380 77h-128l30 191h-190l20 126h190l31 192h128l-31 -192h191l-20 -126h-191z"/>
<glyph glyph-name="comma" horiz-adv-x="300" unicode="," d="M106 -152h-115l134 303h154z"/>
<glyph glyph-name="hyphen" horiz-adv-x="494" unicode="-" d="M434 214h-309l21 127h309z"/>
<glyph glyph-name="period" horiz-adv-x="263" unicode="." d="M145 -11q-37 0 -62 25.5t-25 62.5q0 36 25 61.5t62 25.5q35 0 60.5 -25.5t25.5 -61.5q0 -37 -25.5 -62.5t-60.5 -25.5z"/>
<glyph glyph-name="slash" horiz-adv-x="533" unicode="/" d="M100 -140h-144l568 932h145z"/>
<glyph glyph-name="zero" horiz-adv-x="704" unicode="0" d="M382 121q56 0 100 45q84 85 84 231q0 77 -34 129q-33 53 -101 53q-57 0 -101 -45q-83 -87 -83 -231q0 -77 33 -130q34 -52 102 -52zM437 714q127 0 200 -87q73 -85 73 -227q0 -152 -86 -279q-42 -62 -107.5 -98.5t-140.5 -36.5q-126 0 -200 86q-73 86 -73 228 q0 154 86 279q42 62 107.5 98.5t140.5 36.5z"/>
<glyph glyph-name="one" horiz-adv-x="400" unicode="1" d="M314 0h-141l87 546l-160 -75l22 141l178 88h125z"/>
<glyph glyph-name="two" horiz-adv-x="578" unicode="2" d="M117 505l24 149q86 60 200 60q99 0 166 -58t67 -154q0 -70 -42.5 -132.5t-137.5 -138.5l-132 -105h294l-19 -126h-499l17 105l228 186q81 66 113 105q33 40 33 84q0 47 -31 73t-85 26q-101 0 -196 -74z"/>
<glyph glyph-name="three" horiz-adv-x="577" unicode="3" d="M613 700l-18 -108l-188 -155q64 -14 112 -62q49 -49 49 -130q0 -117 -84 -188q-85 -71 -213 -71q-140 0 -228 64l21 135q92 -70 203 -70q65 0 111 33q48 33 48 94q0 47 -36.5 75.5t-99.5 28.5q-47 0 -88 -16l14 92l193 154h-264l20 124h448z"/>
<glyph glyph-name="four" horiz-adv-x="641" unicode="4" d="M455 519l-228 -228h192zM513 0h-140l28 175h-350l15 104l416 421h142l-65 -409h103l-18 -116h-103z"/>
<glyph glyph-name="five" horiz-adv-x="587" unicode="5" d="M338 464q109 0 175 -63q67 -63 67 -155q0 -122 -89 -191t-223 -69q-133 0 -213 56l20 136q89 -63 192 -63q67 0 117 30q51 31 51 95q0 49 -40 78.5t-113 29.5q-72 0 -158 -24l100 376h379l-18 -124h-271l-32 -117q30 5 56 5z"/>
<glyph glyph-name="six" horiz-adv-x="638" unicode="6" d="M483 240q0 47 -30 77t-79 30q-40 0 -77.5 -24.5t-58.5 -63.5q-2 -14 -2 -19q0 -57 34 -93.5t88 -36.5q55 0 90 36.5t35 93.5zM422 459q92 -1 147 -60q56 -59 56 -146q0 -114 -77 -191q-76 -76 -197 -76q-119 0 -187 77q-67 76 -67 198q0 180 96 314q47 65 117 102t152 37 q108 0 172 -52l-20 -129q-62 51 -150 51q-79 0 -137 -55q-57 -54 -69 -135q59 65 164 65z"/>
<glyph glyph-name="seven" horiz-adv-x="567" unicode="7" d="M228 0h-154l377 571h-330l20 129h494l-18 -111z"/>
<glyph glyph-name="eight" horiz-adv-x="653" unicode="8" d="M398 416q46 0 79 24.5t33 65.5q0 38 -31 61.5t-77 23.5q-45 0 -77.5 -25t-32.5 -66q0 -36 31 -60t75 -24zM491 212q0 43 -36 70.5t-94 27.5q-57 0 -95.5 -29t-38.5 -76q0 -43 37.5 -70.5t92.5 -27.5q56 0 95 29t39 76zM531 361q49 -21 78.5 -62.5t29.5 -94.5 q0 -100 -81 -159q-82 -59 -195 -59q-75 0 -138 21t-106 69t-43 117q0 66 42.5 118t115.5 73q-38 19 -59 53.5t-21 77.5q0 91 73 145t178 54q62 0 115 -19q57 -20 94.5 -65t37.5 -103q0 -56 -33 -100.5t-88 -65.5z"/>
<glyph glyph-name="nine" horiz-adv-x="638" unicode="9" d="M252 460q0 -47 30 -77t79 -30q40 0 77.5 24.5t58.5 63.5q2 14 2 19q0 57 -34 93.5t-88 36.5q-55 0 -90 -36.5t-35 -93.5zM313 241q-92 2 -147 59q-56 59 -56 147q0 115 76 191t198 76q119 0 187 -77q67 -76 67 -198q0 -180 -97 -315q-46 -64 -116 -101t-152 -37 q-108 0 -172 52l20 129q61 -51 150 -51q79 0 136 54q58 55 70 136q-59 -65 -164 -65z"/>
<glyph glyph-name="colon" horiz-adv-x="263" unicode=":" d="M145 -11q-37 0 -62 25.5t-25 62.5q0 36 25 61.5t62 25.5q35 0 60.5 -25.5t25.5 -61.5q0 -37 -25.5 -62.5t-60.5 -25.5zM197 319q-37 0 -62 25.5t-25 62.5q0 36 25 61.5t62 25.5q35 0 60.5 -25.5t25.5 -61.5q0 -37 -25.5 -62.5t-60.5 -25.5z"/>
<glyph glyph-name="semicolon" horiz-adv-x="297" unicode=";" d="M231 319q-37 0 -62 25.5t-25 62.5q0 36 25 61.5t62 25.5q35 0 60.5 -25.5t25.5 -61.5q0 -37 -25.5 -62.5t-60.5 -25.5zM106 -152h-115l134 303h154z"/>
<glyph glyph-name="less" horiz-adv-x="609" unicode="&lt;" d="M588 190l-21 -133l-475 206l21 133l541 207l-23 -141l-386 -136z"/>
<glyph glyph-name="equal" horiz-adv-x="609" unicode="=" d="M583 154h-509l21 128h509zM619 381h-509l21 127h509z"/>
<glyph glyph-name="greater" horiz-adv-x="609" unicode="&gt;" d="M600 263l-542 -206l23 141l386 136l-343 137l21 132l476 -207z"/>
<glyph glyph-name="question" horiz-adv-x="492" unicode="?" d="M143 77q0 36 25 61.5t61 25.5t61.5 -25.5t25.5 -61.5q0 -37 -25.5 -62.5t-61.5 -25.5t-61 25.5t-25 62.5zM109 535l19 128q88 51 197 51q93 0 158 -50t65 -135q0 -84 -61 -138q-62 -54 -155 -78l-13 -80h-134l24 149q29 5 59 14.5t61.5 25t51.5 39.5t20 52 q0 35 -30.5 53.5t-85.5 18.5q-78 0 -176 -50z"/>
<glyph glyph-name="at" horiz-adv-x="939" unicode="@" d="M591 214l19 119q-13 25 -39.5 41t-58.5 16q-51 0 -85.5 -37t-34.5 -91q0 -46 29 -74.5t73 -28.5q60 0 97 55zM542 714q176 0 290 -111q115 -109 115 -272q0 -113 -61 -195q-60 -82 -159 -82q-95 0 -124 71q-67 -75 -159 -75q-84 0 -133 57q-49 56 -49 142q0 100 61 174 q61 75 164 75q45 0 82 -18.5t57 -45.5l8 52h121l-44 -284l-1 -6q0 -7 -1 -14.5t-1 -11.5q0 -32 15.5 -50t42.5 -18q58 0 100 68q43 68 43 160q0 147 -100 247q-100 102 -268 102h-10q-81 0 -158 -35t-134.5 -93t-92.5 -137.5t-35 -163.5v-8q0 -160 102 -264 q102 -105 265 -105q114 0 220 58l-6 -42q-96 -51 -215 -51q-173 0 -289 114q-115 112 -115 289q0 125 60 233q62 108 169 174q110 66 240 66z"/>
<glyph glyph-name="A" d="M531 281l-62 243l-139 -243h201zM754 0h-150l-42 162h-299l-92 -162h-155l411 704h138z" unicode="A"/>
<glyph glyph-name="B" horiz-adv-x="716" unicode="B" d="M289 426h163q44 0 73 23t29 64q0 31 -21.5 49t-60.5 18h-159zM241 124h194q52 0 86 27.5t34 75.5q0 37 -26 58.5t-71 21.5h-188zM591 384q52 -12 85.5 -54.5t33.5 -104.5q0 -103 -76 -164q-74 -61 -191 -61h-366l110 700h314q89 0 142 -42t53 -114q0 -54 -27.5 -96 t-77.5 -64z"/>
<glyph glyph-name="C" horiz-adv-x="677" unicode="C" d="M252 326q0 -89 59 -148q59 -57 157 -57q113 0 198 59l-22 -146q-90 -48 -189 -48q-157 0 -254 93q-96 93 -96 238q0 173 112 285t289 112q120 0 212 -48l-24 -138q-82 51 -189 51q-112 0 -183 -71q-70 -70 -70 -182z"/>
<glyph glyph-name="D" horiz-adv-x="779" unicode="D" d="M241 129h143q118 0 182 69q65 71 65 181q0 81 -55 136q-56 56 -145 56h-119zM188 700h237q160 0 257 -91q97 -90 97 -235q0 -162 -115 -268t-294 -106h-293z"/>
<glyph glyph-name="E" horiz-adv-x="649" unicode="E" d="M602 0h-525l111 700h514l-20 -129h-370l-22 -135h298l-20 -127h-298l-29 -180h381z"/>
<glyph glyph-name="F" horiz-adv-x="628" unicode="F" d="M221 0h-144l111 700h513l-20 -129h-369l-23 -142h285l-20 -127h-285z"/>
<glyph glyph-name="G" horiz-adv-x="766" unicode="G" d="M588 158l41 248h144l-52 -319q-110 -101 -278 -101q-150 0 -244 93t-94 240q0 171 112 283t289 112q128 0 220 -54l-24 -137q-82 56 -197 56q-112 0 -183 -71q-70 -70 -70 -184q0 -94 57 -149q59 -56 148 -56q77 0 131 39z"/>
<glyph glyph-name="H" horiz-adv-x="758" unicode="H" d="M221 0h-144l111 700h144l-42 -262h316l42 262h143l-111 -700h-143l49 307h-316z"/>
<glyph glyph-name="I" horiz-adv-x="307" unicode="I" d="M225 0h-143l111 700h143z"/>
<glyph glyph-name="J" horiz-adv-x="510" unicode="J" d="M409 700h143l-76 -478q-38 -236 -271 -236q-49 0 -97.5 12.5t-75.5 33.5l23 143q23 -24 61.5 -39t76.5 -15q64 0 99 32.5t47 109.5z"/>
<glyph glyph-name="K" horiz-adv-x="702" unicode="K" d="M221 0h-144l110 700h144l-44 -277l296 277h180l-348 -333l291 -367h-172l-262 324z"/>
<glyph glyph-name="L" horiz-adv-x="603" unicode="L" d="M576 0h-499l111 700h144l-91 -571h355z"/>
<glyph glyph-name="M" horiz-adv-x="845" unicode="M" d="M878 700l-110 -700h-142l76 482l-196 -228h-80l-130 228l-75 -482h-144l110 700h138l158 -293l248 293h147z"/>
<glyph glyph-name="N" d="M693 0h-118l-284 464l-73 -464h-141l110 700h122l281 -462l73 462h140z" unicode="N"/>
<glyph glyph-name="O" horiz-adv-x="832" unicode="O" d="M453 121q101 0 165 73q66 74 66 182q0 87 -55 145t-146 58q-99 0 -165 -73q-66 -74 -66 -182q0 -87 55 -145t146 -58zM487 714q157 0 251 -94t94 -244q0 -163 -111 -277q-110 -113 -273 -113q-155 0 -249 94t-94 244q0 164 110 277t272 113z"/>
<glyph glyph-name="P" horiz-adv-x="659" unicode="P" d="M284 400h157q50 0 84 26t34 72q0 36 -24 56t-69 20h-154zM188 700h294q103 0 163 -51t60 -135q0 -104 -76 -171q-75 -66 -192 -66h-172l-44 -277h-144z"/>
<glyph glyph-name="Q" horiz-adv-x="832" unicode="Q" d="M453 121q101 0 165 73q66 74 66 182q0 87 -55 145t-146 58q-99 0 -165 -73q-66 -74 -66 -182q0 -87 55 -145t146 -58zM487 714q157 0 251 -94t94 -244q0 -130 -73 -231q-74 -101 -190 -140q38 -41 104 -41q45 0 86 21l-19 -126q-46 -18 -96 -18q-116 0 -246 148 q-136 17 -214 107q-79 91 -79 228q0 164 110 277t272 113z"/>
<glyph glyph-name="R" horiz-adv-x="730" unicode="R" d="M285 404h172q49 0 80.5 25t31.5 68q0 36 -25 56.5t-69 20.5h-163zM548 299l174 -299h-162l-165 283h-129l-45 -283h-144l111 700h306q103 0 162 -53t59 -135q0 -74 -44.5 -130.5t-122.5 -82.5z"/>
<glyph glyph-name="S" horiz-adv-x="629" unicode="S" d="M642 656l-23 -140q-38 26 -104 47q-60 19 -123 19q-59 0 -92.5 -19t-33.5 -55q0 -27 34 -44l34 -14l47 -14l50 -15q86 -29 134 -67q60 -45 60 -128q0 -112 -87 -176q-86 -64 -213 -64q-79 0 -153 20t-119 55l23 147q39 -39 108 -64q72 -26 144 -26q34 0 64 6q33 8 58 30 t25 53q0 34 -34 52q-20 12 -38 17l-22 8q-6 2 -26.5 8t-25.5 8q-57 18 -81 28q-31 13 -63 34q-67 41 -67 130q0 108 81 165q83 57 205 57q140 0 238 -58z"/>
<glyph glyph-name="T" horiz-adv-x="647" unicode="T" d="M121 571l20 129h587l-20 -129h-222l-91 -571h-144l91 571h-221z"/>
<glyph glyph-name="U" horiz-adv-x="739" unicode="U" d="M570 285l66 415h145l-67 -423q-23 -140 -113 -216q-91 -75 -216 -75q-116 0 -196 68t-80 189q0 37 7 76l60 381h145l-63 -390q-5 -32 -5 -52q0 -65 38.5 -101t106.5 -36q70 0 115 41t57 123z"/>
<glyph glyph-name="V" horiz-adv-x="760" unicode="V" d="M407 196l284 504h161l-405 -704h-136l-183 704h155z"/>
<glyph glyph-name="W" horiz-adv-x="1075" unicode="W" d="M357 227l234 475h112l83 -475l219 473h160l-347 -704h-127l-80 467l-229 -467h-127l-124 704h156z"/>
<glyph glyph-name="X" horiz-adv-x="725" unicode="X" d="M557 0l-148 262l-230 -262h-173l332 377l-180 323h162l115 -207l182 207h171l-282 -322l213 -378h-162z"/>
<glyph glyph-name="Y" horiz-adv-x="705" unicode="Y" d="M420 443l221 257h163l-330 -383l-50 -317h-143l49 314l-210 386h161z"/>
<glyph glyph-name="Z" horiz-adv-x="641" unicode="Z" d="M608 0h-574l16 102l434 469h-346l20 129h541l-16 -101l-434 -470h379z"/>
<glyph glyph-name="bracketleft" horiz-adv-x="429" unicode="[" d="M360 -206h-314l144 912h314l-17 -111h-186l-110 -690h186z"/>
<glyph glyph-name="backslash" horiz-adv-x="532" unicode="\" d="M252 792l273 -932h-131l-273 932h131z"/>
<glyph glyph-name="bracketright" horiz-adv-x="429" unicode="]" d="M147 706h314l-144 -912h-313l16 111h186l110 690h-186z"/>
<glyph glyph-name="asciicircum" horiz-adv-x="550" unicode="^" d="M222 339h-134l237 399h133l111 -399h-133l-63 278z"/>
<glyph glyph-name="underscore" horiz-adv-x="645" unicode="_" d="M617 -149h-636l15 94h636z"/>
<glyph glyph-name="grave" horiz-adv-x="521" unicode="`" d="M243 716h170l83 -146h-122z"/>
<glyph glyph-name="a" horiz-adv-x="602" unicode="a" d="M394 145l10 52q-44 30 -110 30q-46 0 -74.5 -19t-28.5 -54q0 -29 23.5 -44.5t64.5 -15.5q33 0 65 14.5t50 36.5zM569 106q10 0 25 5l-16 -102q-28 -18 -74 -18q-91 0 -108 62q-68 -66 -166 -66q-81 0 -130 43t-49 112q0 82 60 129q62 47 147 47q88 0 159 -38q4 25 4 36 q0 81 -127 81q-79 0 -150 -34l18 117q75 32 175 32q97 0 161 -43t64 -134q0 -25 -7 -60l-16 -97q-5 -33 -5 -39q0 -33 35 -33z"/>
<glyph glyph-name="b" horiz-adv-x="648" unicode="b" d="M389 389q-38 0 -73 -20t-56 -53l-21 -133q16 -30 51 -51.5t75 -21.5q60 0 102 44q42 45 42 111q0 56 -33 90t-87 34zM220 66l-10 -66h-141l111 700h141l-42 -259q68 71 166 71q94 0 151 -67t57 -166q0 -116 -73 -204q-72 -88 -191 -88q-55 0 -100.5 23t-68.5 56z"/>
<glyph glyph-name="c" horiz-adv-x="514" unicode="c" d="M533 472l-19 -118q-65 35 -132 35q-74 0 -121 -43q-48 -42 -48 -108q0 -62 46 -95q47 -33 110 -33q64 0 121 28l-19 -123q-60 -28 -136 -28q-114 0 -188 67q-74 68 -74 177q0 120 86 200q86 81 212 81q92 0 162 -40z"/>
<glyph glyph-name="d" horiz-adv-x="647" unicode="d" d="M337 110q38 0 73 20t56 53l21 133q-16 30 -51 51.5t-75 21.5q-60 0 -102 -45q-42 -44 -42 -110q0 -56 33 -90t87 -34zM506 433l42 267h141l-111 -700h-141l10 58q-68 -71 -166 -71q-94 0 -151 67q-57 68 -57 166q0 116 72 204q73 88 192 88q55 0 100.5 -23t68.5 -56z"/>
<glyph glyph-name="e" horiz-adv-x="570" unicode="e" d="M219 301h223v7q0 42 -25.5 67.5t-70.5 25.5q-46 0 -81 -26.5t-46 -73.5zM366 107q82 0 159 41l-17 -116q-64 -45 -177 -45q-111 0 -185 66q-73 66 -73 174q0 120 79 202q80 83 200 83q103 0 164 -61q62 -62 62 -153q0 -40 -9 -87h-360q3 -50 46 -77t111 -27z"/>
<glyph glyph-name="f" horiz-adv-x="432" unicode="f" d="M309 381l-61 -381h-141l61 381h-89l19 118h89l5 37q12 83 63 129.5t134 46.5q72 0 123 -22l-18 -114q-43 18 -82 18q-40 0 -59 -22t-26 -73h155l-19 -118h-154z"/>
<glyph glyph-name="g" horiz-adv-x="640" unicode="g" d="M338 132q75 0 126 68l19 124q-16 28 -49.5 46.5t-74.5 18.5q-62 0 -102 -40t-40 -102q0 -52 33.5 -83.5t87.5 -31.5zM440 46l5 35q-66 -70 -164 -70q-95 0 -152 64q-56 65 -56 160q0 111 71 194q72 83 191 83q109 0 166 -74l10 61h141l-72 -458q-19 -127 -111 -187 q-91 -60 -215 -60t-192 43l20 127q74 -48 174 -48q45 0 78 10q39 10 69.5 41.5t36.5 78.5z"/>
<glyph glyph-name="h" horiz-adv-x="615" unicode="h" d="M602 274l-43 -274h-141l40 250q5 42 5 50q0 39 -23 61t-60 22q-35 0 -67 -18.5t-51 -48.5l-52 -316h-141l111 700h141l-42 -259q68 71 167 71q75 0 119 -45t44 -121q0 -31 -7 -72z"/>
<glyph glyph-name="i" horiz-adv-x="293" unicode="i" d="M160 631q0 36 24.5 60.5t59.5 24.5t60 -24.5t25 -60.5q0 -35 -25 -59.5t-60 -24.5t-59.5 24.5t-24.5 59.5zM295 499l-78 -499h-141l78 499h141z"/>
<glyph glyph-name="j" horiz-adv-x="293" unicode="j" d="M160 631q0 36 24.5 60.5t59.5 24.5t60 -24.5t25 -60.5q0 -35 -25 -59.5t-60 -24.5t-59.5 24.5t-24.5 59.5zM81 35l73 464h141l-82 -522q-15 -90 -69.5 -136.5t-140.5 -46.5q-72 0 -107 22l19 120q31 -19 71 -19q44 0 64 25t31 93z"/>
<glyph glyph-name="k" horiz-adv-x="596" unicode="k" d="M210 0h-141l110 700h142l-61 -378l198 177h179l-256 -234l211 -265h-164l-183 223z"/>
<glyph glyph-name="l" horiz-adv-x="310" unicode="l" d="M171 700h141l-83 -523q-4 -28 -4 -33q0 -32 37 -32q19 0 37 8l-17 -116q-34 -17 -86 -17q-56 0 -86.5 29t-30.5 84q0 16 6 60z"/>
<glyph glyph-name="m" horiz-adv-x="927" unicode="m" d="M210 0h-141l79 499h141l-10 -61q62 74 164 74q53 0 91 -24t50 -61q76 85 181 85q71 0 113.5 -41t42.5 -114q0 -14 -7 -64l-46 -293h-141l43 273q3 19 3 35q0 75 -74 75q-32 0 -62.5 -19t-46.5 -47l-51 -317h-141l43 270q4 21 4 38q0 39 -20.5 57t-52.5 18q-30 0 -62 -19 t-50 -47z"/>
<glyph glyph-name="n" horiz-adv-x="615" unicode="n" d="M602 274l-43 -274h-141l40 250q5 42 5 50q0 39 -23 61t-60 22q-35 0 -67 -18.5t-51 -48.5l-52 -316h-141l78 499h141l-9 -58q68 71 167 71q75 0 119 -45t44 -121q0 -31 -7 -72z"/>
<glyph glyph-name="o" horiz-adv-x="608" unicode="o" d="M334 110q60 0 102 45q43 44 43 111q0 55 -35.5 89t-91.5 34q-60 0 -102 -44q-42 -43 -42 -110q0 -56 35.5 -90.5t90.5 -34.5zM351 512q114 0 188 -71t74 -179q0 -111 -80 -194q-79 -81 -199 -81q-115 0 -188 70t-73 181q0 112 79 192q79 82 199 82z"/>
<glyph glyph-name="p" horiz-adv-x="647" unicode="p" d="M388 389q-38 0 -73 -20t-56 -53l-21 -133q16 -30 51 -51.5t75 -21.5q60 0 102 44q42 45 42 111q0 56 -33 90t-87 34zM219 66l-42 -266h-141l111 699h141l-10 -58q68 71 166 71q94 0 151 -67t57 -166q0 -116 -73 -204q-72 -88 -191 -88q-55 0 -100.5 23t-68.5 56z"/>
<glyph glyph-name="q" horiz-adv-x="648" unicode="q" d="M337 110q38 0 73 20t56 53l21 133q-16 30 -51 51.5t-75 21.5q-60 0 -102 -45q-42 -44 -42 -110q0 -56 33 -90t87 -34zM506 433l10 66h141l-111 -699h-141l42 258q-68 -71 -166 -71q-94 0 -151 67q-57 68 -57 166q0 116 72 204q73 88 192 88q55 0 100.5 -23t68.5 -56z"/>
<glyph glyph-name="r" horiz-adv-x="423" unicode="r" d="M210 0h-141l79 499h141l-13 -83q26 38 80 67q53 29 109 29q12 0 16 -1l-22 -139q-19 6 -47 6q-51 0 -92.5 -23.5t-62.5 -60.5z"/>
<glyph glyph-name="s" horiz-adv-x="503" unicode="s" d="M515 455l-19 -117q-82 60 -179 60q-80 0 -80 -40q0 -18 19 -28t89 -31q76 -22 112.5 -56.5t36.5 -87.5q0 -81 -68 -125q-67 -43 -159 -43q-63 0 -125.5 16.5t-100.5 42.5l18 119q85 -63 206 -63q85 0 85 43q0 21 -33 33q-14 7 -66 24q-83 25 -122.5 57.5t-39.5 82.5 q0 83 64 126q65 44 159 44q124 0 203 -57z"/>
<glyph glyph-name="t" horiz-adv-x="441" unicode="t" d="M138 117q0 23 6 60l32 204h-98l19 118h98l22 137h141l-22 -137h142l-19 -118h-142l-28 -181q-4 -25 -4 -41q0 -46 58 -46q40 0 75 19l-18 -116q-47 -29 -119 -29q-66 0 -104.5 34t-38.5 96z"/>
<glyph glyph-name="u" horiz-adv-x="617" unicode="u" d="M93 225l43 274h141l-40 -250q-5 -42 -5 -50q0 -39 23 -61t60 -22q35 0 67 18.5t51 48.5l52 316h141l-78 -499h-141l9 58q-68 -71 -167 -71q-75 0 -119 45t-44 121q0 31 7 72z"/>
<glyph glyph-name="v" horiz-adv-x="589" unicode="v" d="M320 174l184 325h149l-296 -503h-128l-138 503h146z"/>
<glyph glyph-name="w" horiz-adv-x="827" unicode="w" d="M597 200l147 299h142l-250 -503h-121l-58 302l-150 -302h-120l-89 503h136l52 -299l146 301h112z"/>
<glyph glyph-name="x" horiz-adv-x="593" unicode="x" d="M474 499h164l-221 -238l160 -261h-151l-97 158l-148 -158h-164l242 260l-146 239h151l85 -139z"/>
<glyph glyph-name="y" horiz-adv-x="582" unicode="y" d="M492 499h150l-310 -556q-84 -149 -226 -149q-56 0 -96 21l19 122q35 -21 72 -21q74 0 133 101l-149 482h147l90 -329z"/>
<glyph glyph-name="z" horiz-adv-x="526" unicode="z" d="M493 0h-461l15 93l294 288h-236l19 118h429l-15 -96l-295 -285h269z"/>
<glyph glyph-name="braceleft" horiz-adv-x="408" unicode="{" d="M404 706h79l-16 -111h-50q-32 0 -54 -19.5t-27 -51.5l-22 -142q-18 -108 -101 -132q62 -20 62 -93q0 -18 -3 -39l-19 -123q-4 -28 -4 -35q0 -25 15 -40t44 -15h49l-17 -111h-80q-68 0 -106 35.5t-38 97.5q0 16 3 34l19 116q5 33 5 48q0 32 -14.5 48.5t-49.5 20.5l18 112 q46 5 66 33t30 89l18 111q12 77 64 122t129 45z"/>
<glyph glyph-name="bar" horiz-adv-x="346" unicode="|" d="M218 -111h-126l138 871h126z"/>
<glyph glyph-name="braceright" horiz-adv-x="409" unicode="}" d="M83 -206h-79l16 111h50q32 0 54 19.5t27 51.5l22 142q18 108 101 132q-62 20 -62 93q0 18 3 39l19 123q4 28 4 35q0 25 -15 40t-44 15h-49l17 111h80q68 0 106 -35.5t38 -97.5q0 -16 -3 -34l-19 -116q-5 -33 -5 -48q0 -32 14.5 -48.5t49.5 -20.5l-18 -112q-46 -5 -66 -33 t-30 -89l-18 -111q-12 -77 -64 -122t-129 -45z"/>
<glyph glyph-name="asciitilde" horiz-adv-x="598" unicode="~" d="M475 292q74 0 126 46l-20 -127q-18 -19 -52.5 -30.5t-72.5 -11.5q-49 0 -127 27q-77 27 -127 27q-74 0 -124 -46l20 126q17 19 52 31t73 12q49 0 125 -27q77 -27 127 -27z"/>
<glyph glyph-name="nbspace" horiz-adv-x="256" unicode=" "/>
<glyph glyph-name="exclamdown" horiz-adv-x="334" unicode="¡" d="M275 266l-42 -466h-192l105 466h129zM148 424q0 36 25.5 61t61.5 25t61.5 -25t25.5 -61q0 -37 -25.5 -62.5t-61.5 -25.5t-61.5 25.5t-25.5 62.5z"/>
<glyph glyph-name="cent" horiz-adv-x="514" unicode="¢" d="M320 508l18 108h119l-18 -110q49 -10 94 -34l-19 -118q-65 35 -132 35q-74 0 -121 -43q-48 -42 -48 -108q0 -62 46 -95q47 -33 110 -33q64 0 121 28l-19 -123q-54 -24 -114 -27l-17 -105h-119l19 118q-77 25 -122 85.5t-45 144.5q0 107 69 183q72 78 178 94z"/>
<glyph glyph-name="sterling" horiz-adv-x="589" unicode="£" d="M166 282h-81l17 111h82l15 92q18 110 92.5 169.5t192.5 59.5q96 0 157 -36l-21 -134q-59 35 -129 35q-135 0 -154 -126l-10 -60h225l-17 -111h-226l-14 -89q-7 -44 -39 -64h314l-20 -129h-510l20 129h23q35 0 50 19.5t22 66.5z"/>
<glyph glyph-name="currency" horiz-adv-x="575" unicode="¤" d="M264 270q33 -33 80 -33q48 0 79 33q33 34 33 81t-33 80q-31 34 -79 34q-47 0 -80 -34q-32 -34 -32 -80t32 -81zM524 232l66 -66l-61 -61l-65 66q-56 -37 -120 -37t-120 37l-65 -66l-61 61l66 66q-36 54 -36 119t36 119l-66 66l61 61l65 -66q56 37 120 37t120 -37l65 66 l61 -61l-66 -66q36 -54 36 -119t-36 -119z"/>
<glyph glyph-name="yen" horiz-adv-x="673" unicode="¥" d="M87 129l15 94h196l11 70h-196l16 95h156l-166 312h157l126 -250l207 250h162l-264 -312h158l-16 -95h-197l-11 -70h197l-15 -94h-197l-20 -129h-143l20 129h-196z"/>
<glyph glyph-name="brokenbar" horiz-adv-x="346" unicode="¦" d="M300 407h-126l56 353h126zM218 -111h-126l56 353h126z"/>
<glyph glyph-name="section" horiz-adv-x="650" unicode="§" d="M366 206l75 -28q34 6 55 25.5t21 47.5q0 25 -36 46q-13 9 -51 24l-62 22l-75 27q-34 -6 -55 -25t-21 -47q0 -27 38 -49q28 -13 40 -18l22 -8zM392 473l70 -24q96 -33 143 -73.5t47 -102.5q0 -52 -32 -92t-88 -61q43 -40 43 -95q0 -95 -76 -143q-77 -48 -190 -48 q-140 0 -235 61l20 131q110 -68 222 -68q111 0 111 53q0 25 -36 44q-13 7 -40 17l-24 8q-8 3 -55 19q-97 35 -143.5 74.5t-46.5 101.5q0 52 32 92t88 62q-43 40 -43 94q0 95 76 143q77 48 190 48q140 0 235 -61l-20 -130q-110 67 -222 67q-111 0 -111 -53q0 -21 33 -42 q8 -5 52 -22z"/>
<glyph glyph-name="dieresis" horiz-adv-x="521" unicode="¨" d="M247 569q-30 0 -52 21.5t-22 52.5q0 30 22 51.5t52 21.5q31 0 52.5 -21t21.5 -52t-21.5 -52.5t-52.5 -21.5zM519 590q-21 -21 -52 -21q-32 0 -53 21t-21 53q0 31 21 52t53 21q31 0 52 -21t21 -52q0 -32 -21 -53z"/>
<glyph glyph-name="copyright" horiz-adv-x="836" unicode="©" d="M473 20q138 0 232 97q95 98 95 234q0 138 -94 233q-94 96 -231 96q-138 0 -232 -97q-95 -98 -95 -234t94 -233q94 -96 231 -96zM499 150q-90 0 -149 58q-60 59 -60 142q0 84 60 141q59 58 149 58q57 0 101 -23v-85q-49 29 -101 29q-51 0 -86 -34.5t-35 -85.5 q0 -52 36 -86q35 -34 89 -34q61 0 105 33v-85q-46 -28 -109 -28zM112 350q0 150 106 256q107 108 257 108q151 0 256 -107t105 -257t-106 -257q-107 -107 -257 -107q-151 0 -256 107q-105 106 -105 257z"/>
<glyph glyph-name="ordfeminine" horiz-adv-x="455" unicode="ª" d="M478 397q10 0 19 3l-11 -70q-22 -12 -51 -12q-67 0 -77 48q-52 -51 -128 -51q-60 0 -96.5 32t-36.5 83q0 62 45 96q46 35 109 35q67 0 123 -30q4 16 4 33q0 64 -98 64q-59 0 -114 -26l13 80q51 25 130 25q73 0 118 -33t45 -96q0 -14 -5 -47l-13 -80q-3 -18 -3 -28 q0 -26 27 -26zM357 431l7 41q-38 24 -90 24q-37 0 -60 -15t-23 -43q0 -48 71 -48q60 0 95 41z"/>
<glyph glyph-name="guillemotleft" horiz-adv-x="604" unicode="«" d="M316 35h-140l-108 179l11 71l165 179h142l-196 -221zM564 35h-140l-109 179l12 71l165 179h142l-196 -221z"/>
<glyph glyph-name="logicalnot" horiz-adv-x="564" unicode="¬" d="M536 138h-126l25 160h-337l20 127h463z"/>
<glyph glyph-name="uni00AD" horiz-adv-x="494" unicode="­" d="M434 214h-309l21 127h309z"/>
<glyph glyph-name="registered" horiz-adv-x="804" unicode="®" d="M441 20q138 0 232 97q95 98 95 234q0 138 -94 233q-94 96 -231 96q-138 0 -232 -97q-95 -98 -95 -234t94 -233q94 -96 231 -96zM374 479v-89h90q51 0 51 43q0 22 -13.5 34t-37.5 12h-90zM374 168h-85v383h179q60 0 96.5 -32t36.5 -83q0 -38 -20.5 -66.5t-57.5 -39.5 l118 -162h-95l-111 152h-61v-152zM80 350q0 150 106 256q106 108 257 108t256 -107t105 -257t-106 -257q-107 -107 -257 -107q-151 0 -256 107q-105 106 -105 257z"/>
<glyph glyph-name="overscore" horiz-adv-x="550" unicode="¯" d="M529 595h-307l15 95h307z"/>
<glyph glyph-name="degree" horiz-adv-x="390" unicode="°" d="M443 556q0 -64 -48 -111q-46 -46 -112 -46t-113 46q-47 47 -47 111t47 111q49 47 113 47q65 0 112 -47q48 -47 48 -111zM207 556q0 -32 22 -55t54 -23t54 23t22 55q0 33 -22 55.5t-54 22.5t-54 -22.5t-22 -55.5z"/>
<glyph glyph-name="plusminus" horiz-adv-x="609" unicode="±" d="M561 19h-509l20 126h509zM401 210h-128l25 163h-190l20 126h190l27 167h128l-27 -167h191l-20 -126h-191z"/>
<glyph glyph-name="twosuperior" horiz-adv-x="347" unicode="²" d="M133 583l16 95q47 29 110 29q58 0 96 -32t38 -85q0 -39 -22 -72t-74 -72l-58 -44h145l-13 -80h-283l12 68l121 95q42 33 58 52t16 39t-15 32.5t-41 12.5q-50 0 -106 -38z"/>
<glyph glyph-name="threesuperior" horiz-adv-x="330" unicode="³" d="M398 700l-11 -70l-91 -71q34 -10 55.5 -36.5t21.5 -64.5q0 -65 -46.5 -104t-119.5 -39q-84 0 -131 34l15 88q43 -38 111 -38q32 0 54.5 14.5t22.5 40.5q0 21 -16.5 33t-46.5 12q-32 0 -57 -9l9 59l95 70h-133l14 81h254z"/>
<glyph glyph-name="acute" horiz-adv-x="482" unicode="´" d="M360 570h-122l107 146h171z"/>
<glyph glyph-name="mu" horiz-adv-x="627" unicode="µ" d="M176 -200h-140l110 699h141l-40 -250q-5 -42 -5 -50q0 -39 23 -61t60 -22q35 0 67 18.5t51 48.5l52 316h141l-78 -499h-141l9 58q-68 -71 -167 -71q-25 0 -52 7z"/>
<glyph glyph-name="paragraph" horiz-adv-x="572" unicode="¶" d="M382 700h223l-110 -700h-144l45 288h-78q-98 0 -154 49t-56 129q0 104 80 169t194 65z"/>
<glyph glyph-name="middot" horiz-adv-x="263" unicode="·" d="M188 299q-37 0 -62 25.5t-25 62.5q0 36 25 61.5t62 25.5q35 0 60.5 -25.5t25.5 -61.5q0 -37 -25.5 -62.5t-60.5 -25.5z"/>
<glyph glyph-name="cedilla" horiz-adv-x="503" unicode="¸" d="M225 11h113l-71 -156h-163z"/>
<glyph glyph-name="onesuperior" horiz-adv-x="263" unicode="¹" d="M265 322h-96l44 280l-109 -51l15 94l113 55h92z"/>
<glyph glyph-name="ordmasculine" horiz-adv-x="462" unicode="º" d="M305 404q47 0 79 33.5t32 84.5q0 42 -27.5 68.5t-70.5 26.5q-48 0 -79.5 -32.5t-31.5 -83.5q0 -42 27.5 -69.5t70.5 -27.5zM316 707q86 0 144 -53q58 -52 58 -134t-62 -144q-61 -61 -151 -61q-85 0 -143 53q-57 52 -57 136q0 82 60 142q61 61 151 61z"/>
<glyph glyph-name="guillemotright" horiz-adv-x="604" unicode="»" d="M362 464h139l109 -179l-11 -71l-165 -179h-142l196 222zM114 464h140l108 -179l-11 -71l-165 -179h-141l195 222z"/>
<glyph glyph-name="onequarter" horiz-adv-x="769" unicode="¼" d="M652 272l-111 -108h93zM700 0h-92l14 90h-190l12 68l220 220h98l-35 -214h54l-13 -74h-53zM265 322h-96l44 280l-109 -51l15 94l113 55h92zM104 0l533 700h108l-533 -700h-108z"/>
<glyph glyph-name="onehalf" horiz-adv-x="818" unicode="½" d="M554 261l16 95q47 29 110 29q58 0 96 -32t38 -85q0 -39 -22 -72t-74 -72l-58 -44h145l-13 -80h-283l12 68l121 95q42 33 58 52t16 39t-15 32.5t-41 12.5q-50 0 -106 -38zM265 322h-96l44 280l-109 -51l15 94l113 55h92zM104 0l533 700h108l-533 -700h-108z"/>
<glyph glyph-name="threequarters" horiz-adv-x="809" unicode="¾" d="M144 0l533 700h108l-533 -700h-108zM398 700l-11 -70l-91 -71q34 -10 55.5 -36.5t21.5 -64.5q0 -65 -46.5 -104t-119.5 -39q-84 0 -131 34l15 88q43 -38 111 -38q32 0 54.5 14.5t22.5 40.5q0 21 -16.5 33t-46.5 12q-32 0 -57 -9l9 59l95 70h-133l14 81h254zM692 272 l-111 -108h93zM740 0h-92l14 90h-190l12 68l220 220h98l-35 -214h54l-13 -74h-53z"/>
<glyph glyph-name="questiondown" horiz-adv-x="491" unicode="¿" d="M438 422q0 -36 -25 -61.5t-61 -25.5t-61.5 25.5t-25.5 61.5q0 37 25.5 62.5t61.5 25.5t61 -25.5t25 -62.5zM472 -27l-19 -128q-89 -51 -197 -51q-93 0 -158 50t-65 135q0 84 61 138q62 54 155 78l12 71h134l-23 -140q-29 -5 -59 -14.5t-61.5 -25t-51.5 -39.5t-20 -52 q0 -35 30.5 -53.5t85.5 -18.5q78 0 176 50z"/>
<glyph glyph-name="Agrave" d="M316 907h170l83 -146h-122zM531 281l-62 243l-139 -243h201zM754 0h-150l-42 162h-299l-92 -162h-155l411 704h138z" unicode="À"/>
<glyph glyph-name="Aacute" d="M568 761h-122l108 146h170zM531 281l-62 243l-139 -243h201zM754 0h-150l-42 162h-299l-92 -162h-155l411 704h138z" unicode="Á"/>
<glyph glyph-name="Acircumflex" d="M441 761h-127l144 146h137l96 -146h-118l-54 78zM531 281l-62 243l-139 -243h201zM754 0h-150l-42 162h-299l-92 -162h-155l411 704h138z" unicode="Â"/>
<glyph glyph-name="Atilde" d="M635 900h73q-9 -62 -42 -100t-81 -38q-32 0 -76 23q-43 23 -61 23q-35 0 -50 -42h-74q10 66 42 102.5t82 36.5q30 0 73 -23q44 -23 63 -23q36 0 51 41zM531 281l-62 243l-139 -243h201zM754 0h-150l-42 162h-299l-92 -162h-155l411 704h138z" unicode="Ã"/>
<glyph glyph-name="Adieresis" d="M404 760q-30 0 -52 21.5t-22 52.5q0 30 22 51.5t52 21.5q31 0 52.5 -21t21.5 -52t-21.5 -52.5t-52.5 -21.5zM676 781q-21 -21 -52 -21q-32 0 -53 21t-21 53q0 31 21 52t53 21q31 0 52 -21t21 -52q0 -32 -21 -53zM531 281l-62 243l-139 -243h201zM754 0h-150l-42 162h-299 l-92 -162h-155l411 704h138z" unicode="Ä"/>
<glyph glyph-name="Aring" d="M471 805q16 -13 33 -13q19 0 32 13q14 14 14 33q0 21 -14 32q-11 14 -32 14q-19 0 -33 -14q-13 -13 -13 -32q0 -17 13 -33zM578 764q-31 -31 -74 -31t-74 31t-31 74t31 74t74 31t74 -31t31 -74t-31 -74zM531 281l-62 243l-139 -243h201zM754 0h-150l-42 162h-299 l-92 -162h-155l411 704h138z" unicode="Å"/>
<glyph glyph-name="AE" horiz-adv-x="1063" unicode="Æ" d="M361 281h181l47 294h-17zM506 700h610l-20 -129h-363l-22 -135h291l-20 -127h-291l-29 -180h374l-20 -129h-518l25 162h-247l-116 -162h-159z"/>
<glyph glyph-name="Ccedilla" horiz-adv-x="677" unicode="Ç" d="M252 326q0 -89 59 -148q59 -57 157 -57q113 0 198 59l-22 -146q-76 -40 -155 -46l-60 -133h-163l107 139q-122 22 -196 111q-72 89 -72 212q0 173 112 285t289 112q120 0 212 -48l-24 -138q-82 51 -189 51q-112 0 -183 -71q-70 -70 -70 -182z"/>
<glyph glyph-name="Egrave" horiz-adv-x="649" unicode="È" d="M289 907h170l83 -146h-122zM602 0h-525l111 700h514l-20 -129h-370l-22 -135h298l-20 -127h-298l-29 -180h381z"/>
<glyph glyph-name="Eacute" horiz-adv-x="649" unicode="É" d="M495 761h-122l108 146h170zM602 0h-525l111 700h514l-20 -129h-370l-22 -135h298l-20 -127h-298l-29 -180h381z"/>
<glyph glyph-name="Ecircumflex" horiz-adv-x="649" unicode="Ê" d="M395 761h-127l144 146h137l96 -146h-118l-54 78zM602 0h-525l111 700h514l-20 -129h-370l-22 -135h298l-20 -127h-298l-29 -180h381z"/>
<glyph glyph-name="Edieresis" horiz-adv-x="649" unicode="Ë" d="M353 760q-30 0 -52 21.5t-22 52.5q0 30 22 51.5t52 21.5q31 0 52.5 -21t21.5 -52t-21.5 -52.5t-52.5 -21.5zM625 781q-21 -21 -52 -21q-32 0 -53 21t-21 53q0 31 21 52t53 21q31 0 52 -21t21 -52q0 -32 -21 -53zM602 0h-525l111 700h514l-20 -129h-370l-22 -135h298 l-20 -127h-298l-29 -180h381z"/>
<glyph glyph-name="Igrave" horiz-adv-x="307" unicode="Ì" d="M88 907h170l83 -146h-122zM225 0h-143l111 700h143z"/>
<glyph glyph-name="Iacute" horiz-adv-x="307" unicode="Í" d="M334 761h-122l108 146h170zM225 0h-143l111 700h143z"/>
<glyph glyph-name="Icircumflex" horiz-adv-x="307" unicode="Î" d="M211 761h-127l144 146h137l96 -146h-118l-54 78zM225 0h-143l111 700h143z"/>
<glyph glyph-name="Idieresis" horiz-adv-x="307" unicode="Ï" d="M173 760q-30 0 -52 21.5t-22 52.5q0 30 22 51.5t52 21.5q31 0 52.5 -21t21.5 -52t-21.5 -52.5t-52.5 -21.5zM445 781q-21 -21 -52 -21q-32 0 -53 21t-21 53q0 31 21 52t53 21q31 0 52 -21t21 -52q0 -32 -21 -53zM225 0h-143l111 700h143z"/>
<glyph glyph-name="Eth" horiz-adv-x="832" unicode="Ð" d="M294 129h143q117 0 182 69q65 71 65 181q0 81 -55 136q-56 56 -145 56h-119l-24 -145h138l-19 -119h-138zM178 307h-96l19 119h96l44 274h237q160 0 257 -91q97 -90 97 -235q0 -162 -115 -268t-294 -106h-293z"/>
<glyph glyph-name="Ntilde" d="M638 900h73q-9 -62 -42 -100t-81 -38q-32 0 -76 23q-43 23 -61 23q-35 0 -50 -42h-74q10 66 42 102.5t82 36.5q30 0 73 -23q44 -23 63 -23q36 0 51 41zM693 0h-118l-284 464l-73 -464h-141l110 700h122l281 -462l73 462h140z" unicode="Ñ"/>
<glyph glyph-name="Ograve" horiz-adv-x="832" unicode="Ò" d="M350 907h170l83 -146h-122zM453 121q101 0 165 73q66 74 66 182q0 87 -55 145t-146 58q-99 0 -165 -73q-66 -74 -66 -182q0 -87 55 -145t146 -58zM487 714q157 0 251 -94t94 -244q0 -163 -111 -277q-110 -113 -273 -113q-155 0 -249 94t-94 244q0 164 110 277t272 113z "/>
<glyph glyph-name="Oacute" horiz-adv-x="832" unicode="Ó" d="M590 761h-122l108 146h170zM453 121q101 0 165 73q66 74 66 182q0 87 -55 145t-146 58q-99 0 -165 -73q-66 -74 -66 -182q0 -87 55 -145t146 -58zM487 714q157 0 251 -94t94 -244q0 -163 -111 -277q-110 -113 -273 -113q-155 0 -249 94t-94 244q0 164 110 277t272 113z "/>
<glyph glyph-name="Ocircumflex" horiz-adv-x="832" unicode="Ô" d="M469 761h-127l144 146h137l96 -146h-118l-54 78zM453 121q101 0 165 73q66 74 66 182q0 87 -55 145t-146 58q-99 0 -165 -73q-66 -74 -66 -182q0 -87 55 -145t146 -58zM487 714q157 0 251 -94t94 -244q0 -163 -111 -277q-110 -113 -273 -113q-155 0 -249 94t-94 244 q0 164 110 277t272 113z"/>
<glyph glyph-name="Otilde" horiz-adv-x="832" unicode="Õ" d="M663 900h73q-9 -62 -42 -100t-81 -38q-32 0 -76 23q-43 23 -61 23q-35 0 -50 -42h-74q10 66 42 102.5t82 36.5q30 0 73 -23q44 -23 63 -23q36 0 51 41zM453 121q101 0 165 73q66 74 66 182q0 87 -55 145t-146 58q-99 0 -165 -73q-66 -74 -66 -182q0 -87 55 -145t146 -58z M487 714q157 0 251 -94t94 -244q0 -163 -111 -277q-110 -113 -273 -113q-155 0 -249 94t-94 244q0 164 110 277t272 113z"/>
<glyph glyph-name="Odieresis" horiz-adv-x="832" unicode="Ö" d="M423 760q-30 0 -52 21.5t-22 52.5q0 30 22 51.5t52 21.5q31 0 52.5 -21t21.5 -52t-21.5 -52.5t-52.5 -21.5zM695 781q-21 -21 -52 -21q-32 0 -53 21t-21 53q0 31 21 52t53 21q31 0 52 -21t21 -52q0 -32 -21 -53zM453 121q101 0 165 73q66 74 66 182q0 87 -55 145t-146 58 q-99 0 -165 -73q-66 -74 -66 -182q0 -87 55 -145t146 -58zM487 714q157 0 251 -94t94 -244q0 -163 -111 -277q-110 -113 -273 -113q-155 0 -249 94t-94 244q0 164 110 277t272 113z"/>
<glyph glyph-name="multiply" horiz-adv-x="586" unicode="×" d="M335 242l-168 -145l-79 92l169 145l-123 146l101 86l122 -145l169 145l77 -92l-168 -146l122 -145l-100 -86z"/>
<glyph glyph-name="Oslash" horiz-adv-x="832" unicode="Ø" d="M453 121q101 0 165 73q66 74 66 182q0 57 -26 104l-320 -327q50 -32 115 -32zM252 324q0 -62 27 -108l322 328q-50 35 -118 35q-99 0 -165 -73q-66 -74 -66 -182zM487 714q126 0 217 -65l50 51h120l-109 -111q67 -88 67 -213q0 -163 -111 -277q-110 -113 -273 -113 q-124 0 -212 63l-49 -49h-120l107 109q-69 87 -69 215q0 164 110 277t272 113z"/>
<glyph glyph-name="Ugrave" horiz-adv-x="739" unicode="Ù" d="M310 907h170l83 -146h-122zM570 285l66 415h145l-67 -423q-23 -140 -113 -216q-91 -75 -216 -75q-116 0 -196 68t-80 189q0 37 7 76l60 381h145l-63 -390q-5 -32 -5 -52q0 -65 38.5 -101t106.5 -36q70 0 115 41t57 123z"/>
<glyph glyph-name="Uacute" horiz-adv-x="739" unicode="Ú" d="M542 761h-122l108 146h170zM570 285l66 415h145l-67 -423q-23 -140 -113 -216q-91 -75 -216 -75q-116 0 -196 68t-80 189q0 37 7 76l60 381h145l-63 -390q-5 -32 -5 -52q0 -65 38.5 -101t106.5 -36q70 0 115 41t57 123z"/>
<glyph glyph-name="Ucircumflex" horiz-adv-x="739" unicode="Û" d="M429 761h-127l144 146h137l96 -146h-118l-54 78zM570 285l66 415h145l-67 -423q-23 -140 -113 -216q-91 -75 -216 -75q-116 0 -196 68t-80 189q0 37 7 76l60 381h145l-63 -390q-5 -32 -5 -52q0 -65 38.5 -101t106.5 -36q70 0 115 41t57 123z"/>
<glyph glyph-name="Udieresis" horiz-adv-x="739" unicode="Ü" d="M392 760q-30 0 -52 21.5t-22 52.5q0 30 22 51.5t52 21.5q31 0 52.5 -21t21.5 -52t-21.5 -52.5t-52.5 -21.5zM664 781q-21 -21 -52 -21q-32 0 -53 21t-21 53q0 31 21 52t53 21q31 0 52 -21t21 -52q0 -32 -21 -53zM570 285l66 415h145l-67 -423q-23 -140 -113 -216 q-91 -75 -216 -75q-116 0 -196 68t-80 189q0 37 7 76l60 381h145l-63 -390q-5 -32 -5 -52q0 -65 38.5 -101t106.5 -36q70 0 115 41t57 123z"/>
<glyph glyph-name="Yacute" horiz-adv-x="705" unicode="Ý" d="M525 761h-122l108 146h170zM420 443l221 257h163l-330 -383l-50 -317h-143l49 314l-210 386h161z"/>
<glyph glyph-name="Thorn" horiz-adv-x="672" unicode="Þ" d="M261 261h174q50 0 84 26t34 72q0 36 -24 56t-69 20h-171zM220 0h-143l111 700h143l-22 -139h167q103 0 163 -51t60 -135q0 -104 -76 -171q-75 -66 -192 -66h-189z"/>
<glyph glyph-name="germandbls" horiz-adv-x="627" unicode="ß" d="M389 -9q-67 0 -106 17l17 108q34 -15 73 -15q50 0 84 34t34 86q0 45 -33 75t-89 34l-20 1l15 91h25q44 1 72.5 26t28.5 67q0 34 -24 55.5t-65 21.5q-45 0 -75.5 -30t-39.5 -84l-76 -478h-141l77 487q16 106 88 165q72 60 174 60q87 0 152 -47q66 -47 66 -128 q0 -55 -30 -98t-83 -63q48 -16 80.5 -59t32.5 -101q0 -100 -67 -163q-68 -62 -170 -62z"/>
<glyph glyph-name="agrave" horiz-adv-x="602" unicode="à" d="M230 716h170l83 -146h-122zM394 145l10 52q-44 30 -110 30q-46 0 -74.5 -19t-28.5 -54q0 -29 23.5 -44.5t64.5 -15.5q33 0 65 14.5t50 36.5zM569 106q10 0 25 5l-16 -102q-28 -18 -74 -18q-91 0 -108 62q-68 -66 -166 -66q-81 0 -130 43t-49 112q0 82 60 129 q62 47 147 47q88 0 159 -38q4 25 4 36q0 81 -127 81q-79 0 -150 -34l18 117q75 32 175 32q97 0 161 -43t64 -134q0 -25 -7 -60l-16 -97q-5 -33 -5 -39q0 -33 35 -33z"/>
<glyph glyph-name="aacute" horiz-adv-x="602" unicode="á" d="M428 570h-122l107 146h171zM394 145l10 52q-44 30 -110 30q-46 0 -74.5 -19t-28.5 -54q0 -29 23.5 -44.5t64.5 -15.5q33 0 65 14.5t50 36.5zM569 106q10 0 25 5l-16 -102q-28 -18 -74 -18q-91 0 -108 62q-68 -66 -166 -66q-81 0 -130 43t-49 112q0 82 60 129 q62 47 147 47q88 0 159 -38q4 25 4 36q0 81 -127 81q-79 0 -150 -34l18 117q75 32 175 32q97 0 161 -43t64 -134q0 -25 -7 -60l-16 -97q-5 -33 -5 -39q0 -33 35 -33z"/>
<glyph glyph-name="acircumflex" horiz-adv-x="602" unicode="â" d="M313 570h-127l144 146h137l96 -146h-118l-54 78zM394 145l10 52q-44 30 -110 30q-46 0 -74.5 -19t-28.5 -54q0 -29 23.5 -44.5t64.5 -15.5q33 0 65 14.5t50 36.5zM569 106q10 0 25 5l-16 -102q-28 -18 -74 -18q-91 0 -108 62q-68 -66 -166 -66q-81 0 -130 43t-49 112 q0 82 60 129q62 47 147 47q88 0 159 -38q4 25 4 36q0 81 -127 81q-79 0 -150 -34l18 117q75 32 175 32q97 0 161 -43t64 -134q0 -25 -7 -60l-16 -97q-5 -33 -5 -39q0 -33 35 -33z"/>
<glyph glyph-name="atilde" horiz-adv-x="602" unicode="ã" d="M519 710h73q-9 -62 -42 -100t-81 -38q-32 0 -76 23q-43 23 -61 23q-35 0 -50 -42h-74q10 66 42 102.5t82 36.5q30 0 73 -23q44 -23 63 -23q36 0 51 41zM394 145l10 52q-44 30 -110 30q-46 0 -74.5 -19t-28.5 -54q0 -29 23.5 -44.5t64.5 -15.5q33 0 65 14.5t50 36.5z M569 106q10 0 25 5l-16 -102q-28 -18 -74 -18q-91 0 -108 62q-68 -66 -166 -66q-81 0 -130 43t-49 112q0 82 60 129q62 47 147 47q88 0 159 -38q4 25 4 36q0 81 -127 81q-79 0 -150 -34l18 117q75 32 175 32q97 0 161 -43t64 -134q0 -25 -7 -60l-16 -97q-5 -33 -5 -39 q0 -33 35 -33z"/>
<glyph glyph-name="adieresis" horiz-adv-x="602" unicode="ä" d="M272 569q-30 0 -52 21.5t-22 52.5q0 30 22 51.5t52 21.5q31 0 52.5 -21t21.5 -52t-21.5 -52.5t-52.5 -21.5zM544 590q-21 -21 -52 -21q-32 0 -53 21t-21 53q0 31 21 52t53 21q31 0 52 -21t21 -52q0 -32 -21 -53zM394 145l10 52q-44 30 -110 30q-46 0 -74.5 -19t-28.5 -54 q0 -29 23.5 -44.5t64.5 -15.5q33 0 65 14.5t50 36.5zM569 106q10 0 25 5l-16 -102q-28 -18 -74 -18q-91 0 -108 62q-68 -66 -166 -66q-81 0 -130 43t-49 112q0 82 60 129q62 47 147 47q88 0 159 -38q4 25 4 36q0 81 -127 81q-79 0 -150 -34l18 117q75 32 175 32 q97 0 161 -43t64 -134q0 -25 -7 -60l-16 -97q-5 -33 -5 -39q0 -33 35 -33z"/>
<glyph glyph-name="aring" horiz-adv-x="602" unicode="å" d="M362 612q16 -13 33 -13q19 0 32 13q14 14 14 33q0 21 -14 32q-11 14 -32 14q-19 0 -33 -14q-13 -13 -13 -32q0 -17 13 -33zM469 571q-31 -31 -74 -31t-74 31t-31 74t31 74t74 31t74 -31t31 -74t-31 -74zM394 145l10 52q-44 30 -110 30q-46 0 -74.5 -19t-28.5 -54 q0 -29 23.5 -44.5t64.5 -15.5q33 0 65 14.5t50 36.5zM569 106q10 0 25 5l-16 -102q-28 -18 -74 -18q-91 0 -108 62q-68 -66 -166 -66q-81 0 -130 43t-49 112q0 82 60 129q62 47 147 47q88 0 159 -38q4 25 4 36q0 81 -127 81q-79 0 -150 -34l18 117q75 32 175 32 q97 0 161 -43t64 -134q0 -25 -7 -60l-16 -97q-5 -33 -5 -39q0 -33 35 -33z"/>
<glyph glyph-name="ae" horiz-adv-x="897" unicode="æ" d="M545 301h223v7q0 42 -25.5 67.5t-70.5 25.5q-46 0 -81 -26.5t-46 -73.5zM411 150q-1 5 -7 47q-45 30 -111 30q-46 0 -74 -19t-28 -54q0 -29 23.5 -44.5t64.5 -15.5t77.5 16t54.5 40zM905 298q0 -40 -9 -87h-360q3 -50 46 -77t111 -27q82 0 159 41l-17 -116 q-65 -45 -178 -45q-136 0 -208 91q-88 -91 -217 -91q-82 0 -131.5 43t-49.5 112q0 82 60 129q62 47 147 47q88 0 159 -38q3 18 3 36q0 81 -126 81q-79 0 -150 -34l18 117q75 32 175 32q107 0 170 -68q74 68 172 68q103 0 164 -61q62 -62 62 -153z"/>
<glyph glyph-name="ccedilla" horiz-adv-x="514" unicode="ç" d="M365 -12l-60 -133h-163l110 143q-82 22 -130.5 83.5t-48.5 149.5q0 120 86 200q86 81 212 81q92 0 162 -40l-19 -118q-65 35 -132 35q-74 0 -121 -43q-48 -42 -48 -108q0 -62 46 -95q47 -33 110 -33q64 0 121 28l-19 -123q-50 -23 -106 -27z"/>
<glyph glyph-name="egrave" horiz-adv-x="570" unicode="è" d="M222 716h170l83 -146h-122zM219 301h223v7q0 42 -25.5 67.5t-70.5 25.5q-46 0 -81 -26.5t-46 -73.5zM366 107q82 0 159 41l-17 -116q-64 -45 -177 -45q-111 0 -185 66q-73 66 -73 174q0 120 79 202q80 83 200 83q103 0 164 -61q62 -62 62 -153q0 -40 -9 -87h-360 q3 -50 46 -77t111 -27z"/>
<glyph glyph-name="eacute" horiz-adv-x="570" unicode="é" d="M421 570h-122l107 146h171zM219 301h223v7q0 42 -25.5 67.5t-70.5 25.5q-46 0 -81 -26.5t-46 -73.5zM366 107q82 0 159 41l-17 -116q-64 -45 -177 -45q-111 0 -185 66q-73 66 -73 174q0 120 79 202q80 83 200 83q103 0 164 -61q62 -62 62 -153q0 -40 -9 -87h-360 q3 -50 46 -77t111 -27z"/>
<glyph glyph-name="ecircumflex" horiz-adv-x="570" unicode="ê" d="M319 570h-127l144 146h137l96 -146h-118l-54 78zM219 301h223v7q0 42 -25.5 67.5t-70.5 25.5q-46 0 -81 -26.5t-46 -73.5zM366 107q82 0 159 41l-17 -116q-64 -45 -177 -45q-111 0 -185 66q-73 66 -73 174q0 120 79 202q80 83 200 83q103 0 164 -61q62 -62 62 -153 q0 -40 -9 -87h-360q3 -50 46 -77t111 -27z"/>
<glyph glyph-name="edieresis" horiz-adv-x="570" unicode="ë" d="M274 569q-30 0 -52 21.5t-22 52.5q0 30 22 51.5t52 21.5q31 0 52.5 -21t21.5 -52t-21.5 -52.5t-52.5 -21.5zM546 590q-21 -21 -52 -21q-32 0 -53 21t-21 53q0 31 21 52t53 21q31 0 52 -21t21 -52q0 -32 -21 -53zM219 301h223v7q0 42 -25.5 67.5t-70.5 25.5 q-46 0 -81 -26.5t-46 -73.5zM366 107q82 0 159 41l-17 -116q-64 -45 -177 -45q-111 0 -185 66q-73 66 -73 174q0 120 79 202q80 83 200 83q103 0 164 -61q62 -62 62 -153q0 -40 -9 -87h-360q3 -50 46 -77t111 -27z"/>
<glyph glyph-name="igrave" horiz-adv-x="293" unicode="ì" d="M48 716h170l83 -146h-122zM296 499l-78 -499h-141l78 499h141z"/>
<glyph glyph-name="iacute" horiz-adv-x="293" unicode="í" d="M302 570h-122l107 146h171zM296 499l-78 -499h-141l78 499h141z"/>
<glyph glyph-name="icircumflex" horiz-adv-x="293" unicode="î" d="M173 570h-127l144 146h137l96 -146h-118l-54 78zM296 499l-78 -499h-141l78 499h141z"/>
<glyph glyph-name="idieresis" horiz-adv-x="293" unicode="ï" d="M296 499l-78 -499h-141l78 499h141zM131 569q-30 0 -52 21.5t-22 52.5q0 30 22 51.5t52 21.5q31 0 52.5 -21t21.5 -52t-21.5 -52.5t-52.5 -21.5zM403 590q-21 -21 -52 -21q-32 0 -53 21t-21 53q0 31 21 52t53 21q31 0 52 -21t21 -52q0 -32 -21 -53z"/>
<glyph glyph-name="eth" horiz-adv-x="608" unicode="ð" d="M450 584l72 -112q45 -64 63.5 -112t18.5 -99q0 -115 -78 -194q-77 -80 -202 -80q-106 0 -179 62q-72 63 -72 169q0 100 67 170t173 70q49 0 94 -21l-74 109l-126 -43l-45 70l123 42l-59 85h146l31 -46l108 37l44 -71zM344 357q-53 0 -93 -38q-38 -38 -38 -96 q0 -49 32 -81t85 -32q56 0 94 37t38 94q0 51 -32.5 83.5t-85.5 32.5z"/>
<glyph glyph-name="ntilde" horiz-adv-x="615" unicode="ñ" d="M536 710h73q-9 -62 -42 -100t-81 -38q-32 0 -76 23q-43 23 -61 23q-35 0 -50 -42h-74q10 66 42 102.5t82 36.5q30 0 73 -23q44 -23 63 -23q36 0 51 41zM602 274l-43 -274h-141l40 250q5 42 5 50q0 39 -23 61t-60 22q-35 0 -67 -18.5t-51 -48.5l-52 -316h-141l78 499h141 l-9 -58q68 71 167 71q75 0 119 -45t44 -121q0 -31 -7 -72z"/>
<glyph glyph-name="ograve" horiz-adv-x="608" unicode="ò" d="M220 716h170l83 -146h-122zM334 110q60 0 102 45q43 44 43 111q0 55 -35.5 89t-91.5 34q-60 0 -102 -44q-42 -43 -42 -110q0 -56 35.5 -90.5t90.5 -34.5zM351 512q114 0 188 -71t74 -179q0 -111 -80 -194q-79 -81 -199 -81q-115 0 -188 70t-73 181q0 112 79 192 q79 82 199 82z"/>
<glyph glyph-name="oacute" horiz-adv-x="608" unicode="ó" d="M435 570h-122l107 146h171zM334 110q60 0 102 45q43 44 43 111q0 55 -35.5 89t-91.5 34q-60 0 -102 -44q-42 -43 -42 -110q0 -56 35.5 -90.5t90.5 -34.5zM351 512q114 0 188 -71t74 -179q0 -111 -80 -194q-79 -81 -199 -81q-115 0 -188 70t-73 181q0 112 79 192 q79 82 199 82z"/>
<glyph glyph-name="ocircumflex" horiz-adv-x="608" unicode="ô" d="M327 570h-127l144 146h137l96 -146h-118l-54 78zM334 110q60 0 102 45q43 44 43 111q0 55 -35.5 89t-91.5 34q-60 0 -102 -44q-42 -43 -42 -110q0 -56 35.5 -90.5t90.5 -34.5zM351 512q114 0 188 -71t74 -179q0 -111 -80 -194q-79 -81 -199 -81q-115 0 -188 70t-73 181 q0 112 79 192q79 82 199 82z"/>
<glyph glyph-name="otilde" horiz-adv-x="608" unicode="õ" d="M527 710h73q-9 -62 -42 -100t-81 -38q-32 0 -76 23q-43 23 -61 23q-35 0 -50 -42h-74q10 66 42 102.5t82 36.5q30 0 73 -23q44 -23 63 -23q36 0 51 41zM334 110q60 0 102 45q43 44 43 111q0 55 -35.5 89t-91.5 34q-60 0 -102 -44q-42 -43 -42 -110q0 -56 35.5 -90.5 t90.5 -34.5zM351 512q114 0 188 -71t74 -179q0 -111 -80 -194q-79 -81 -199 -81q-115 0 -188 70t-73 181q0 112 79 192q79 82 199 82z"/>
<glyph glyph-name="odieresis" horiz-adv-x="608" unicode="ö" d="M288 569q-30 0 -52 21.5t-22 52.5q0 30 22 51.5t52 21.5q31 0 52.5 -21t21.5 -52t-21.5 -52.5t-52.5 -21.5zM560 590q-21 -21 -52 -21q-32 0 -53 21t-21 53q0 31 21 52t53 21q31 0 52 -21t21 -52q0 -32 -21 -53zM334 110q60 0 102 45q43 44 43 111q0 55 -35.5 89 t-91.5 34q-60 0 -102 -44q-42 -43 -42 -110q0 -56 35.5 -90.5t90.5 -34.5zM351 512q114 0 188 -71t74 -179q0 -111 -80 -194q-79 -81 -199 -81q-115 0 -188 70t-73 181q0 112 79 192q79 82 199 82z"/>
<glyph glyph-name="divide" horiz-adv-x="602" unicode="÷" d="M590 268h-500l21 126h500zM221 105q0 36 25.5 61.5t61.5 25.5t61.5 -25.5t25.5 -61.5q0 -37 -25.5 -62.5t-61.5 -25.5t-61.5 25.5t-25.5 62.5zM299 556q0 37 25.5 62t61.5 25t61.5 -25t25.5 -62q0 -36 -25.5 -61.5t-61.5 -25.5t-61.5 25.5t-25.5 61.5z"/>
<glyph glyph-name="oslash" horiz-adv-x="625" unicode="ø" d="M342 110q60 0 102 45q43 44 43 111q0 26 -11 53l-198 -195q31 -14 64 -14zM216 235q0 -29 11 -56l198 195q-29 15 -65 15q-60 0 -102 -44q-42 -43 -42 -110zM359 512q92 0 159 -46l34 33h108l-88 -86q49 -64 49 -151q0 -111 -80 -194q-79 -81 -199 -81q-90 0 -157 46 l-33 -33h-108l86 85q-49 64 -49 153q0 112 79 192q79 82 199 82z"/>
<glyph glyph-name="ugrave" horiz-adv-x="617" unicode="ù" d="M235 716h170l83 -146h-122zM93 225l43 274h141l-40 -250q-5 -42 -5 -50q0 -39 23 -61t60 -22q35 0 67 18.5t51 48.5l52 316h141l-78 -499h-141l9 58q-68 -71 -167 -71q-75 0 -119 45t-44 121q0 31 7 72z"/>
<glyph glyph-name="uacute" horiz-adv-x="617" unicode="ú" d="M437 570h-122l107 146h171zM93 225l43 274h141l-40 -250q-5 -42 -5 -50q0 -39 23 -61t60 -22q35 0 67 18.5t51 48.5l52 316h141l-78 -499h-141l9 58q-68 -71 -167 -71q-75 0 -119 45t-44 121q0 31 7 72z"/>
<glyph glyph-name="ucircumflex" horiz-adv-x="617" unicode="û" d="M329 570h-127l144 146h137l96 -146h-118l-54 78zM93 225l43 274h141l-40 -250q-5 -42 -5 -50q0 -39 23 -61t60 -22q35 0 67 18.5t51 48.5l52 316h141l-78 -499h-141l9 58q-68 -71 -167 -71q-75 0 -119 45t-44 121q0 31 7 72z"/>
<glyph glyph-name="udieresis" horiz-adv-x="617" unicode="ü" d="M284 569q-30 0 -52 21.5t-22 52.5q0 30 22 51.5t52 21.5q31 0 52.5 -21t21.5 -52t-21.5 -52.5t-52.5 -21.5zM556 590q-21 -21 -52 -21q-32 0 -53 21t-21 53q0 31 21 52t53 21q31 0 52 -21t21 -52q0 -32 -21 -53zM93 225l43 274h141l-40 -250q-5 -42 -5 -50q0 -39 23 -61 t60 -22q35 0 67 18.5t51 48.5l52 316h141l-78 -499h-141l9 58q-68 -71 -167 -71q-75 0 -119 45t-44 121q0 31 7 72z"/>
<glyph glyph-name="yacute" horiz-adv-x="582" unicode="ý" d="M426 570h-122l107 146h171zM492 499h150l-310 -556q-84 -149 -226 -149q-56 0 -96 21l19 122q35 -21 72 -21q74 0 133 101l-149 482h147l90 -329z"/>
<glyph glyph-name="thorn" horiz-adv-x="647" unicode="þ" d="M388 389q-38 0 -73 -20t-56 -53l-21 -133q16 -30 51 -51.5t75 -21.5q60 0 102 44q42 45 42 111q0 56 -33 90t-87 34zM219 66l-42 -266h-141l142 900h141l-41 -259q68 71 166 71q94 0 151 -67t57 -166q0 -116 -73 -204q-72 -88 -191 -88q-55 0 -100.5 23t-68.5 56z"/>
<glyph glyph-name="uni0401" horiz-adv-x="649" unicode="Ё" d="M356 760q-30 0 -52 21.5t-22 52.5q0 30 22 51.5t52 21.5q31 0 52.5 -21t21.5 -52t-21.5 -52.5t-52.5 -21.5zM628 781q-21 -21 -52 -21q-32 0 -53 21t-21 53q0 31 21 52t53 21q31 0 52 -21t21 -52q0 -32 -21 -53zM602 0h-525l111 700h514l-20 -129h-370l-22 -135h298 l-20 -127h-298l-29 -180h381z"/>
<glyph glyph-name="uni0402" horiz-adv-x="774" unicode="Ђ" d="M643 571h-222l-26 -160q73 26 150 26q106 0 171 -62q66 -61 66 -154q0 -104 -73 -167q-74 -62 -186 -62q-54 0 -92 13l18 115q35 -11 65 -11q53 0 88.5 28t35.5 74q0 43 -32 68t-89 25q-77 0 -144 -30l-42 -274h-144l91 571h-157l20 129h522z"/>
<glyph glyph-name="uni0403" horiz-adv-x="614" unicode="Ѓ" d="M489 761h-122l108 146h170zM221 0h-144l111 700h505l-20 -129h-361z"/>
<glyph glyph-name="uni0404" horiz-adv-x="681" unicode="Є" d="M543 421l-19 -121h-271q4 -84 61.5 -132.5t153.5 -48.5q110 0 196 57l-22 -142q-88 -48 -187 -48q-157 0 -254 93q-96 93 -96 238q0 173 112 285t290 112q130 0 215 -49l-23 -136q-80 52 -193 52q-91 0 -155.5 -42.5t-84.5 -117.5h277z"/>
<glyph glyph-name="uni0405" horiz-adv-x="629" unicode="Ѕ" d="M642 656l-23 -140q-38 26 -104 47q-60 19 -123 19q-59 0 -92.5 -19t-33.5 -55q0 -27 34 -44l34 -14l47 -14l50 -15q86 -29 134 -67q60 -45 60 -128q0 -112 -87 -176q-86 -64 -213 -64q-79 0 -153 20t-119 55l23 147q39 -39 108 -64q72 -26 144 -26q34 0 64 6q33 8 58 30 t25 53q0 34 -34 52q-20 12 -38 17l-22 8q-6 2 -26.5 8t-25.5 8q-57 18 -81 28q-31 13 -63 34q-67 41 -67 130q0 108 81 165q83 57 205 57q140 0 238 -58z"/>
<glyph glyph-name="uni0406" horiz-adv-x="307" unicode="І" d="M225 0h-143l111 700h143z"/>
<glyph glyph-name="uni0407" horiz-adv-x="307" unicode="Ї" d="M173 760q-30 0 -52 21.5t-22 52.5q0 30 22 51.5t52 21.5q31 0 52.5 -21t21.5 -52t-21.5 -52.5t-52.5 -21.5zM445 781q-21 -21 -52 -21q-32 0 -53 21t-21 53q0 31 21 52t53 21q31 0 52 -21t21 -52q0 -32 -21 -53zM225 0h-143l111 700h143z"/>
<glyph glyph-name="uni0408" horiz-adv-x="499" unicode="Ј" d="M397 700h143l-76 -478q-38 -236 -271 -236q-49 0 -97.5 12.5t-75.5 33.5l23 143q23 -24 61.5 -39t76.5 -15q64 0 99 32.5t47 109.5z"/>
<glyph glyph-name="uni0409" horiz-adv-x="1104" unicode="Љ" d="M598 571h-209l-16 -96q-17 -101 -33 -168q-15 -67 -39 -132t-55 -100q-67 -80 -181 -80q-39 0 -57 9l21 131q19 -9 40 -9h8q60 0 99 90q13 32 22 74q14 57 20 93l20 118l32 199h492l-36 -232h147q113 0 175 -58q64 -58 64 -148q0 -124 -94 -193q-95 -69 -233 -69h-276z M846 350h-139l-36 -227h142q62 0 107 33q46 34 46 95q0 46 -32.5 72.5t-87.5 26.5z"/>
<glyph glyph-name="uni040A" horiz-adv-x="1122" unicode="Њ" d="M691 127h145q60 0 104 32t44 92q0 44 -31 70t-85 26h-142zM745 469h146q111 0 175 -59q64 -58 64 -148q0 -116 -90 -190q-88 -72 -217 -72h-296l50 321h-305l-51 -321h-144l111 700h144l-40 -248h306l39 248h145z"/>
<glyph glyph-name="uni040B" horiz-adv-x="801" unicode="Ћ" d="M643 571h-222l-25 -160q81 26 162 26q109 0 167.5 -46.5t58.5 -133.5q0 -21 -3 -42l-34 -215h-144l30 186q3 24 3 32q0 46 -28.5 66t-87.5 20q-80 0 -146 -29l-43 -275h-144l91 571h-157l20 129h522z"/>
<glyph glyph-name="uni040C" horiz-adv-x="702" unicode="Ќ" d="M516 761h-122l108 146h170zM221 0h-144l110 700h144l-44 -277l296 277h180l-348 -333l291 -367h-172l-262 324z"/>
<glyph glyph-name="uni040E" horiz-adv-x="672" unicode="Ў" d="M284 907h98q-1 -3 -1 -13q0 -28 18.5 -45t51.5 -17q36 0 61 20.5t31 54.5h99q-13 -77 -66.5 -121.5t-130.5 -44.5q-71 0 -117 37.5t-46 100.5q0 4 2 28zM602 700h158l-329 -548q-100 -166 -240 -166q-67 0 -108 24l19 123q34 -19 83 -19q43 0 69 19q28 19 65 77l-201 490 h154l135 -344z"/>
<glyph glyph-name="uni040F" horiz-adv-x="736" unicode="Џ" d="M413 -143h-136l22 143h-222l111 700h144l-90 -571h293l90 571h144l-111 -700h-223z"/>
<glyph glyph-name="uni0410" d="M531 281l-62 243l-139 -243h201zM754 0h-150l-42 162h-299l-92 -162h-155l411 704h138z" unicode="А"/>
<glyph glyph-name="uni0411" horiz-adv-x="687" unicode="Б" d="M241 127h155q60 0 100.5 31.5t40.5 87.5q0 43 -30 68t-83 25h-149zM294 459h154q110 0 171 -58q63 -57 63 -146q0 -115 -87 -185q-86 -70 -213 -70h-305l111 700h507l-19 -129h-364z"/>
<glyph glyph-name="uni0412" horiz-adv-x="716" unicode="В" d="M289 426h163q44 0 73 23t29 64q0 31 -21.5 49t-60.5 18h-159zM241 124h194q52 0 86 27.5t34 75.5q0 37 -26 58.5t-71 21.5h-188zM591 384q52 -12 85.5 -54.5t33.5 -104.5q0 -103 -76 -164q-74 -61 -191 -61h-366l110 700h314q89 0 142 -42t53 -114q0 -54 -27.5 -96 t-77.5 -64z"/>
<glyph glyph-name="uni0413" horiz-adv-x="614" unicode="Г" d="M221 0h-144l111 700h505l-20 -129h-361z"/>
<glyph glyph-name="uni0414" horiz-adv-x="794" unicode="Д" d="M267 129h280l70 442h-205q-20 -131 -53 -242q-32 -107 -92 -200zM130 -143h-135l43 272h69q61 75 98 180q38 104 67 280l17 111h492l-90 -571h96l-43 -272h-135l22 143h-479z"/>
<glyph glyph-name="uni0415" horiz-adv-x="649" unicode="Е" d="M602 0h-525l111 700h514l-20 -129h-370l-22 -135h298l-20 -127h-298l-29 -180h381z"/>
<glyph glyph-name="uni0416" horiz-adv-x="1053" unicode="Ж" d="M200 0h-184l366 368l-201 332h167l171 -293l46 293h144l-47 -293l273 293h176l-323 -347l240 -353h-178l-204 306l-48 -306h-143l48 307z"/>
<glyph glyph-name="uni0417" horiz-adv-x="629" unicode="З" d="M523 375q47 -19 74.5 -58t27.5 -92q0 -76 -49 -131q-94 -108 -270 -108q-153 0 -248 65l21 141q104 -74 230 -74q71 0 120 27q49 28 49 82q0 82 -129 82h-99l18 121h100q57 0 89.5 20.5t32.5 58.5q0 73 -125 73q-121 0 -228 -59l21 136q107 55 230 55q114 0 180 -51 q67 -49 67 -132q0 -52 -30 -93.5t-82 -62.5z"/>
<glyph glyph-name="uni0418" horiz-adv-x="761" unicode="И" d="M541 0l72 455l-415 -455h-121l110 700h144l-71 -451l410 451h124l-110 -700h-143z"/>
<glyph glyph-name="uni0419" horiz-adv-x="761" unicode="Й" d="M345 907h98q-1 -3 -1 -13q0 -28 18.5 -45t51.5 -17q36 0 61 20.5t31 54.5h99q-13 -77 -66.5 -121.5t-130.5 -44.5q-71 0 -117 37.5t-46 100.5q0 4 2 28zM541 0l72 455l-415 -455h-121l110 700h144l-71 -451l410 451h124l-110 -700h-143z"/>
<glyph glyph-name="uni041A" horiz-adv-x="702" unicode="К" d="M221 0h-144l110 700h144l-44 -277l296 277h180l-348 -333l291 -367h-172l-262 324z"/>
<glyph glyph-name="uni041B" horiz-adv-x="731" unicode="Л" d="M764 700l-110 -700h-143l90 571h-212l-16 -96q-15 -92 -32 -168q-15 -68 -40 -131q-24 -64 -55 -101q-67 -80 -181 -80q-39 0 -57 9l21 131q19 -9 40 -9h8q60 0 99 90q13 32 22 74q14 57 20 93l20 118l32 199h494z"/>
<glyph glyph-name="uni041C" horiz-adv-x="845" unicode="М" d="M878 700l-110 -700h-142l76 482l-196 -228h-80l-130 228l-75 -482h-144l110 700h138l158 -293l248 293h147z"/>
<glyph glyph-name="uni041D" horiz-adv-x="758" unicode="Н" d="M221 0h-144l111 700h144l-42 -262h316l42 262h143l-111 -700h-143l49 307h-316z"/>
<glyph glyph-name="uni041E" horiz-adv-x="832" unicode="О" d="M453 121q101 0 165 73q66 74 66 182q0 87 -55 145t-146 58q-99 0 -165 -73q-66 -74 -66 -182q0 -87 55 -145t146 -58zM487 714q157 0 251 -94t94 -244q0 -163 -111 -277q-110 -113 -273 -113q-155 0 -249 94t-94 244q0 164 110 277t272 113z"/>
<glyph glyph-name="uni041F" horiz-adv-x="741" unicode="П" d="M221 0h-144l111 700h586l-111 -700h-143l91 571h-299z"/>
<glyph glyph-name="uni0420" horiz-adv-x="659" unicode="Р" d="M284 400h157q50 0 84 26t34 72q0 36 -24 56t-69 20h-154zM188 700h294q103 0 163 -51t60 -135q0 -104 -76 -171q-75 -66 -192 -66h-172l-44 -277h-144z"/>
<glyph glyph-name="uni0421" horiz-adv-x="677" unicode="С" d="M252 326q0 -89 59 -148q59 -57 157 -57q113 0 198 59l-22 -146q-90 -48 -189 -48q-157 0 -254 93q-96 93 -96 238q0 173 112 285t289 112q120 0 212 -48l-24 -138q-82 51 -189 51q-112 0 -183 -71q-70 -70 -70 -182z"/>
<glyph glyph-name="uni0422" horiz-adv-x="647" unicode="Т" d="M121 571l20 129h587l-20 -129h-222l-91 -571h-144l91 571h-221z"/>
<glyph glyph-name="uni0423" horiz-adv-x="672" unicode="У" d="M602 700h158l-329 -548q-100 -166 -240 -166q-67 0 -108 24l19 123q34 -19 83 -19q43 0 69 19q28 19 65 77l-201 490h154l135 -344z"/>
<glyph glyph-name="uni0424" horiz-adv-x="932" unicode="Ф" d="M542 46l-12 -73h-144l12 77q-140 17 -217 92q-76 76 -76 188q0 151 110 243q109 91 280 93l10 60h145l-11 -64q139 -16 216 -93q77 -75 77 -187q0 -151 -110 -243q-109 -91 -280 -93zM619 535l-57 -361q98 2 160 56q63 56 63 145q0 68 -46 111.5t-120 48.5zM419 177 l57 361q-98 -2 -160 -56q-63 -56 -63 -145q0 -68 46 -111.5t120 -48.5z"/>
<glyph glyph-name="uni0425" horiz-adv-x="725" unicode="Х" d="M557 0l-148 262l-230 -262h-173l332 377l-180 323h162l115 -207l182 207h171l-282 -322l213 -378h-162z"/>
<glyph glyph-name="uni0426" horiz-adv-x="783" unicode="Ц" d="M733 -143h-136l22 143h-542l111 700h144l-90 -571h293l90 571h144l-90 -571h97z"/>
<glyph glyph-name="uni0427" horiz-adv-x="691" unicode="Ч" d="M535 411l46 289h143l-110 -700h-143l43 273q-76 -25 -162 -25q-109 0 -167.5 46.5t-58.5 133.5q0 19 5 54l33 218h144l-31 -195q-3 -21 -3 -38q0 -46 28 -66t86 -20q81 0 147 30z"/>
<glyph glyph-name="uni0428" horiz-adv-x="1033" unicode="Ш" d="M955 0h-878l111 700h144l-91 -571h223l91 571h143l-91 -571h224l91 571h144z"/>
<glyph glyph-name="uni0429" horiz-adv-x="1080" unicode="Щ" d="M1030 -143h-136l22 143h-839l111 700h144l-90 -571h224l90 571h143l-90 -571h224l90 571h143l-90 -571h97z"/>
<glyph glyph-name="uni042A" horiz-adv-x="799" unicode="Ъ" d="M363 127h150q60 0 104 32t44 92q0 44 -31 70t-85 26h-147zM417 469h151q111 0 175 -59q64 -58 64 -148q0 -116 -90 -190q-89 -72 -217 -72h-301l90 571h-178l20 129h323z"/>
<glyph glyph-name="uni042B" horiz-adv-x="927" unicode="Ы" d="M241 127h128q60 0 104 32t44 92q0 44 -31 70t-85 26h-125zM295 469h129q111 0 175 -59q64 -58 64 -148q0 -116 -90 -190q-89 -72 -217 -72h-279l110 700h145zM960 700l-110 -700h-144l110 700h144z"/>
<glyph glyph-name="uni042C" horiz-adv-x="677" unicode="Ь" d="M241 127h150q60 0 104 32t44 92q0 44 -31 70t-85 26h-147zM295 469h151q111 0 175 -59q64 -58 64 -148q0 -116 -90 -190q-89 -72 -217 -72h-301l110 700h145z"/>
<glyph glyph-name="uni042D" horiz-adv-x="677" unicode="Э" d="M521 300h-282l19 121h266q-13 74 -69 117t-142 43q-105 0 -190 -52l23 141q90 44 181 44q157 0 253 -93q97 -93 97 -238q0 -172 -113 -285q-112 -112 -289 -112q-132 0 -215 49l23 136q79 -52 193 -52q94 0 159.5 48.5t85.5 132.5z"/>
<glyph glyph-name="uni042E" horiz-adv-x="1053" unicode="Ю" d="M691 121q97 0 157 79q60 80 60 183q0 90 -47.5 143t-125.5 53q-97 0 -157 -80q-60 -79 -60 -182q0 -90 47.5 -143t125.5 -53zM749 714q136 0 220 -95t84 -232q0 -99 -47 -191t-134 -151q-88 -59 -195 -59q-129 0 -212 86q-84 87 -91 215h-106l-45 -287h-146l111 700h146 l-45 -282h98q33 124 131 210q100 86 231 86z"/>
<glyph glyph-name="uni042F" horiz-adv-x="733" unicode="Я" d="M398 404h177l27 170h-177q-48 0 -81 -26t-33 -71q0 -33 23 -53t64 -20zM437 283l-246 -283h-167l259 300q-55 18 -87 63.5t-32 104.5q0 105 80 168q80 64 197 64h325l-111 -700h-144l45 283h-119z"/>
<glyph glyph-name="uni0430" horiz-adv-x="602" unicode="а" d="M394 145l10 52q-44 30 -110 30q-46 0 -74.5 -19t-28.5 -54q0 -29 23.5 -44.5t64.5 -15.5q33 0 65 14.5t50 36.5zM569 106q10 0 25 5l-16 -102q-28 -18 -74 -18q-91 0 -108 62q-68 -66 -166 -66q-81 0 -130 43t-49 112q0 82 60 129q62 47 147 47q88 0 159 -38q4 25 4 36 q0 81 -127 81q-79 0 -150 -34l18 117q75 32 175 32q97 0 161 -43t64 -134q0 -25 -7 -60l-16 -97q-5 -33 -5 -39q0 -33 35 -33z"/>
<glyph glyph-name="uni0431" horiz-adv-x="610" unicode="б" d="M220 269l-2 -27q0 -60 32.5 -98t89.5 -38q56 0 93 40q38 41 38 99q0 47 -30.5 76t-79.5 29q-42 0 -80.5 -23t-60.5 -58zM460 560q-108 -16 -167 -57.5t-74 -119.5q79 84 189 84q88 0 145 -61q58 -61 58 -151q0 -115 -79 -191q-80 -77 -202 -77q-116 0 -183 75 q-66 77 -66 194q0 165 82 273t240 138q55 11 126 23q74 12 96 17l-21 -128q-7 0 -144 -19z"/>
<glyph glyph-name="uni0432" horiz-adv-x="586" unicode="в" d="M255 300h106q30 0 49.5 16t19.5 43q0 24 -16.5 33.5t-53.5 9.5h-88zM224 99h128q34 1 54.5 18.5t20.5 47.5q0 46 -73 46h-113zM492 257q76 -28 76 -105q0 -74 -55 -113t-150 -39h-294l79 499h282q67 0 104.5 -32.5t37.5 -83.5q0 -44 -22.5 -76.5t-57.5 -49.5z"/>
<glyph glyph-name="uni0433" horiz-adv-x="492" unicode="г" d="M210 0h-141l79 499h396l-19 -118h-255z"/>
<glyph glyph-name="uni0434" horiz-adv-x="676" unicode="д" d="M246 118h200l43 263h-156q-26 -155 -87 -263zM135 -127h-134l37 245h64q71 88 106 284l17 97h420l-61 -381h82l-38 -245h-133l20 127h-360z"/>
<glyph glyph-name="uni0435" horiz-adv-x="570" unicode="е" d="M219 301h223v7q0 42 -25.5 67.5t-70.5 25.5q-46 0 -81 -26.5t-46 -73.5zM366 107q82 0 159 41l-17 -116q-64 -45 -177 -45q-111 0 -185 66q-73 66 -73 174q0 120 79 202q80 83 200 83q103 0 164 -61q62 -62 62 -153q0 -40 -9 -87h-360q3 -50 46 -77t111 -27z"/>
<glyph glyph-name="uni0436" horiz-adv-x="844" unicode="ж" d="M184 0h-174l264 274l-143 225h155l113 -188l30 188h141l-30 -188l176 188h165l-227 -241l178 -258h-161l-146 213l-34 -213h-140l33 213z"/>
<glyph glyph-name="uni0437" horiz-adv-x="532" unicode="з" d="M433 268q35 -9 59 -38t24 -69q0 -77 -75 -126q-75 -48 -189 -48q-127 0 -198 38l18 114q71 -40 170 -40q58 0 94 16.5t36 46.5q0 44 -88 44h-95l15 102h94q40 0 60 13.5t20 35.5q0 43 -97 43q-84 0 -162 -35l16 109q87 38 182 38q92 0 150 -37q58 -36 58 -93 q0 -43 -27 -75t-65 -39z"/>
<glyph glyph-name="uni0438" horiz-adv-x="635" unicode="и" d="M244 212l268 287h132l-78 -499h-141l44 287l-268 -287h-132l79 499h141z"/>
<glyph glyph-name="uni0439" horiz-adv-x="635" unicode="й" d="M250 723h97q0 -1 -0.5 -6t-0.5 -7q0 -28 19 -44.5t52 -16.5q36 0 60.5 20t31.5 54h99q-13 -77 -66.5 -121.5t-130.5 -44.5q-71 0 -117 38t-46 100q0 4 2 28zM244 212l268 287h132l-78 -499h-141l44 287l-268 -287h-132l79 499h141z"/>
<glyph glyph-name="uni043A" horiz-adv-x="596" unicode="к" d="M210 0h-141l79 499h142l-30 -177l198 177h179l-256 -234l211 -265h-164l-183 223z"/>
<glyph glyph-name="uni043B" horiz-adv-x="634" unicode="л" d="M483 381h-154l-12 -67l-13 -66q-9 -42 -18 -66q-8 -20 -24 -58q-13 -30 -28.5 -49.5t-42.5 -42.5q-45 -36 -116 -36q-39 0 -55 9l19 115q9 -4 28 -4q46 0 72 54.5t48 184.5l24 144h432l-79 -499h-141z"/>
<glyph glyph-name="uni043C" horiz-adv-x="708" unicode="м" d="M400 313l175 186h142l-79 -499h-133l49 310l-149 -157h-55l-99 157l-48 -310h-134l79 499h136z"/>
<glyph glyph-name="uni043D" horiz-adv-x="626" unicode="н" d="M210 0h-141l79 499h141l-29 -185h205l29 185h141l-79 -499h-141l31 196h-205z"/>
<glyph glyph-name="uni043E" horiz-adv-x="608" unicode="о" d="M334 110q60 0 102 45q43 44 43 111q0 55 -35.5 89t-91.5 34q-60 0 -102 -44q-42 -43 -42 -110q0 -56 35.5 -90.5t90.5 -34.5zM351 512q114 0 188 -71t74 -179q0 -111 -80 -194q-79 -81 -199 -81q-115 0 -188 70t-73 181q0 112 79 192q79 82 199 82z"/>
<glyph glyph-name="uni043F" horiz-adv-x="620" unicode="п" d="M210 0h-141l79 499h481l-79 -499h-141l61 381h-199z"/>
<glyph glyph-name="uni0440" horiz-adv-x="647" unicode="р" d="M388 389q-38 0 -73 -20t-56 -53l-21 -133q16 -30 51 -51.5t75 -21.5q60 0 102 44q42 45 42 111q0 56 -33 90t-87 34zM219 66l-42 -266h-141l111 699h141l-10 -58q68 71 166 71q94 0 151 -67t57 -166q0 -116 -73 -204q-72 -88 -191 -88q-55 0 -100.5 23t-68.5 56z"/>
<glyph glyph-name="uni0441" horiz-adv-x="514" unicode="с" d="M533 472l-19 -118q-65 35 -132 35q-74 0 -121 -43q-48 -42 -48 -108q0 -62 46 -95q47 -33 110 -33q64 0 121 28l-19 -123q-60 -28 -136 -28q-114 0 -188 67q-74 68 -74 177q0 120 86 200q86 81 212 81q92 0 162 -40z"/>
<glyph glyph-name="uni0442" horiz-adv-x="484" unicode="т" d="M312 0h-141l60 381h-156l19 118h455l-19 -118h-158z"/>
<glyph glyph-name="uni0443" horiz-adv-x="582" unicode="у" d="M492 499h150l-310 -556q-84 -149 -226 -149q-56 0 -96 21l19 122q35 -21 72 -21q74 0 133 101l-149 482h147l90 -329z"/>
<glyph glyph-name="uni0444" horiz-adv-x="763" unicode="ф" d="M326 112l44 278q-69 -2 -114 -44q-46 -43 -46 -111q0 -49 31.5 -82.5t84.5 -40.5zM515 387l-44 -278q68 0 114 44q46 43 46 112q0 48 -31.5 81.5t-84.5 40.5zM419 -200h-141l32 197q-112 15 -174.5 77t-62.5 151q0 123 90 201t227 78l31 196h141l-31 -197 q112 -15 174.5 -77t62.5 -151q0 -123 -90 -201t-227 -78z"/>
<glyph glyph-name="uni0445" horiz-adv-x="593" unicode="х" d="M474 499h164l-221 -238l160 -261h-151l-97 158l-148 -158h-164l242 260l-146 239h151l85 -139z"/>
<glyph glyph-name="uni0446" horiz-adv-x="663" unicode="ц" d="M614 -127h-136l20 127h-429l79 499h141l-60 -381h201l60 381h141l-60 -381h82z"/>
<glyph glyph-name="uni0447" horiz-adv-x="578" unicode="ч" d="M282 147q-85 0 -136.5 39.5t-51.5 114.5q0 19 6 56l24 142h141l-22 -136q-3 -15 -3 -34q0 -63 81 -63q53 0 90 19l35 214h141l-79 -499h-141l26 164q-53 -17 -111 -17z"/>
<glyph glyph-name="uni0448" horiz-adv-x="861" unicode="ш" d="M791 0h-722l79 499h139l-60 -381h152l60 381h138l-60 -381h155l60 381h138z"/>
<glyph glyph-name="uni0449" horiz-adv-x="902" unicode="щ" d="M853 -127h-127l20 127h-677l79 499h139l-60 -381h152l60 381h138l-60 -381h155l60 381h138l-60 -381h82z"/>
<glyph glyph-name="uni044A" horiz-adv-x="652" unicode="ъ" d="M334 248l-22 -139h81q113 0 113 78q0 61 -86 61h-86zM374 499l-23 -146h106q87 0 137.5 -42.5t50.5 -113.5q0 -87 -61 -142q-59 -55 -158 -55h-272l61 381h-141l19 118h281z"/>
<glyph glyph-name="uni044B" horiz-adv-x="787" unicode="ы" d="M249 248l-22 -139h65q113 0 113 78q0 61 -86 61h-70zM289 499l-23 -146h90q87 0 137.5 -42.5t50.5 -113.5q0 -87 -61 -142q-59 -55 -158 -55h-256l80 499h140zM576 0l79 499h141l-79 -499h-141z"/>
<glyph glyph-name="uni044C" horiz-adv-x="567" unicode="ь" d="M249 248l-22 -139h81q113 0 113 78q0 61 -86 61h-86zM289 499l-23 -146h106q87 0 137.5 -42.5t50.5 -113.5q0 -87 -61 -142q-59 -55 -158 -55h-272l80 499h140z"/>
<glyph glyph-name="uni044D" horiz-adv-x="512" unicode="э" d="M266 512q106 0 179 -65q72 -64 72 -172q0 -123 -85 -205q-85 -83 -213 -83q-98 0 -163 37l19 112q59 -32 131 -32q58 0 102 26t61 72h-188l15 98h180q-10 45 -49.5 70.5t-96.5 25.5q-60 0 -117 -26l19 115q57 27 134 27z"/>
<glyph glyph-name="uni044E" horiz-adv-x="836" unicode="ю" d="M572 110q54 0 94 45q40 46 40 113q0 54 -30.5 87.5t-79.5 33.5q-54 0 -94 -46q-40 -44 -40 -112q0 -54 30.5 -87.5t79.5 -33.5zM598 512q108 0 175 -70q68 -70 68 -176q0 -114 -79 -196q-80 -83 -192 -83q-99 0 -164 58q-67 59 -77 152h-88l-31 -197h-141l79 499h141 l-29 -184h79q25 84 97 141q71 56 162 56z"/>
<glyph glyph-name="uni044F" horiz-adv-x="590" unicode="я" d="M315 267h106l20 122h-108q-35 0 -59 -18t-24 -52q0 -25 17.5 -38.5t47.5 -13.5zM329 499h270l-79 -499h-141l26 165h-83l-139 -165h-158l162 190q-80 32 -80 125q0 88 62 135q61 47 160 49z"/>
<glyph glyph-name="uni0451" horiz-adv-x="570" unicode="ё" d="M270 562q-30 0 -52 21.5t-22 52.5q0 30 22 51.5t52 21.5q31 0 52.5 -21t21.5 -52t-21.5 -52.5t-52.5 -21.5zM542 583q-21 -21 -52 -21q-32 0 -53 21t-21 53q0 31 21 52t53 21q31 0 52 -21t21 -52q0 -32 -21 -53zM219 301h223v7q0 42 -25.5 67.5t-70.5 25.5 q-46 0 -81 -26.5t-46 -73.5zM366 107q82 0 159 41l-17 -116q-64 -45 -177 -45q-111 0 -185 66q-73 66 -73 174q0 120 79 202q80 83 200 83q103 0 164 -61q62 -62 62 -153q0 -40 -9 -87h-360q3 -50 46 -77t111 -27z"/>
<glyph glyph-name="uni0452" horiz-adv-x="656" unicode="ђ" d="M631 203l-34 -226q-14 -90 -68.5 -136.5t-141.5 -46.5q-72 0 -107 22l19 119q31 -19 71 -19t61 20t28 64l28 179q5 42 5 50q0 39 -23 61t-60 22q-35 0 -67 -18.5t-51 -48.5l-40 -245h-141l82 518h-102l15 93h102l14 89h141l-15 -89h161l-15 -93h-161l-24 -148 q68 71 167 71q75 0 119 -45t44 -121q0 -31 -7 -72z"/>
<glyph glyph-name="uni0453" horiz-adv-x="492" unicode="ѓ" d="M393 570h-122l107 146h171zM210 0h-141l79 499h396l-19 -118h-255z"/>
<glyph glyph-name="uni0454" horiz-adv-x="514" unicode="є" d="M324 -13q-106 0 -179 65q-72 64 -72 172q0 122 84 205q86 83 214 83q97 0 162 -36l-19 -114q-59 32 -130 32q-60 0 -103 -25t-60 -70h187l-15 -97h-181q21 -98 148 -98q63 0 123 29l-19 -117q-60 -29 -140 -29z"/>
<glyph glyph-name="uni0455" horiz-adv-x="503" unicode="ѕ" d="M515 455l-19 -117q-82 60 -179 60q-80 0 -80 -40q0 -18 19 -28t89 -31q76 -22 112.5 -56.5t36.5 -87.5q0 -81 -68 -125q-67 -43 -159 -43q-63 0 -125.5 16.5t-100.5 42.5l18 119q85 -63 206 -63q85 0 85 43q0 21 -33 33q-14 7 -66 24q-83 25 -122.5 57.5t-39.5 82.5 q0 83 64 126q65 44 159 44q124 0 203 -57z"/>
<glyph glyph-name="uni0456" horiz-adv-x="293" unicode="і" d="M160 631q0 36 24.5 60.5t59.5 24.5t60 -24.5t25 -60.5q0 -35 -25 -59.5t-60 -24.5t-59.5 24.5t-24.5 59.5zM295 499l-78 -499h-141l78 499h141z"/>
<glyph glyph-name="uni0457" horiz-adv-x="293" unicode="ї" d="M296 499l-78 -499h-141l78 499h141zM131 569q-30 0 -52 21.5t-22 52.5q0 30 22 51.5t52 21.5q31 0 52.5 -21t21.5 -52t-21.5 -52.5t-52.5 -21.5zM403 590q-21 -21 -52 -21q-32 0 -53 21t-21 53q0 31 21 52t53 21q31 0 52 -21t21 -52q0 -32 -21 -53z"/>
<glyph glyph-name="uni0458" horiz-adv-x="293" unicode="ј" d="M160 631q0 36 24.5 60.5t59.5 24.5t60 -24.5t25 -60.5q0 -35 -25 -59.5t-60 -24.5t-59.5 24.5t-24.5 59.5zM81 35l73 464h141l-82 -522q-15 -90 -69.5 -136.5t-140.5 -46.5q-72 0 -107 22l19 120q31 -19 71 -19q44 0 64 25t31 93z"/>
<glyph glyph-name="uni0459" horiz-adv-x="921" unicode="љ" d="M689 248h-86l-22 -139h81q113 0 113 78q0 61 -86 61zM483 381h-154l-12 -67l-13 -66q-9 -42 -18 -66q-8 -20 -24 -58q-13 -30 -28.5 -49.5t-42.5 -42.5q-45 -36 -116 -36q-39 0 -55 9l19 115q9 -4 28 -4q46 0 72 54.5t48 184.5l24 144h432l-23 -146h106q87 0 137.5 -42.5 t50.5 -113.5q0 -87 -61 -142q-59 -55 -158 -55h-272z"/>
<glyph glyph-name="uni045A" horiz-adv-x="913" unicode="њ" d="M681 248h-86l-22 -139h81q113 0 113 78q0 61 -86 61zM210 0h-141l79 499h141l-29 -185h205l29 185h141l-23 -146h106q87 0 137.5 -42.5t50.5 -113.5q0 -87 -61 -142q-59 -55 -158 -55h-272l31 196h-205z"/>
<glyph glyph-name="uni045B" horiz-adv-x="656" unicode="ћ" d="M192 518h-102l15 93h102l14 89h141l-15 -89h161l-15 -93h-161l-24 -148q68 71 167 71q75 0 119 -45t44 -121q0 -31 -7 -72l-31 -203h-141l28 179q5 42 5 50q0 39 -23 61t-60 22q-35 0 -67 -18.5t-51 -48.5l-40 -245h-141z"/>
<glyph glyph-name="uni045C" horiz-adv-x="596" unicode="ќ" d="M444 570h-122l107 146h171zM210 0h-141l79 499h142l-30 -177l198 177h179l-256 -234l211 -265h-164l-183 223z"/>
<glyph glyph-name="uni045E" horiz-adv-x="582" unicode="ў" d="M210 723h97q0 -1 -0.5 -6t-0.5 -7q0 -28 19 -44.5t52 -16.5q36 0 60.5 20t31.5 54h99q-13 -77 -66.5 -121.5t-130.5 -44.5q-71 0 -117 38t-46 100q0 4 2 28zM492 499h150l-310 -556q-84 -149 -226 -149q-56 0 -96 21l19 122q35 -21 72 -21q74 0 133 101l-149 482h147 l90 -329z"/>
<glyph glyph-name="uni045F" horiz-adv-x="622" unicode="џ" d="M359 -127h-137l20 127h-173l79 499h141l-60 -381h201l60 381h141l-79 -499h-173z"/>
<glyph glyph-name="uni0490" horiz-adv-x="610" unicode="Ґ" d="M221 0h-144l111 700h373l22 139h130l-43 -268h-359z"/>
<glyph glyph-name="uni0491" horiz-adv-x="492" unicode="ґ" d="M210 0h-141l79 499h267l20 124h129l-38 -242h-255z"/>
</font>
</defs>
</svg>
