<svg width="19" height="20" viewBox="0 0 19 20" fill="none" xmlns="http://www.w3.org/2000/svg">
<path d="M18.563 0.339577C18.271 0.140577 17.896 0.110577 17.574 0.260577L0.57399 8.26058C0.21899 8.42858 -0.00500955 8.78758 -9.54701e-06 9.17958C0.00599045 9.57158 0.23999 9.92458 0.59999 10.0816L5.99999 12.4446V19.1666L11.836 14.9986L16.6 17.0826C16.728 17.1396 16.865 17.1666 17 17.1666C17.181 17.1666 17.36 17.1176 17.52 17.0206C17.798 16.8516 17.977 16.5576 17.999 16.2326L18.999 1.23258C19.021 0.878577 18.856 0.539577 18.563 0.339577ZM16.097 14.6796L10.828 12.3736L14 6.16658L6.35099 10.4166L3.41899 9.13358L16.89 2.79358L16.097 14.6796Z" fill="#DB505A"/>
</svg>
