<svg width="19" height="20" viewBox="0 0 19 20" fill="none" xmlns="http://www.w3.org/2000/svg">
<path d="M18.563 0.339943C18.271 0.140943 17.896 0.110943 17.574 0.260943L0.57399 8.26094C0.21899 8.42894 -0.00500955 8.78794 -9.54701e-06 9.17994C0.00599045 9.57194 0.23999 9.92494 0.59999 10.0819L5.99999 12.4449V19.1669L11.836 14.9989L16.6 17.0829C16.728 17.1399 16.865 17.1669 17 17.1669C17.181 17.1669 17.36 17.1179 17.52 17.0209C17.798 16.8519 17.977 16.5579 17.999 16.2329L18.999 1.23294C19.021 0.878943 18.856 0.539943 18.563 0.339943ZM16.097 14.6799L10.828 12.3739L14 6.16694L6.35099 10.4169L3.41899 9.13394L16.89 2.79394L16.097 14.6799Z" fill="white"/>
</svg>
